G75*
%MOIN*%
%OFA0B0*%
%FSLAX25Y25*%
%IPPOS*%
%LPD*%
%AMOC8*
5,1,8,0,0,1.08239X$1,22.5*
%
%ADD10C,0.00000*%
%ADD11C,0.00600*%
%ADD12C,0.00800*%
%ADD13C,0.00500*%
%ADD14C,0.00300*%
%ADD15C,0.00400*%
%ADD16C,0.01000*%
%ADD17R,0.01181X0.08268*%
%ADD18R,0.01280X0.01673*%
%ADD19R,0.01378X0.01378*%
%ADD20R,0.01673X0.01280*%
D10*
X0001800Y0005800D02*
X0271800Y0005800D01*
X0271800Y0225800D01*
X0001800Y0225800D01*
X0001800Y0225761D02*
X0001800Y0005800D01*
D11*
X0007300Y0005300D02*
X0007300Y0046300D01*
X0009300Y0046300D02*
X0009300Y0005300D01*
X0009302Y0005213D01*
X0009308Y0005126D01*
X0009317Y0005039D01*
X0009330Y0004953D01*
X0009347Y0004867D01*
X0009368Y0004782D01*
X0009393Y0004699D01*
X0009421Y0004616D01*
X0009452Y0004535D01*
X0009487Y0004455D01*
X0009526Y0004377D01*
X0009568Y0004300D01*
X0009613Y0004225D01*
X0009662Y0004153D01*
X0009713Y0004082D01*
X0009768Y0004014D01*
X0009825Y0003949D01*
X0009886Y0003886D01*
X0009949Y0003825D01*
X0010014Y0003768D01*
X0010082Y0003713D01*
X0010153Y0003662D01*
X0010225Y0003613D01*
X0010300Y0003568D01*
X0010377Y0003526D01*
X0010455Y0003487D01*
X0010535Y0003452D01*
X0010616Y0003421D01*
X0010699Y0003393D01*
X0010782Y0003368D01*
X0010867Y0003347D01*
X0010953Y0003330D01*
X0011039Y0003317D01*
X0011126Y0003308D01*
X0011213Y0003302D01*
X0011300Y0003300D01*
X0052300Y0003300D01*
X0052300Y0001300D02*
X0011300Y0001300D01*
X0011174Y0001302D01*
X0011049Y0001308D01*
X0010924Y0001318D01*
X0010799Y0001332D01*
X0010674Y0001349D01*
X0010550Y0001371D01*
X0010427Y0001396D01*
X0010305Y0001426D01*
X0010184Y0001459D01*
X0010064Y0001496D01*
X0009945Y0001536D01*
X0009828Y0001581D01*
X0009711Y0001629D01*
X0009597Y0001681D01*
X0009484Y0001736D01*
X0009373Y0001795D01*
X0009264Y0001857D01*
X0009157Y0001923D01*
X0009052Y0001992D01*
X0008949Y0002064D01*
X0008848Y0002139D01*
X0008750Y0002218D01*
X0008655Y0002300D01*
X0008562Y0002384D01*
X0008472Y0002472D01*
X0008384Y0002562D01*
X0008300Y0002655D01*
X0008218Y0002750D01*
X0008139Y0002848D01*
X0008064Y0002949D01*
X0007992Y0003052D01*
X0007923Y0003157D01*
X0007857Y0003264D01*
X0007795Y0003373D01*
X0007736Y0003484D01*
X0007681Y0003597D01*
X0007629Y0003711D01*
X0007581Y0003828D01*
X0007536Y0003945D01*
X0007496Y0004064D01*
X0007459Y0004184D01*
X0007426Y0004305D01*
X0007396Y0004427D01*
X0007371Y0004550D01*
X0007349Y0004674D01*
X0007332Y0004799D01*
X0007318Y0004924D01*
X0007308Y0005049D01*
X0007302Y0005174D01*
X0007300Y0005300D01*
X0021800Y0020800D02*
X0021800Y0023300D01*
X0023300Y0028300D01*
X0021800Y0028300D02*
X0021800Y0030800D01*
X0022800Y0025800D02*
X0024300Y0025800D01*
X0025800Y0025800D02*
X0029800Y0025800D01*
X0031300Y0025800D02*
X0035300Y0025800D01*
X0036800Y0025800D02*
X0040800Y0025800D01*
X0041800Y0023300D02*
X0043300Y0028300D01*
X0041800Y0028300D02*
X0041800Y0030800D01*
X0036800Y0035800D02*
X0026800Y0035800D01*
X0011300Y0048300D02*
X0011213Y0048298D01*
X0011126Y0048292D01*
X0011039Y0048283D01*
X0010953Y0048270D01*
X0010867Y0048253D01*
X0010782Y0048232D01*
X0010699Y0048207D01*
X0010616Y0048179D01*
X0010535Y0048148D01*
X0010455Y0048113D01*
X0010377Y0048074D01*
X0010300Y0048032D01*
X0010225Y0047987D01*
X0010153Y0047938D01*
X0010082Y0047887D01*
X0010014Y0047832D01*
X0009949Y0047775D01*
X0009886Y0047714D01*
X0009825Y0047651D01*
X0009768Y0047586D01*
X0009713Y0047518D01*
X0009662Y0047447D01*
X0009613Y0047375D01*
X0009568Y0047300D01*
X0009526Y0047223D01*
X0009487Y0047145D01*
X0009452Y0047065D01*
X0009421Y0046984D01*
X0009393Y0046901D01*
X0009368Y0046818D01*
X0009347Y0046733D01*
X0009330Y0046647D01*
X0009317Y0046561D01*
X0009308Y0046474D01*
X0009302Y0046387D01*
X0009300Y0046300D01*
X0007300Y0046300D02*
X0007302Y0046426D01*
X0007308Y0046551D01*
X0007318Y0046676D01*
X0007332Y0046801D01*
X0007349Y0046926D01*
X0007371Y0047050D01*
X0007396Y0047173D01*
X0007426Y0047295D01*
X0007459Y0047416D01*
X0007496Y0047536D01*
X0007536Y0047655D01*
X0007581Y0047772D01*
X0007629Y0047889D01*
X0007681Y0048003D01*
X0007736Y0048116D01*
X0007795Y0048227D01*
X0007857Y0048336D01*
X0007923Y0048443D01*
X0007992Y0048548D01*
X0008064Y0048651D01*
X0008139Y0048752D01*
X0008218Y0048850D01*
X0008300Y0048945D01*
X0008384Y0049038D01*
X0008472Y0049128D01*
X0008562Y0049216D01*
X0008655Y0049300D01*
X0008750Y0049382D01*
X0008848Y0049461D01*
X0008949Y0049536D01*
X0009052Y0049608D01*
X0009157Y0049677D01*
X0009264Y0049743D01*
X0009373Y0049805D01*
X0009484Y0049864D01*
X0009597Y0049919D01*
X0009711Y0049971D01*
X0009828Y0050019D01*
X0009945Y0050064D01*
X0010064Y0050104D01*
X0010184Y0050141D01*
X0010305Y0050174D01*
X0010427Y0050204D01*
X0010550Y0050229D01*
X0010674Y0050251D01*
X0010799Y0050268D01*
X0010924Y0050282D01*
X0011049Y0050292D01*
X0011174Y0050298D01*
X0011300Y0050300D01*
X0052300Y0050300D01*
X0052300Y0048300D02*
X0011300Y0048300D01*
X0041800Y0023300D02*
X0041800Y0020800D01*
X0036800Y0015800D02*
X0026800Y0015800D01*
X0052300Y0003300D02*
X0052387Y0003302D01*
X0052474Y0003308D01*
X0052561Y0003317D01*
X0052647Y0003330D01*
X0052733Y0003347D01*
X0052818Y0003368D01*
X0052901Y0003393D01*
X0052984Y0003421D01*
X0053065Y0003452D01*
X0053145Y0003487D01*
X0053223Y0003526D01*
X0053300Y0003568D01*
X0053375Y0003613D01*
X0053447Y0003662D01*
X0053518Y0003713D01*
X0053586Y0003768D01*
X0053651Y0003825D01*
X0053714Y0003886D01*
X0053775Y0003949D01*
X0053832Y0004014D01*
X0053887Y0004082D01*
X0053938Y0004153D01*
X0053987Y0004225D01*
X0054032Y0004300D01*
X0054074Y0004377D01*
X0054113Y0004455D01*
X0054148Y0004535D01*
X0054179Y0004616D01*
X0054207Y0004699D01*
X0054232Y0004782D01*
X0054253Y0004867D01*
X0054270Y0004953D01*
X0054283Y0005039D01*
X0054292Y0005126D01*
X0054298Y0005213D01*
X0054300Y0005300D01*
X0054300Y0046300D01*
X0054298Y0046387D01*
X0054292Y0046474D01*
X0054283Y0046561D01*
X0054270Y0046647D01*
X0054253Y0046733D01*
X0054232Y0046818D01*
X0054207Y0046901D01*
X0054179Y0046984D01*
X0054148Y0047065D01*
X0054113Y0047145D01*
X0054074Y0047223D01*
X0054032Y0047300D01*
X0053987Y0047375D01*
X0053938Y0047447D01*
X0053887Y0047518D01*
X0053832Y0047586D01*
X0053775Y0047651D01*
X0053714Y0047714D01*
X0053651Y0047775D01*
X0053586Y0047832D01*
X0053518Y0047887D01*
X0053447Y0047938D01*
X0053375Y0047987D01*
X0053300Y0048032D01*
X0053223Y0048074D01*
X0053145Y0048113D01*
X0053065Y0048148D01*
X0052984Y0048179D01*
X0052901Y0048207D01*
X0052818Y0048232D01*
X0052733Y0048253D01*
X0052647Y0048270D01*
X0052561Y0048283D01*
X0052474Y0048292D01*
X0052387Y0048298D01*
X0052300Y0048300D01*
X0052300Y0050300D02*
X0052426Y0050298D01*
X0052551Y0050292D01*
X0052676Y0050282D01*
X0052801Y0050268D01*
X0052926Y0050251D01*
X0053050Y0050229D01*
X0053173Y0050204D01*
X0053295Y0050174D01*
X0053416Y0050141D01*
X0053536Y0050104D01*
X0053655Y0050064D01*
X0053772Y0050019D01*
X0053889Y0049971D01*
X0054003Y0049919D01*
X0054116Y0049864D01*
X0054227Y0049805D01*
X0054336Y0049743D01*
X0054443Y0049677D01*
X0054548Y0049608D01*
X0054651Y0049536D01*
X0054752Y0049461D01*
X0054850Y0049382D01*
X0054945Y0049300D01*
X0055038Y0049216D01*
X0055128Y0049128D01*
X0055216Y0049038D01*
X0055300Y0048945D01*
X0055382Y0048850D01*
X0055461Y0048752D01*
X0055536Y0048651D01*
X0055608Y0048548D01*
X0055677Y0048443D01*
X0055743Y0048336D01*
X0055805Y0048227D01*
X0055864Y0048116D01*
X0055919Y0048003D01*
X0055971Y0047889D01*
X0056019Y0047772D01*
X0056064Y0047655D01*
X0056104Y0047536D01*
X0056141Y0047416D01*
X0056174Y0047295D01*
X0056204Y0047173D01*
X0056229Y0047050D01*
X0056251Y0046926D01*
X0056268Y0046801D01*
X0056282Y0046676D01*
X0056292Y0046551D01*
X0056298Y0046426D01*
X0056300Y0046300D01*
X0056300Y0005300D01*
X0057300Y0005300D02*
X0057300Y0046300D01*
X0059300Y0046300D02*
X0059300Y0005300D01*
X0059302Y0005213D01*
X0059308Y0005126D01*
X0059317Y0005039D01*
X0059330Y0004953D01*
X0059347Y0004867D01*
X0059368Y0004782D01*
X0059393Y0004699D01*
X0059421Y0004616D01*
X0059452Y0004535D01*
X0059487Y0004455D01*
X0059526Y0004377D01*
X0059568Y0004300D01*
X0059613Y0004225D01*
X0059662Y0004153D01*
X0059713Y0004082D01*
X0059768Y0004014D01*
X0059825Y0003949D01*
X0059886Y0003886D01*
X0059949Y0003825D01*
X0060014Y0003768D01*
X0060082Y0003713D01*
X0060153Y0003662D01*
X0060225Y0003613D01*
X0060300Y0003568D01*
X0060377Y0003526D01*
X0060455Y0003487D01*
X0060535Y0003452D01*
X0060616Y0003421D01*
X0060699Y0003393D01*
X0060782Y0003368D01*
X0060867Y0003347D01*
X0060953Y0003330D01*
X0061039Y0003317D01*
X0061126Y0003308D01*
X0061213Y0003302D01*
X0061300Y0003300D01*
X0102300Y0003300D01*
X0102300Y0001300D02*
X0061300Y0001300D01*
X0061174Y0001302D01*
X0061049Y0001308D01*
X0060924Y0001318D01*
X0060799Y0001332D01*
X0060674Y0001349D01*
X0060550Y0001371D01*
X0060427Y0001396D01*
X0060305Y0001426D01*
X0060184Y0001459D01*
X0060064Y0001496D01*
X0059945Y0001536D01*
X0059828Y0001581D01*
X0059711Y0001629D01*
X0059597Y0001681D01*
X0059484Y0001736D01*
X0059373Y0001795D01*
X0059264Y0001857D01*
X0059157Y0001923D01*
X0059052Y0001992D01*
X0058949Y0002064D01*
X0058848Y0002139D01*
X0058750Y0002218D01*
X0058655Y0002300D01*
X0058562Y0002384D01*
X0058472Y0002472D01*
X0058384Y0002562D01*
X0058300Y0002655D01*
X0058218Y0002750D01*
X0058139Y0002848D01*
X0058064Y0002949D01*
X0057992Y0003052D01*
X0057923Y0003157D01*
X0057857Y0003264D01*
X0057795Y0003373D01*
X0057736Y0003484D01*
X0057681Y0003597D01*
X0057629Y0003711D01*
X0057581Y0003828D01*
X0057536Y0003945D01*
X0057496Y0004064D01*
X0057459Y0004184D01*
X0057426Y0004305D01*
X0057396Y0004427D01*
X0057371Y0004550D01*
X0057349Y0004674D01*
X0057332Y0004799D01*
X0057318Y0004924D01*
X0057308Y0005049D01*
X0057302Y0005174D01*
X0057300Y0005300D01*
X0056300Y0005300D02*
X0056298Y0005174D01*
X0056292Y0005049D01*
X0056282Y0004924D01*
X0056268Y0004799D01*
X0056251Y0004674D01*
X0056229Y0004550D01*
X0056204Y0004427D01*
X0056174Y0004305D01*
X0056141Y0004184D01*
X0056104Y0004064D01*
X0056064Y0003945D01*
X0056019Y0003828D01*
X0055971Y0003711D01*
X0055919Y0003597D01*
X0055864Y0003484D01*
X0055805Y0003373D01*
X0055743Y0003264D01*
X0055677Y0003157D01*
X0055608Y0003052D01*
X0055536Y0002949D01*
X0055461Y0002848D01*
X0055382Y0002750D01*
X0055300Y0002655D01*
X0055216Y0002562D01*
X0055128Y0002472D01*
X0055038Y0002384D01*
X0054945Y0002300D01*
X0054850Y0002218D01*
X0054752Y0002139D01*
X0054651Y0002064D01*
X0054548Y0001992D01*
X0054443Y0001923D01*
X0054336Y0001857D01*
X0054227Y0001795D01*
X0054116Y0001736D01*
X0054003Y0001681D01*
X0053889Y0001629D01*
X0053772Y0001581D01*
X0053655Y0001536D01*
X0053536Y0001496D01*
X0053416Y0001459D01*
X0053295Y0001426D01*
X0053173Y0001396D01*
X0053050Y0001371D01*
X0052926Y0001349D01*
X0052801Y0001332D01*
X0052676Y0001318D01*
X0052551Y0001308D01*
X0052426Y0001302D01*
X0052300Y0001300D01*
X0071800Y0020800D02*
X0071800Y0023300D01*
X0073300Y0028300D01*
X0071800Y0028300D02*
X0071800Y0030800D01*
X0072800Y0025800D02*
X0074300Y0025800D01*
X0075800Y0025800D02*
X0079800Y0025800D01*
X0081300Y0025800D02*
X0085300Y0025800D01*
X0086800Y0025800D02*
X0090800Y0025800D01*
X0091800Y0023300D02*
X0093300Y0028300D01*
X0091800Y0028300D02*
X0091800Y0030800D01*
X0086800Y0035800D02*
X0076800Y0035800D01*
X0091800Y0023300D02*
X0091800Y0020800D01*
X0086800Y0015800D02*
X0076800Y0015800D01*
X0102300Y0003300D02*
X0102387Y0003302D01*
X0102474Y0003308D01*
X0102561Y0003317D01*
X0102647Y0003330D01*
X0102733Y0003347D01*
X0102818Y0003368D01*
X0102901Y0003393D01*
X0102984Y0003421D01*
X0103065Y0003452D01*
X0103145Y0003487D01*
X0103223Y0003526D01*
X0103300Y0003568D01*
X0103375Y0003613D01*
X0103447Y0003662D01*
X0103518Y0003713D01*
X0103586Y0003768D01*
X0103651Y0003825D01*
X0103714Y0003886D01*
X0103775Y0003949D01*
X0103832Y0004014D01*
X0103887Y0004082D01*
X0103938Y0004153D01*
X0103987Y0004225D01*
X0104032Y0004300D01*
X0104074Y0004377D01*
X0104113Y0004455D01*
X0104148Y0004535D01*
X0104179Y0004616D01*
X0104207Y0004699D01*
X0104232Y0004782D01*
X0104253Y0004867D01*
X0104270Y0004953D01*
X0104283Y0005039D01*
X0104292Y0005126D01*
X0104298Y0005213D01*
X0104300Y0005300D01*
X0104300Y0046300D01*
X0106300Y0046300D02*
X0106300Y0005300D01*
X0106298Y0005174D01*
X0106292Y0005049D01*
X0106282Y0004924D01*
X0106268Y0004799D01*
X0106251Y0004674D01*
X0106229Y0004550D01*
X0106204Y0004427D01*
X0106174Y0004305D01*
X0106141Y0004184D01*
X0106104Y0004064D01*
X0106064Y0003945D01*
X0106019Y0003828D01*
X0105971Y0003711D01*
X0105919Y0003597D01*
X0105864Y0003484D01*
X0105805Y0003373D01*
X0105743Y0003264D01*
X0105677Y0003157D01*
X0105608Y0003052D01*
X0105536Y0002949D01*
X0105461Y0002848D01*
X0105382Y0002750D01*
X0105300Y0002655D01*
X0105216Y0002562D01*
X0105128Y0002472D01*
X0105038Y0002384D01*
X0104945Y0002300D01*
X0104850Y0002218D01*
X0104752Y0002139D01*
X0104651Y0002064D01*
X0104548Y0001992D01*
X0104443Y0001923D01*
X0104336Y0001857D01*
X0104227Y0001795D01*
X0104116Y0001736D01*
X0104003Y0001681D01*
X0103889Y0001629D01*
X0103772Y0001581D01*
X0103655Y0001536D01*
X0103536Y0001496D01*
X0103416Y0001459D01*
X0103295Y0001426D01*
X0103173Y0001396D01*
X0103050Y0001371D01*
X0102926Y0001349D01*
X0102801Y0001332D01*
X0102676Y0001318D01*
X0102551Y0001308D01*
X0102426Y0001302D01*
X0102300Y0001300D01*
X0104300Y0046300D02*
X0104298Y0046387D01*
X0104292Y0046474D01*
X0104283Y0046561D01*
X0104270Y0046647D01*
X0104253Y0046733D01*
X0104232Y0046818D01*
X0104207Y0046901D01*
X0104179Y0046984D01*
X0104148Y0047065D01*
X0104113Y0047145D01*
X0104074Y0047223D01*
X0104032Y0047300D01*
X0103987Y0047375D01*
X0103938Y0047447D01*
X0103887Y0047518D01*
X0103832Y0047586D01*
X0103775Y0047651D01*
X0103714Y0047714D01*
X0103651Y0047775D01*
X0103586Y0047832D01*
X0103518Y0047887D01*
X0103447Y0047938D01*
X0103375Y0047987D01*
X0103300Y0048032D01*
X0103223Y0048074D01*
X0103145Y0048113D01*
X0103065Y0048148D01*
X0102984Y0048179D01*
X0102901Y0048207D01*
X0102818Y0048232D01*
X0102733Y0048253D01*
X0102647Y0048270D01*
X0102561Y0048283D01*
X0102474Y0048292D01*
X0102387Y0048298D01*
X0102300Y0048300D01*
X0061300Y0048300D01*
X0061213Y0048298D01*
X0061126Y0048292D01*
X0061039Y0048283D01*
X0060953Y0048270D01*
X0060867Y0048253D01*
X0060782Y0048232D01*
X0060699Y0048207D01*
X0060616Y0048179D01*
X0060535Y0048148D01*
X0060455Y0048113D01*
X0060377Y0048074D01*
X0060300Y0048032D01*
X0060225Y0047987D01*
X0060153Y0047938D01*
X0060082Y0047887D01*
X0060014Y0047832D01*
X0059949Y0047775D01*
X0059886Y0047714D01*
X0059825Y0047651D01*
X0059768Y0047586D01*
X0059713Y0047518D01*
X0059662Y0047447D01*
X0059613Y0047375D01*
X0059568Y0047300D01*
X0059526Y0047223D01*
X0059487Y0047145D01*
X0059452Y0047065D01*
X0059421Y0046984D01*
X0059393Y0046901D01*
X0059368Y0046818D01*
X0059347Y0046733D01*
X0059330Y0046647D01*
X0059317Y0046561D01*
X0059308Y0046474D01*
X0059302Y0046387D01*
X0059300Y0046300D01*
X0057300Y0046300D02*
X0057302Y0046426D01*
X0057308Y0046551D01*
X0057318Y0046676D01*
X0057332Y0046801D01*
X0057349Y0046926D01*
X0057371Y0047050D01*
X0057396Y0047173D01*
X0057426Y0047295D01*
X0057459Y0047416D01*
X0057496Y0047536D01*
X0057536Y0047655D01*
X0057581Y0047772D01*
X0057629Y0047889D01*
X0057681Y0048003D01*
X0057736Y0048116D01*
X0057795Y0048227D01*
X0057857Y0048336D01*
X0057923Y0048443D01*
X0057992Y0048548D01*
X0058064Y0048651D01*
X0058139Y0048752D01*
X0058218Y0048850D01*
X0058300Y0048945D01*
X0058384Y0049038D01*
X0058472Y0049128D01*
X0058562Y0049216D01*
X0058655Y0049300D01*
X0058750Y0049382D01*
X0058848Y0049461D01*
X0058949Y0049536D01*
X0059052Y0049608D01*
X0059157Y0049677D01*
X0059264Y0049743D01*
X0059373Y0049805D01*
X0059484Y0049864D01*
X0059597Y0049919D01*
X0059711Y0049971D01*
X0059828Y0050019D01*
X0059945Y0050064D01*
X0060064Y0050104D01*
X0060184Y0050141D01*
X0060305Y0050174D01*
X0060427Y0050204D01*
X0060550Y0050229D01*
X0060674Y0050251D01*
X0060799Y0050268D01*
X0060924Y0050282D01*
X0061049Y0050292D01*
X0061174Y0050298D01*
X0061300Y0050300D01*
X0102300Y0050300D01*
X0102426Y0050298D01*
X0102551Y0050292D01*
X0102676Y0050282D01*
X0102801Y0050268D01*
X0102926Y0050251D01*
X0103050Y0050229D01*
X0103173Y0050204D01*
X0103295Y0050174D01*
X0103416Y0050141D01*
X0103536Y0050104D01*
X0103655Y0050064D01*
X0103772Y0050019D01*
X0103889Y0049971D01*
X0104003Y0049919D01*
X0104116Y0049864D01*
X0104227Y0049805D01*
X0104336Y0049743D01*
X0104443Y0049677D01*
X0104548Y0049608D01*
X0104651Y0049536D01*
X0104752Y0049461D01*
X0104850Y0049382D01*
X0104945Y0049300D01*
X0105038Y0049216D01*
X0105128Y0049128D01*
X0105216Y0049038D01*
X0105300Y0048945D01*
X0105382Y0048850D01*
X0105461Y0048752D01*
X0105536Y0048651D01*
X0105608Y0048548D01*
X0105677Y0048443D01*
X0105743Y0048336D01*
X0105805Y0048227D01*
X0105864Y0048116D01*
X0105919Y0048003D01*
X0105971Y0047889D01*
X0106019Y0047772D01*
X0106064Y0047655D01*
X0106104Y0047536D01*
X0106141Y0047416D01*
X0106174Y0047295D01*
X0106204Y0047173D01*
X0106229Y0047050D01*
X0106251Y0046926D01*
X0106268Y0046801D01*
X0106282Y0046676D01*
X0106292Y0046551D01*
X0106298Y0046426D01*
X0106300Y0046300D01*
X0088695Y0192595D02*
X0086560Y0192595D01*
X0085492Y0193662D01*
X0086560Y0195797D02*
X0085492Y0196865D01*
X0085492Y0197932D01*
X0086560Y0199000D01*
X0088695Y0199000D01*
X0089762Y0197932D01*
X0088695Y0195797D02*
X0086560Y0195797D01*
X0088695Y0195797D02*
X0089762Y0194730D01*
X0089762Y0193662D01*
X0088695Y0192595D01*
X0083317Y0194730D02*
X0083317Y0197932D01*
X0082249Y0199000D01*
X0079046Y0199000D01*
X0079046Y0194730D01*
X0076871Y0194730D02*
X0073669Y0194730D01*
X0072601Y0195797D01*
X0072601Y0197932D01*
X0073669Y0199000D01*
X0076871Y0199000D01*
X0076871Y0201135D02*
X0076871Y0194730D01*
X0070426Y0194730D02*
X0067223Y0194730D01*
X0066155Y0195797D01*
X0066155Y0197932D01*
X0067223Y0199000D01*
X0070426Y0199000D01*
X0070426Y0201135D02*
X0070426Y0194730D01*
X0063980Y0192595D02*
X0062913Y0192595D01*
X0062913Y0199000D01*
X0063980Y0199000D02*
X0061845Y0199000D01*
X0059683Y0197932D02*
X0059683Y0194730D01*
X0059683Y0197932D02*
X0058616Y0199000D01*
X0055413Y0199000D01*
X0055413Y0200068D02*
X0055413Y0194730D01*
X0055413Y0200068D02*
X0056481Y0201135D01*
X0057548Y0201135D01*
X0036168Y0197932D02*
X0036168Y0193662D01*
X0035101Y0192595D01*
X0032966Y0192595D01*
X0031898Y0193662D01*
X0031898Y0195797D02*
X0034033Y0195797D01*
X0031898Y0195797D02*
X0031898Y0197932D01*
X0032966Y0199000D01*
X0035101Y0199000D01*
X0036168Y0197932D01*
X0029723Y0199000D02*
X0029723Y0192595D01*
X0025452Y0199000D01*
X0025452Y0192595D01*
X0023277Y0192595D02*
X0020075Y0192595D01*
X0019007Y0193662D01*
X0019007Y0197932D01*
X0020075Y0199000D01*
X0023277Y0199000D01*
X0023277Y0192595D01*
D12*
X0121524Y0162926D02*
X0121524Y0122965D01*
X0136091Y0122965D01*
X0136091Y0113635D02*
X0127233Y0113635D01*
X0121524Y0107926D01*
X0121524Y0067965D01*
X0136091Y0067965D01*
X0147509Y0067965D02*
X0162076Y0067965D01*
X0162076Y0107926D01*
X0156367Y0113635D01*
X0147509Y0113635D01*
X0147509Y0122965D02*
X0162076Y0122965D01*
X0162076Y0162926D01*
X0156367Y0168635D01*
X0147509Y0168635D01*
X0136091Y0168635D02*
X0127233Y0168635D01*
X0121524Y0162926D01*
X0136288Y0164304D02*
X0135838Y0164164D01*
X0135392Y0164013D01*
X0134950Y0163851D01*
X0134511Y0163678D01*
X0134077Y0163495D01*
X0133647Y0163301D01*
X0133223Y0163097D01*
X0132803Y0162883D01*
X0132389Y0162658D01*
X0131980Y0162423D01*
X0131578Y0162179D01*
X0131181Y0161924D01*
X0130791Y0161661D01*
X0130407Y0161387D01*
X0130030Y0161104D01*
X0129660Y0160813D01*
X0129297Y0160512D01*
X0128942Y0160202D01*
X0128594Y0159884D01*
X0128255Y0159558D01*
X0127923Y0159223D01*
X0127599Y0158881D01*
X0127284Y0158530D01*
X0126978Y0158172D01*
X0126681Y0157807D01*
X0126392Y0157434D01*
X0126113Y0157055D01*
X0125843Y0156669D01*
X0125582Y0156276D01*
X0125331Y0155877D01*
X0125090Y0155472D01*
X0124859Y0155062D01*
X0124638Y0154645D01*
X0124428Y0154224D01*
X0124227Y0153798D01*
X0124037Y0153366D01*
X0123858Y0152931D01*
X0123689Y0152491D01*
X0123531Y0152047D01*
X0123384Y0151599D01*
X0123248Y0151148D01*
X0123123Y0150694D01*
X0123010Y0150236D01*
X0122907Y0149777D01*
X0122816Y0149314D01*
X0122735Y0148850D01*
X0122667Y0148384D01*
X0122609Y0147916D01*
X0122563Y0147447D01*
X0122529Y0146977D01*
X0122506Y0146507D01*
X0122494Y0146036D01*
X0122494Y0145564D01*
X0122506Y0145093D01*
X0122529Y0144623D01*
X0122563Y0144153D01*
X0122609Y0143684D01*
X0122667Y0143216D01*
X0122735Y0142750D01*
X0122816Y0142286D01*
X0122907Y0141823D01*
X0123010Y0141364D01*
X0123123Y0140906D01*
X0123248Y0140452D01*
X0123384Y0140001D01*
X0123531Y0139553D01*
X0123689Y0139109D01*
X0123858Y0138669D01*
X0124037Y0138234D01*
X0124227Y0137802D01*
X0124428Y0137376D01*
X0124638Y0136955D01*
X0124859Y0136538D01*
X0125090Y0136128D01*
X0125331Y0135723D01*
X0125582Y0135324D01*
X0125843Y0134931D01*
X0126113Y0134545D01*
X0126392Y0134166D01*
X0126681Y0133793D01*
X0126978Y0133428D01*
X0127284Y0133070D01*
X0127599Y0132719D01*
X0127923Y0132377D01*
X0128255Y0132042D01*
X0128594Y0131716D01*
X0128942Y0131398D01*
X0129297Y0131088D01*
X0129660Y0130787D01*
X0130030Y0130496D01*
X0130407Y0130213D01*
X0130791Y0129939D01*
X0131181Y0129676D01*
X0131578Y0129421D01*
X0131980Y0129177D01*
X0132389Y0128942D01*
X0132803Y0128717D01*
X0133223Y0128503D01*
X0133647Y0128299D01*
X0134077Y0128105D01*
X0134511Y0127922D01*
X0134950Y0127749D01*
X0135392Y0127587D01*
X0135838Y0127436D01*
X0136288Y0127296D01*
X0147312Y0127296D02*
X0147762Y0127436D01*
X0148208Y0127587D01*
X0148650Y0127749D01*
X0149089Y0127922D01*
X0149523Y0128105D01*
X0149953Y0128299D01*
X0150377Y0128503D01*
X0150797Y0128717D01*
X0151211Y0128942D01*
X0151620Y0129177D01*
X0152022Y0129421D01*
X0152419Y0129676D01*
X0152809Y0129939D01*
X0153193Y0130213D01*
X0153570Y0130496D01*
X0153940Y0130787D01*
X0154303Y0131088D01*
X0154658Y0131398D01*
X0155006Y0131716D01*
X0155345Y0132042D01*
X0155677Y0132377D01*
X0156001Y0132719D01*
X0156316Y0133070D01*
X0156622Y0133428D01*
X0156919Y0133793D01*
X0157208Y0134166D01*
X0157487Y0134545D01*
X0157757Y0134931D01*
X0158018Y0135324D01*
X0158269Y0135723D01*
X0158510Y0136128D01*
X0158741Y0136538D01*
X0158962Y0136955D01*
X0159172Y0137376D01*
X0159373Y0137802D01*
X0159563Y0138234D01*
X0159742Y0138669D01*
X0159911Y0139109D01*
X0160069Y0139553D01*
X0160216Y0140001D01*
X0160352Y0140452D01*
X0160477Y0140906D01*
X0160590Y0141364D01*
X0160693Y0141823D01*
X0160784Y0142286D01*
X0160865Y0142750D01*
X0160933Y0143216D01*
X0160991Y0143684D01*
X0161037Y0144153D01*
X0161071Y0144623D01*
X0161094Y0145093D01*
X0161106Y0145564D01*
X0161106Y0146036D01*
X0161094Y0146507D01*
X0161071Y0146977D01*
X0161037Y0147447D01*
X0160991Y0147916D01*
X0160933Y0148384D01*
X0160865Y0148850D01*
X0160784Y0149314D01*
X0160693Y0149777D01*
X0160590Y0150236D01*
X0160477Y0150694D01*
X0160352Y0151148D01*
X0160216Y0151599D01*
X0160069Y0152047D01*
X0159911Y0152491D01*
X0159742Y0152931D01*
X0159563Y0153366D01*
X0159373Y0153798D01*
X0159172Y0154224D01*
X0158962Y0154645D01*
X0158741Y0155062D01*
X0158510Y0155472D01*
X0158269Y0155877D01*
X0158018Y0156276D01*
X0157757Y0156669D01*
X0157487Y0157055D01*
X0157208Y0157434D01*
X0156919Y0157807D01*
X0156622Y0158172D01*
X0156316Y0158530D01*
X0156001Y0158881D01*
X0155677Y0159223D01*
X0155345Y0159558D01*
X0155006Y0159884D01*
X0154658Y0160202D01*
X0154303Y0160512D01*
X0153940Y0160813D01*
X0153570Y0161104D01*
X0153193Y0161387D01*
X0152809Y0161661D01*
X0152419Y0161924D01*
X0152022Y0162179D01*
X0151620Y0162423D01*
X0151211Y0162658D01*
X0150797Y0162883D01*
X0150377Y0163097D01*
X0149953Y0163301D01*
X0149523Y0163495D01*
X0149089Y0163678D01*
X0148650Y0163851D01*
X0148208Y0164013D01*
X0147762Y0164164D01*
X0147312Y0164304D01*
X0164477Y0155800D02*
X0164482Y0156225D01*
X0164498Y0156650D01*
X0164524Y0157074D01*
X0164560Y0157498D01*
X0164607Y0157921D01*
X0164664Y0158342D01*
X0164732Y0158762D01*
X0164810Y0159180D01*
X0164898Y0159595D01*
X0164996Y0160009D01*
X0165105Y0160420D01*
X0165223Y0160829D01*
X0165351Y0161234D01*
X0165490Y0161636D01*
X0165638Y0162034D01*
X0165796Y0162429D01*
X0165963Y0162820D01*
X0166140Y0163207D01*
X0166327Y0163589D01*
X0166522Y0163966D01*
X0166727Y0164338D01*
X0166942Y0164706D01*
X0167165Y0165068D01*
X0167396Y0165424D01*
X0167637Y0165775D01*
X0167886Y0166119D01*
X0168143Y0166458D01*
X0168409Y0166790D01*
X0168683Y0167115D01*
X0168965Y0167433D01*
X0169254Y0167745D01*
X0169551Y0168049D01*
X0169855Y0168346D01*
X0170167Y0168635D01*
X0170485Y0168917D01*
X0170810Y0169191D01*
X0171142Y0169457D01*
X0171481Y0169714D01*
X0171825Y0169963D01*
X0172176Y0170204D01*
X0172532Y0170435D01*
X0172894Y0170658D01*
X0173262Y0170873D01*
X0173634Y0171078D01*
X0174011Y0171273D01*
X0174393Y0171460D01*
X0174780Y0171637D01*
X0175171Y0171804D01*
X0175566Y0171962D01*
X0175964Y0172110D01*
X0176366Y0172249D01*
X0176771Y0172377D01*
X0177180Y0172495D01*
X0177591Y0172604D01*
X0178005Y0172702D01*
X0178420Y0172790D01*
X0178838Y0172868D01*
X0179258Y0172936D01*
X0179679Y0172993D01*
X0180102Y0173040D01*
X0180526Y0173076D01*
X0180950Y0173102D01*
X0181375Y0173118D01*
X0181800Y0173123D01*
X0182225Y0173118D01*
X0182650Y0173102D01*
X0183074Y0173076D01*
X0183498Y0173040D01*
X0183921Y0172993D01*
X0184342Y0172936D01*
X0184762Y0172868D01*
X0185180Y0172790D01*
X0185595Y0172702D01*
X0186009Y0172604D01*
X0186420Y0172495D01*
X0186829Y0172377D01*
X0187234Y0172249D01*
X0187636Y0172110D01*
X0188034Y0171962D01*
X0188429Y0171804D01*
X0188820Y0171637D01*
X0189207Y0171460D01*
X0189589Y0171273D01*
X0189966Y0171078D01*
X0190338Y0170873D01*
X0190706Y0170658D01*
X0191068Y0170435D01*
X0191424Y0170204D01*
X0191775Y0169963D01*
X0192119Y0169714D01*
X0192458Y0169457D01*
X0192790Y0169191D01*
X0193115Y0168917D01*
X0193433Y0168635D01*
X0193745Y0168346D01*
X0194049Y0168049D01*
X0194346Y0167745D01*
X0194635Y0167433D01*
X0194917Y0167115D01*
X0195191Y0166790D01*
X0195457Y0166458D01*
X0195714Y0166119D01*
X0195963Y0165775D01*
X0196204Y0165424D01*
X0196435Y0165068D01*
X0196658Y0164706D01*
X0196873Y0164338D01*
X0197078Y0163966D01*
X0197273Y0163589D01*
X0197460Y0163207D01*
X0197637Y0162820D01*
X0197804Y0162429D01*
X0197962Y0162034D01*
X0198110Y0161636D01*
X0198249Y0161234D01*
X0198377Y0160829D01*
X0198495Y0160420D01*
X0198604Y0160009D01*
X0198702Y0159595D01*
X0198790Y0159180D01*
X0198868Y0158762D01*
X0198936Y0158342D01*
X0198993Y0157921D01*
X0199040Y0157498D01*
X0199076Y0157074D01*
X0199102Y0156650D01*
X0199118Y0156225D01*
X0199123Y0155800D01*
X0199118Y0155375D01*
X0199102Y0154950D01*
X0199076Y0154526D01*
X0199040Y0154102D01*
X0198993Y0153679D01*
X0198936Y0153258D01*
X0198868Y0152838D01*
X0198790Y0152420D01*
X0198702Y0152005D01*
X0198604Y0151591D01*
X0198495Y0151180D01*
X0198377Y0150771D01*
X0198249Y0150366D01*
X0198110Y0149964D01*
X0197962Y0149566D01*
X0197804Y0149171D01*
X0197637Y0148780D01*
X0197460Y0148393D01*
X0197273Y0148011D01*
X0197078Y0147634D01*
X0196873Y0147262D01*
X0196658Y0146894D01*
X0196435Y0146532D01*
X0196204Y0146176D01*
X0195963Y0145825D01*
X0195714Y0145481D01*
X0195457Y0145142D01*
X0195191Y0144810D01*
X0194917Y0144485D01*
X0194635Y0144167D01*
X0194346Y0143855D01*
X0194049Y0143551D01*
X0193745Y0143254D01*
X0193433Y0142965D01*
X0193115Y0142683D01*
X0192790Y0142409D01*
X0192458Y0142143D01*
X0192119Y0141886D01*
X0191775Y0141637D01*
X0191424Y0141396D01*
X0191068Y0141165D01*
X0190706Y0140942D01*
X0190338Y0140727D01*
X0189966Y0140522D01*
X0189589Y0140327D01*
X0189207Y0140140D01*
X0188820Y0139963D01*
X0188429Y0139796D01*
X0188034Y0139638D01*
X0187636Y0139490D01*
X0187234Y0139351D01*
X0186829Y0139223D01*
X0186420Y0139105D01*
X0186009Y0138996D01*
X0185595Y0138898D01*
X0185180Y0138810D01*
X0184762Y0138732D01*
X0184342Y0138664D01*
X0183921Y0138607D01*
X0183498Y0138560D01*
X0183074Y0138524D01*
X0182650Y0138498D01*
X0182225Y0138482D01*
X0181800Y0138477D01*
X0181375Y0138482D01*
X0180950Y0138498D01*
X0180526Y0138524D01*
X0180102Y0138560D01*
X0179679Y0138607D01*
X0179258Y0138664D01*
X0178838Y0138732D01*
X0178420Y0138810D01*
X0178005Y0138898D01*
X0177591Y0138996D01*
X0177180Y0139105D01*
X0176771Y0139223D01*
X0176366Y0139351D01*
X0175964Y0139490D01*
X0175566Y0139638D01*
X0175171Y0139796D01*
X0174780Y0139963D01*
X0174393Y0140140D01*
X0174011Y0140327D01*
X0173634Y0140522D01*
X0173262Y0140727D01*
X0172894Y0140942D01*
X0172532Y0141165D01*
X0172176Y0141396D01*
X0171825Y0141637D01*
X0171481Y0141886D01*
X0171142Y0142143D01*
X0170810Y0142409D01*
X0170485Y0142683D01*
X0170167Y0142965D01*
X0169855Y0143254D01*
X0169551Y0143551D01*
X0169254Y0143855D01*
X0168965Y0144167D01*
X0168683Y0144485D01*
X0168409Y0144810D01*
X0168143Y0145142D01*
X0167886Y0145481D01*
X0167637Y0145825D01*
X0167396Y0146176D01*
X0167165Y0146532D01*
X0166942Y0146894D01*
X0166727Y0147262D01*
X0166522Y0147634D01*
X0166327Y0148011D01*
X0166140Y0148393D01*
X0165963Y0148780D01*
X0165796Y0149171D01*
X0165638Y0149566D01*
X0165490Y0149964D01*
X0165351Y0150366D01*
X0165223Y0150771D01*
X0165105Y0151180D01*
X0164996Y0151591D01*
X0164898Y0152005D01*
X0164810Y0152420D01*
X0164732Y0152838D01*
X0164664Y0153258D01*
X0164607Y0153679D01*
X0164560Y0154102D01*
X0164524Y0154526D01*
X0164498Y0154950D01*
X0164482Y0155375D01*
X0164477Y0155800D01*
X0226524Y0167926D02*
X0226524Y0127965D01*
X0241091Y0127965D01*
X0241091Y0118635D02*
X0232233Y0118635D01*
X0226524Y0112926D01*
X0226524Y0072965D01*
X0241091Y0072965D01*
X0252509Y0072965D02*
X0267076Y0072965D01*
X0267076Y0112926D01*
X0261367Y0118635D01*
X0252509Y0118635D01*
X0252509Y0127965D02*
X0267076Y0127965D01*
X0267076Y0167926D01*
X0261367Y0173635D01*
X0252509Y0173635D01*
X0241091Y0173635D02*
X0232233Y0173635D01*
X0226524Y0167926D01*
X0241288Y0169304D02*
X0240838Y0169164D01*
X0240392Y0169013D01*
X0239950Y0168851D01*
X0239511Y0168678D01*
X0239077Y0168495D01*
X0238647Y0168301D01*
X0238223Y0168097D01*
X0237803Y0167883D01*
X0237389Y0167658D01*
X0236980Y0167423D01*
X0236578Y0167179D01*
X0236181Y0166924D01*
X0235791Y0166661D01*
X0235407Y0166387D01*
X0235030Y0166104D01*
X0234660Y0165813D01*
X0234297Y0165512D01*
X0233942Y0165202D01*
X0233594Y0164884D01*
X0233255Y0164558D01*
X0232923Y0164223D01*
X0232599Y0163881D01*
X0232284Y0163530D01*
X0231978Y0163172D01*
X0231681Y0162807D01*
X0231392Y0162434D01*
X0231113Y0162055D01*
X0230843Y0161669D01*
X0230582Y0161276D01*
X0230331Y0160877D01*
X0230090Y0160472D01*
X0229859Y0160062D01*
X0229638Y0159645D01*
X0229428Y0159224D01*
X0229227Y0158798D01*
X0229037Y0158366D01*
X0228858Y0157931D01*
X0228689Y0157491D01*
X0228531Y0157047D01*
X0228384Y0156599D01*
X0228248Y0156148D01*
X0228123Y0155694D01*
X0228010Y0155236D01*
X0227907Y0154777D01*
X0227816Y0154314D01*
X0227735Y0153850D01*
X0227667Y0153384D01*
X0227609Y0152916D01*
X0227563Y0152447D01*
X0227529Y0151977D01*
X0227506Y0151507D01*
X0227494Y0151036D01*
X0227494Y0150564D01*
X0227506Y0150093D01*
X0227529Y0149623D01*
X0227563Y0149153D01*
X0227609Y0148684D01*
X0227667Y0148216D01*
X0227735Y0147750D01*
X0227816Y0147286D01*
X0227907Y0146823D01*
X0228010Y0146364D01*
X0228123Y0145906D01*
X0228248Y0145452D01*
X0228384Y0145001D01*
X0228531Y0144553D01*
X0228689Y0144109D01*
X0228858Y0143669D01*
X0229037Y0143234D01*
X0229227Y0142802D01*
X0229428Y0142376D01*
X0229638Y0141955D01*
X0229859Y0141538D01*
X0230090Y0141128D01*
X0230331Y0140723D01*
X0230582Y0140324D01*
X0230843Y0139931D01*
X0231113Y0139545D01*
X0231392Y0139166D01*
X0231681Y0138793D01*
X0231978Y0138428D01*
X0232284Y0138070D01*
X0232599Y0137719D01*
X0232923Y0137377D01*
X0233255Y0137042D01*
X0233594Y0136716D01*
X0233942Y0136398D01*
X0234297Y0136088D01*
X0234660Y0135787D01*
X0235030Y0135496D01*
X0235407Y0135213D01*
X0235791Y0134939D01*
X0236181Y0134676D01*
X0236578Y0134421D01*
X0236980Y0134177D01*
X0237389Y0133942D01*
X0237803Y0133717D01*
X0238223Y0133503D01*
X0238647Y0133299D01*
X0239077Y0133105D01*
X0239511Y0132922D01*
X0239950Y0132749D01*
X0240392Y0132587D01*
X0240838Y0132436D01*
X0241288Y0132296D01*
X0252312Y0132296D02*
X0252762Y0132436D01*
X0253208Y0132587D01*
X0253650Y0132749D01*
X0254089Y0132922D01*
X0254523Y0133105D01*
X0254953Y0133299D01*
X0255377Y0133503D01*
X0255797Y0133717D01*
X0256211Y0133942D01*
X0256620Y0134177D01*
X0257022Y0134421D01*
X0257419Y0134676D01*
X0257809Y0134939D01*
X0258193Y0135213D01*
X0258570Y0135496D01*
X0258940Y0135787D01*
X0259303Y0136088D01*
X0259658Y0136398D01*
X0260006Y0136716D01*
X0260345Y0137042D01*
X0260677Y0137377D01*
X0261001Y0137719D01*
X0261316Y0138070D01*
X0261622Y0138428D01*
X0261919Y0138793D01*
X0262208Y0139166D01*
X0262487Y0139545D01*
X0262757Y0139931D01*
X0263018Y0140324D01*
X0263269Y0140723D01*
X0263510Y0141128D01*
X0263741Y0141538D01*
X0263962Y0141955D01*
X0264172Y0142376D01*
X0264373Y0142802D01*
X0264563Y0143234D01*
X0264742Y0143669D01*
X0264911Y0144109D01*
X0265069Y0144553D01*
X0265216Y0145001D01*
X0265352Y0145452D01*
X0265477Y0145906D01*
X0265590Y0146364D01*
X0265693Y0146823D01*
X0265784Y0147286D01*
X0265865Y0147750D01*
X0265933Y0148216D01*
X0265991Y0148684D01*
X0266037Y0149153D01*
X0266071Y0149623D01*
X0266094Y0150093D01*
X0266106Y0150564D01*
X0266106Y0151036D01*
X0266094Y0151507D01*
X0266071Y0151977D01*
X0266037Y0152447D01*
X0265991Y0152916D01*
X0265933Y0153384D01*
X0265865Y0153850D01*
X0265784Y0154314D01*
X0265693Y0154777D01*
X0265590Y0155236D01*
X0265477Y0155694D01*
X0265352Y0156148D01*
X0265216Y0156599D01*
X0265069Y0157047D01*
X0264911Y0157491D01*
X0264742Y0157931D01*
X0264563Y0158366D01*
X0264373Y0158798D01*
X0264172Y0159224D01*
X0263962Y0159645D01*
X0263741Y0160062D01*
X0263510Y0160472D01*
X0263269Y0160877D01*
X0263018Y0161276D01*
X0262757Y0161669D01*
X0262487Y0162055D01*
X0262208Y0162434D01*
X0261919Y0162807D01*
X0261622Y0163172D01*
X0261316Y0163530D01*
X0261001Y0163881D01*
X0260677Y0164223D01*
X0260345Y0164558D01*
X0260006Y0164884D01*
X0259658Y0165202D01*
X0259303Y0165512D01*
X0258940Y0165813D01*
X0258570Y0166104D01*
X0258193Y0166387D01*
X0257809Y0166661D01*
X0257419Y0166924D01*
X0257022Y0167179D01*
X0256620Y0167423D01*
X0256211Y0167658D01*
X0255797Y0167883D01*
X0255377Y0168097D01*
X0254953Y0168301D01*
X0254523Y0168495D01*
X0254089Y0168678D01*
X0253650Y0168851D01*
X0253208Y0169013D01*
X0252762Y0169164D01*
X0252312Y0169304D01*
X0164477Y0100800D02*
X0164482Y0101225D01*
X0164498Y0101650D01*
X0164524Y0102074D01*
X0164560Y0102498D01*
X0164607Y0102921D01*
X0164664Y0103342D01*
X0164732Y0103762D01*
X0164810Y0104180D01*
X0164898Y0104595D01*
X0164996Y0105009D01*
X0165105Y0105420D01*
X0165223Y0105829D01*
X0165351Y0106234D01*
X0165490Y0106636D01*
X0165638Y0107034D01*
X0165796Y0107429D01*
X0165963Y0107820D01*
X0166140Y0108207D01*
X0166327Y0108589D01*
X0166522Y0108966D01*
X0166727Y0109338D01*
X0166942Y0109706D01*
X0167165Y0110068D01*
X0167396Y0110424D01*
X0167637Y0110775D01*
X0167886Y0111119D01*
X0168143Y0111458D01*
X0168409Y0111790D01*
X0168683Y0112115D01*
X0168965Y0112433D01*
X0169254Y0112745D01*
X0169551Y0113049D01*
X0169855Y0113346D01*
X0170167Y0113635D01*
X0170485Y0113917D01*
X0170810Y0114191D01*
X0171142Y0114457D01*
X0171481Y0114714D01*
X0171825Y0114963D01*
X0172176Y0115204D01*
X0172532Y0115435D01*
X0172894Y0115658D01*
X0173262Y0115873D01*
X0173634Y0116078D01*
X0174011Y0116273D01*
X0174393Y0116460D01*
X0174780Y0116637D01*
X0175171Y0116804D01*
X0175566Y0116962D01*
X0175964Y0117110D01*
X0176366Y0117249D01*
X0176771Y0117377D01*
X0177180Y0117495D01*
X0177591Y0117604D01*
X0178005Y0117702D01*
X0178420Y0117790D01*
X0178838Y0117868D01*
X0179258Y0117936D01*
X0179679Y0117993D01*
X0180102Y0118040D01*
X0180526Y0118076D01*
X0180950Y0118102D01*
X0181375Y0118118D01*
X0181800Y0118123D01*
X0182225Y0118118D01*
X0182650Y0118102D01*
X0183074Y0118076D01*
X0183498Y0118040D01*
X0183921Y0117993D01*
X0184342Y0117936D01*
X0184762Y0117868D01*
X0185180Y0117790D01*
X0185595Y0117702D01*
X0186009Y0117604D01*
X0186420Y0117495D01*
X0186829Y0117377D01*
X0187234Y0117249D01*
X0187636Y0117110D01*
X0188034Y0116962D01*
X0188429Y0116804D01*
X0188820Y0116637D01*
X0189207Y0116460D01*
X0189589Y0116273D01*
X0189966Y0116078D01*
X0190338Y0115873D01*
X0190706Y0115658D01*
X0191068Y0115435D01*
X0191424Y0115204D01*
X0191775Y0114963D01*
X0192119Y0114714D01*
X0192458Y0114457D01*
X0192790Y0114191D01*
X0193115Y0113917D01*
X0193433Y0113635D01*
X0193745Y0113346D01*
X0194049Y0113049D01*
X0194346Y0112745D01*
X0194635Y0112433D01*
X0194917Y0112115D01*
X0195191Y0111790D01*
X0195457Y0111458D01*
X0195714Y0111119D01*
X0195963Y0110775D01*
X0196204Y0110424D01*
X0196435Y0110068D01*
X0196658Y0109706D01*
X0196873Y0109338D01*
X0197078Y0108966D01*
X0197273Y0108589D01*
X0197460Y0108207D01*
X0197637Y0107820D01*
X0197804Y0107429D01*
X0197962Y0107034D01*
X0198110Y0106636D01*
X0198249Y0106234D01*
X0198377Y0105829D01*
X0198495Y0105420D01*
X0198604Y0105009D01*
X0198702Y0104595D01*
X0198790Y0104180D01*
X0198868Y0103762D01*
X0198936Y0103342D01*
X0198993Y0102921D01*
X0199040Y0102498D01*
X0199076Y0102074D01*
X0199102Y0101650D01*
X0199118Y0101225D01*
X0199123Y0100800D01*
X0199118Y0100375D01*
X0199102Y0099950D01*
X0199076Y0099526D01*
X0199040Y0099102D01*
X0198993Y0098679D01*
X0198936Y0098258D01*
X0198868Y0097838D01*
X0198790Y0097420D01*
X0198702Y0097005D01*
X0198604Y0096591D01*
X0198495Y0096180D01*
X0198377Y0095771D01*
X0198249Y0095366D01*
X0198110Y0094964D01*
X0197962Y0094566D01*
X0197804Y0094171D01*
X0197637Y0093780D01*
X0197460Y0093393D01*
X0197273Y0093011D01*
X0197078Y0092634D01*
X0196873Y0092262D01*
X0196658Y0091894D01*
X0196435Y0091532D01*
X0196204Y0091176D01*
X0195963Y0090825D01*
X0195714Y0090481D01*
X0195457Y0090142D01*
X0195191Y0089810D01*
X0194917Y0089485D01*
X0194635Y0089167D01*
X0194346Y0088855D01*
X0194049Y0088551D01*
X0193745Y0088254D01*
X0193433Y0087965D01*
X0193115Y0087683D01*
X0192790Y0087409D01*
X0192458Y0087143D01*
X0192119Y0086886D01*
X0191775Y0086637D01*
X0191424Y0086396D01*
X0191068Y0086165D01*
X0190706Y0085942D01*
X0190338Y0085727D01*
X0189966Y0085522D01*
X0189589Y0085327D01*
X0189207Y0085140D01*
X0188820Y0084963D01*
X0188429Y0084796D01*
X0188034Y0084638D01*
X0187636Y0084490D01*
X0187234Y0084351D01*
X0186829Y0084223D01*
X0186420Y0084105D01*
X0186009Y0083996D01*
X0185595Y0083898D01*
X0185180Y0083810D01*
X0184762Y0083732D01*
X0184342Y0083664D01*
X0183921Y0083607D01*
X0183498Y0083560D01*
X0183074Y0083524D01*
X0182650Y0083498D01*
X0182225Y0083482D01*
X0181800Y0083477D01*
X0181375Y0083482D01*
X0180950Y0083498D01*
X0180526Y0083524D01*
X0180102Y0083560D01*
X0179679Y0083607D01*
X0179258Y0083664D01*
X0178838Y0083732D01*
X0178420Y0083810D01*
X0178005Y0083898D01*
X0177591Y0083996D01*
X0177180Y0084105D01*
X0176771Y0084223D01*
X0176366Y0084351D01*
X0175964Y0084490D01*
X0175566Y0084638D01*
X0175171Y0084796D01*
X0174780Y0084963D01*
X0174393Y0085140D01*
X0174011Y0085327D01*
X0173634Y0085522D01*
X0173262Y0085727D01*
X0172894Y0085942D01*
X0172532Y0086165D01*
X0172176Y0086396D01*
X0171825Y0086637D01*
X0171481Y0086886D01*
X0171142Y0087143D01*
X0170810Y0087409D01*
X0170485Y0087683D01*
X0170167Y0087965D01*
X0169855Y0088254D01*
X0169551Y0088551D01*
X0169254Y0088855D01*
X0168965Y0089167D01*
X0168683Y0089485D01*
X0168409Y0089810D01*
X0168143Y0090142D01*
X0167886Y0090481D01*
X0167637Y0090825D01*
X0167396Y0091176D01*
X0167165Y0091532D01*
X0166942Y0091894D01*
X0166727Y0092262D01*
X0166522Y0092634D01*
X0166327Y0093011D01*
X0166140Y0093393D01*
X0165963Y0093780D01*
X0165796Y0094171D01*
X0165638Y0094566D01*
X0165490Y0094964D01*
X0165351Y0095366D01*
X0165223Y0095771D01*
X0165105Y0096180D01*
X0164996Y0096591D01*
X0164898Y0097005D01*
X0164810Y0097420D01*
X0164732Y0097838D01*
X0164664Y0098258D01*
X0164607Y0098679D01*
X0164560Y0099102D01*
X0164524Y0099526D01*
X0164498Y0099950D01*
X0164482Y0100375D01*
X0164477Y0100800D01*
X0147312Y0109304D02*
X0147762Y0109164D01*
X0148208Y0109013D01*
X0148650Y0108851D01*
X0149089Y0108678D01*
X0149523Y0108495D01*
X0149953Y0108301D01*
X0150377Y0108097D01*
X0150797Y0107883D01*
X0151211Y0107658D01*
X0151620Y0107423D01*
X0152022Y0107179D01*
X0152419Y0106924D01*
X0152809Y0106661D01*
X0153193Y0106387D01*
X0153570Y0106104D01*
X0153940Y0105813D01*
X0154303Y0105512D01*
X0154658Y0105202D01*
X0155006Y0104884D01*
X0155345Y0104558D01*
X0155677Y0104223D01*
X0156001Y0103881D01*
X0156316Y0103530D01*
X0156622Y0103172D01*
X0156919Y0102807D01*
X0157208Y0102434D01*
X0157487Y0102055D01*
X0157757Y0101669D01*
X0158018Y0101276D01*
X0158269Y0100877D01*
X0158510Y0100472D01*
X0158741Y0100062D01*
X0158962Y0099645D01*
X0159172Y0099224D01*
X0159373Y0098798D01*
X0159563Y0098366D01*
X0159742Y0097931D01*
X0159911Y0097491D01*
X0160069Y0097047D01*
X0160216Y0096599D01*
X0160352Y0096148D01*
X0160477Y0095694D01*
X0160590Y0095236D01*
X0160693Y0094777D01*
X0160784Y0094314D01*
X0160865Y0093850D01*
X0160933Y0093384D01*
X0160991Y0092916D01*
X0161037Y0092447D01*
X0161071Y0091977D01*
X0161094Y0091507D01*
X0161106Y0091036D01*
X0161106Y0090564D01*
X0161094Y0090093D01*
X0161071Y0089623D01*
X0161037Y0089153D01*
X0160991Y0088684D01*
X0160933Y0088216D01*
X0160865Y0087750D01*
X0160784Y0087286D01*
X0160693Y0086823D01*
X0160590Y0086364D01*
X0160477Y0085906D01*
X0160352Y0085452D01*
X0160216Y0085001D01*
X0160069Y0084553D01*
X0159911Y0084109D01*
X0159742Y0083669D01*
X0159563Y0083234D01*
X0159373Y0082802D01*
X0159172Y0082376D01*
X0158962Y0081955D01*
X0158741Y0081538D01*
X0158510Y0081128D01*
X0158269Y0080723D01*
X0158018Y0080324D01*
X0157757Y0079931D01*
X0157487Y0079545D01*
X0157208Y0079166D01*
X0156919Y0078793D01*
X0156622Y0078428D01*
X0156316Y0078070D01*
X0156001Y0077719D01*
X0155677Y0077377D01*
X0155345Y0077042D01*
X0155006Y0076716D01*
X0154658Y0076398D01*
X0154303Y0076088D01*
X0153940Y0075787D01*
X0153570Y0075496D01*
X0153193Y0075213D01*
X0152809Y0074939D01*
X0152419Y0074676D01*
X0152022Y0074421D01*
X0151620Y0074177D01*
X0151211Y0073942D01*
X0150797Y0073717D01*
X0150377Y0073503D01*
X0149953Y0073299D01*
X0149523Y0073105D01*
X0149089Y0072922D01*
X0148650Y0072749D01*
X0148208Y0072587D01*
X0147762Y0072436D01*
X0147312Y0072296D01*
X0136288Y0072296D02*
X0135838Y0072436D01*
X0135392Y0072587D01*
X0134950Y0072749D01*
X0134511Y0072922D01*
X0134077Y0073105D01*
X0133647Y0073299D01*
X0133223Y0073503D01*
X0132803Y0073717D01*
X0132389Y0073942D01*
X0131980Y0074177D01*
X0131578Y0074421D01*
X0131181Y0074676D01*
X0130791Y0074939D01*
X0130407Y0075213D01*
X0130030Y0075496D01*
X0129660Y0075787D01*
X0129297Y0076088D01*
X0128942Y0076398D01*
X0128594Y0076716D01*
X0128255Y0077042D01*
X0127923Y0077377D01*
X0127599Y0077719D01*
X0127284Y0078070D01*
X0126978Y0078428D01*
X0126681Y0078793D01*
X0126392Y0079166D01*
X0126113Y0079545D01*
X0125843Y0079931D01*
X0125582Y0080324D01*
X0125331Y0080723D01*
X0125090Y0081128D01*
X0124859Y0081538D01*
X0124638Y0081955D01*
X0124428Y0082376D01*
X0124227Y0082802D01*
X0124037Y0083234D01*
X0123858Y0083669D01*
X0123689Y0084109D01*
X0123531Y0084553D01*
X0123384Y0085001D01*
X0123248Y0085452D01*
X0123123Y0085906D01*
X0123010Y0086364D01*
X0122907Y0086823D01*
X0122816Y0087286D01*
X0122735Y0087750D01*
X0122667Y0088216D01*
X0122609Y0088684D01*
X0122563Y0089153D01*
X0122529Y0089623D01*
X0122506Y0090093D01*
X0122494Y0090564D01*
X0122494Y0091036D01*
X0122506Y0091507D01*
X0122529Y0091977D01*
X0122563Y0092447D01*
X0122609Y0092916D01*
X0122667Y0093384D01*
X0122735Y0093850D01*
X0122816Y0094314D01*
X0122907Y0094777D01*
X0123010Y0095236D01*
X0123123Y0095694D01*
X0123248Y0096148D01*
X0123384Y0096599D01*
X0123531Y0097047D01*
X0123689Y0097491D01*
X0123858Y0097931D01*
X0124037Y0098366D01*
X0124227Y0098798D01*
X0124428Y0099224D01*
X0124638Y0099645D01*
X0124859Y0100062D01*
X0125090Y0100472D01*
X0125331Y0100877D01*
X0125582Y0101276D01*
X0125843Y0101669D01*
X0126113Y0102055D01*
X0126392Y0102434D01*
X0126681Y0102807D01*
X0126978Y0103172D01*
X0127284Y0103530D01*
X0127599Y0103881D01*
X0127923Y0104223D01*
X0128255Y0104558D01*
X0128594Y0104884D01*
X0128942Y0105202D01*
X0129297Y0105512D01*
X0129660Y0105813D01*
X0130030Y0106104D01*
X0130407Y0106387D01*
X0130791Y0106661D01*
X0131181Y0106924D01*
X0131578Y0107179D01*
X0131980Y0107423D01*
X0132389Y0107658D01*
X0132803Y0107883D01*
X0133223Y0108097D01*
X0133647Y0108301D01*
X0134077Y0108495D01*
X0134511Y0108678D01*
X0134950Y0108851D01*
X0135392Y0109013D01*
X0135838Y0109164D01*
X0136288Y0109304D01*
X0241288Y0114304D02*
X0240838Y0114164D01*
X0240392Y0114013D01*
X0239950Y0113851D01*
X0239511Y0113678D01*
X0239077Y0113495D01*
X0238647Y0113301D01*
X0238223Y0113097D01*
X0237803Y0112883D01*
X0237389Y0112658D01*
X0236980Y0112423D01*
X0236578Y0112179D01*
X0236181Y0111924D01*
X0235791Y0111661D01*
X0235407Y0111387D01*
X0235030Y0111104D01*
X0234660Y0110813D01*
X0234297Y0110512D01*
X0233942Y0110202D01*
X0233594Y0109884D01*
X0233255Y0109558D01*
X0232923Y0109223D01*
X0232599Y0108881D01*
X0232284Y0108530D01*
X0231978Y0108172D01*
X0231681Y0107807D01*
X0231392Y0107434D01*
X0231113Y0107055D01*
X0230843Y0106669D01*
X0230582Y0106276D01*
X0230331Y0105877D01*
X0230090Y0105472D01*
X0229859Y0105062D01*
X0229638Y0104645D01*
X0229428Y0104224D01*
X0229227Y0103798D01*
X0229037Y0103366D01*
X0228858Y0102931D01*
X0228689Y0102491D01*
X0228531Y0102047D01*
X0228384Y0101599D01*
X0228248Y0101148D01*
X0228123Y0100694D01*
X0228010Y0100236D01*
X0227907Y0099777D01*
X0227816Y0099314D01*
X0227735Y0098850D01*
X0227667Y0098384D01*
X0227609Y0097916D01*
X0227563Y0097447D01*
X0227529Y0096977D01*
X0227506Y0096507D01*
X0227494Y0096036D01*
X0227494Y0095564D01*
X0227506Y0095093D01*
X0227529Y0094623D01*
X0227563Y0094153D01*
X0227609Y0093684D01*
X0227667Y0093216D01*
X0227735Y0092750D01*
X0227816Y0092286D01*
X0227907Y0091823D01*
X0228010Y0091364D01*
X0228123Y0090906D01*
X0228248Y0090452D01*
X0228384Y0090001D01*
X0228531Y0089553D01*
X0228689Y0089109D01*
X0228858Y0088669D01*
X0229037Y0088234D01*
X0229227Y0087802D01*
X0229428Y0087376D01*
X0229638Y0086955D01*
X0229859Y0086538D01*
X0230090Y0086128D01*
X0230331Y0085723D01*
X0230582Y0085324D01*
X0230843Y0084931D01*
X0231113Y0084545D01*
X0231392Y0084166D01*
X0231681Y0083793D01*
X0231978Y0083428D01*
X0232284Y0083070D01*
X0232599Y0082719D01*
X0232923Y0082377D01*
X0233255Y0082042D01*
X0233594Y0081716D01*
X0233942Y0081398D01*
X0234297Y0081088D01*
X0234660Y0080787D01*
X0235030Y0080496D01*
X0235407Y0080213D01*
X0235791Y0079939D01*
X0236181Y0079676D01*
X0236578Y0079421D01*
X0236980Y0079177D01*
X0237389Y0078942D01*
X0237803Y0078717D01*
X0238223Y0078503D01*
X0238647Y0078299D01*
X0239077Y0078105D01*
X0239511Y0077922D01*
X0239950Y0077749D01*
X0240392Y0077587D01*
X0240838Y0077436D01*
X0241288Y0077296D01*
X0252312Y0077296D02*
X0252762Y0077436D01*
X0253208Y0077587D01*
X0253650Y0077749D01*
X0254089Y0077922D01*
X0254523Y0078105D01*
X0254953Y0078299D01*
X0255377Y0078503D01*
X0255797Y0078717D01*
X0256211Y0078942D01*
X0256620Y0079177D01*
X0257022Y0079421D01*
X0257419Y0079676D01*
X0257809Y0079939D01*
X0258193Y0080213D01*
X0258570Y0080496D01*
X0258940Y0080787D01*
X0259303Y0081088D01*
X0259658Y0081398D01*
X0260006Y0081716D01*
X0260345Y0082042D01*
X0260677Y0082377D01*
X0261001Y0082719D01*
X0261316Y0083070D01*
X0261622Y0083428D01*
X0261919Y0083793D01*
X0262208Y0084166D01*
X0262487Y0084545D01*
X0262757Y0084931D01*
X0263018Y0085324D01*
X0263269Y0085723D01*
X0263510Y0086128D01*
X0263741Y0086538D01*
X0263962Y0086955D01*
X0264172Y0087376D01*
X0264373Y0087802D01*
X0264563Y0088234D01*
X0264742Y0088669D01*
X0264911Y0089109D01*
X0265069Y0089553D01*
X0265216Y0090001D01*
X0265352Y0090452D01*
X0265477Y0090906D01*
X0265590Y0091364D01*
X0265693Y0091823D01*
X0265784Y0092286D01*
X0265865Y0092750D01*
X0265933Y0093216D01*
X0265991Y0093684D01*
X0266037Y0094153D01*
X0266071Y0094623D01*
X0266094Y0095093D01*
X0266106Y0095564D01*
X0266106Y0096036D01*
X0266094Y0096507D01*
X0266071Y0096977D01*
X0266037Y0097447D01*
X0265991Y0097916D01*
X0265933Y0098384D01*
X0265865Y0098850D01*
X0265784Y0099314D01*
X0265693Y0099777D01*
X0265590Y0100236D01*
X0265477Y0100694D01*
X0265352Y0101148D01*
X0265216Y0101599D01*
X0265069Y0102047D01*
X0264911Y0102491D01*
X0264742Y0102931D01*
X0264563Y0103366D01*
X0264373Y0103798D01*
X0264172Y0104224D01*
X0263962Y0104645D01*
X0263741Y0105062D01*
X0263510Y0105472D01*
X0263269Y0105877D01*
X0263018Y0106276D01*
X0262757Y0106669D01*
X0262487Y0107055D01*
X0262208Y0107434D01*
X0261919Y0107807D01*
X0261622Y0108172D01*
X0261316Y0108530D01*
X0261001Y0108881D01*
X0260677Y0109223D01*
X0260345Y0109558D01*
X0260006Y0109884D01*
X0259658Y0110202D01*
X0259303Y0110512D01*
X0258940Y0110813D01*
X0258570Y0111104D01*
X0258193Y0111387D01*
X0257809Y0111661D01*
X0257419Y0111924D01*
X0257022Y0112179D01*
X0256620Y0112423D01*
X0256211Y0112658D01*
X0255797Y0112883D01*
X0255377Y0113097D01*
X0254953Y0113301D01*
X0254523Y0113495D01*
X0254089Y0113678D01*
X0253650Y0113851D01*
X0253208Y0114013D01*
X0252762Y0114164D01*
X0252312Y0114304D01*
D13*
X0207230Y0110367D02*
X0207232Y0110442D01*
X0207238Y0110517D01*
X0207248Y0110591D01*
X0207262Y0110665D01*
X0207279Y0110738D01*
X0207301Y0110809D01*
X0207326Y0110880D01*
X0207355Y0110949D01*
X0207387Y0111017D01*
X0207423Y0111082D01*
X0207463Y0111146D01*
X0207506Y0111208D01*
X0207552Y0111267D01*
X0207601Y0111324D01*
X0207653Y0111378D01*
X0207707Y0111429D01*
X0207765Y0111477D01*
X0207824Y0111522D01*
X0207887Y0111564D01*
X0207951Y0111603D01*
X0208017Y0111638D01*
X0208085Y0111670D01*
X0208155Y0111698D01*
X0208225Y0111722D01*
X0208298Y0111743D01*
X0208371Y0111759D01*
X0208445Y0111772D01*
X0208519Y0111781D01*
X0208594Y0111786D01*
X0208669Y0111787D01*
X0208744Y0111784D01*
X0208818Y0111777D01*
X0208892Y0111766D01*
X0208966Y0111751D01*
X0209039Y0111733D01*
X0209110Y0111710D01*
X0209180Y0111684D01*
X0209249Y0111654D01*
X0209316Y0111621D01*
X0209382Y0111584D01*
X0209445Y0111544D01*
X0209506Y0111500D01*
X0209564Y0111453D01*
X0209620Y0111404D01*
X0209674Y0111351D01*
X0209724Y0111296D01*
X0209772Y0111238D01*
X0209816Y0111177D01*
X0209857Y0111115D01*
X0209895Y0111050D01*
X0209929Y0110983D01*
X0209960Y0110915D01*
X0209987Y0110845D01*
X0210011Y0110774D01*
X0210030Y0110701D01*
X0210046Y0110628D01*
X0210058Y0110554D01*
X0210066Y0110479D01*
X0210070Y0110404D01*
X0210070Y0110330D01*
X0210066Y0110255D01*
X0210058Y0110180D01*
X0210046Y0110106D01*
X0210030Y0110033D01*
X0210011Y0109960D01*
X0209987Y0109889D01*
X0209960Y0109819D01*
X0209929Y0109751D01*
X0209895Y0109684D01*
X0209857Y0109619D01*
X0209816Y0109557D01*
X0209772Y0109496D01*
X0209724Y0109438D01*
X0209674Y0109383D01*
X0209620Y0109330D01*
X0209564Y0109281D01*
X0209506Y0109234D01*
X0209445Y0109190D01*
X0209382Y0109150D01*
X0209316Y0109113D01*
X0209249Y0109080D01*
X0209180Y0109050D01*
X0209110Y0109024D01*
X0209039Y0109001D01*
X0208966Y0108983D01*
X0208892Y0108968D01*
X0208818Y0108957D01*
X0208744Y0108950D01*
X0208669Y0108947D01*
X0208594Y0108948D01*
X0208519Y0108953D01*
X0208445Y0108962D01*
X0208371Y0108975D01*
X0208298Y0108991D01*
X0208225Y0109012D01*
X0208155Y0109036D01*
X0208085Y0109064D01*
X0208017Y0109096D01*
X0207951Y0109131D01*
X0207887Y0109170D01*
X0207824Y0109212D01*
X0207765Y0109257D01*
X0207707Y0109305D01*
X0207653Y0109356D01*
X0207601Y0109410D01*
X0207552Y0109467D01*
X0207506Y0109526D01*
X0207463Y0109588D01*
X0207423Y0109652D01*
X0207387Y0109717D01*
X0207355Y0109785D01*
X0207326Y0109854D01*
X0207301Y0109925D01*
X0207279Y0109996D01*
X0207262Y0110069D01*
X0207248Y0110143D01*
X0207238Y0110217D01*
X0207232Y0110292D01*
X0207230Y0110367D01*
X0242800Y0069800D02*
X0257800Y0069800D01*
X0242800Y0069800D02*
X0242800Y0051800D01*
X0203800Y0051800D01*
X0187800Y0037800D02*
X0139800Y0037800D01*
X0131800Y0025800D02*
X0131800Y0015800D01*
X0191800Y0015800D01*
X0191800Y0025800D01*
X0131800Y0025800D01*
X0201800Y0015800D02*
X0261800Y0015800D01*
X0261800Y0035800D01*
X0201800Y0035800D01*
X0201800Y0015800D01*
X0092666Y0127729D02*
X0092666Y0219855D01*
X0087548Y0219855D01*
X0056052Y0219855D01*
X0050934Y0219855D01*
X0050934Y0127729D01*
X0092666Y0127729D01*
X0047666Y0127729D02*
X0047666Y0219855D01*
X0042548Y0219855D01*
X0011052Y0219855D01*
X0005934Y0219855D01*
X0005934Y0127729D01*
X0047666Y0127729D01*
X0099800Y0179800D02*
X0259800Y0179800D01*
X0261800Y0195800D02*
X0261800Y0215800D01*
X0181800Y0215800D01*
X0181800Y0195800D01*
X0261800Y0195800D01*
X0207230Y0165367D02*
X0207232Y0165442D01*
X0207238Y0165517D01*
X0207248Y0165591D01*
X0207262Y0165665D01*
X0207279Y0165738D01*
X0207301Y0165809D01*
X0207326Y0165880D01*
X0207355Y0165949D01*
X0207387Y0166017D01*
X0207423Y0166082D01*
X0207463Y0166146D01*
X0207506Y0166208D01*
X0207552Y0166267D01*
X0207601Y0166324D01*
X0207653Y0166378D01*
X0207707Y0166429D01*
X0207765Y0166477D01*
X0207824Y0166522D01*
X0207887Y0166564D01*
X0207951Y0166603D01*
X0208017Y0166638D01*
X0208085Y0166670D01*
X0208155Y0166698D01*
X0208225Y0166722D01*
X0208298Y0166743D01*
X0208371Y0166759D01*
X0208445Y0166772D01*
X0208519Y0166781D01*
X0208594Y0166786D01*
X0208669Y0166787D01*
X0208744Y0166784D01*
X0208818Y0166777D01*
X0208892Y0166766D01*
X0208966Y0166751D01*
X0209039Y0166733D01*
X0209110Y0166710D01*
X0209180Y0166684D01*
X0209249Y0166654D01*
X0209316Y0166621D01*
X0209382Y0166584D01*
X0209445Y0166544D01*
X0209506Y0166500D01*
X0209564Y0166453D01*
X0209620Y0166404D01*
X0209674Y0166351D01*
X0209724Y0166296D01*
X0209772Y0166238D01*
X0209816Y0166177D01*
X0209857Y0166115D01*
X0209895Y0166050D01*
X0209929Y0165983D01*
X0209960Y0165915D01*
X0209987Y0165845D01*
X0210011Y0165774D01*
X0210030Y0165701D01*
X0210046Y0165628D01*
X0210058Y0165554D01*
X0210066Y0165479D01*
X0210070Y0165404D01*
X0210070Y0165330D01*
X0210066Y0165255D01*
X0210058Y0165180D01*
X0210046Y0165106D01*
X0210030Y0165033D01*
X0210011Y0164960D01*
X0209987Y0164889D01*
X0209960Y0164819D01*
X0209929Y0164751D01*
X0209895Y0164684D01*
X0209857Y0164619D01*
X0209816Y0164557D01*
X0209772Y0164496D01*
X0209724Y0164438D01*
X0209674Y0164383D01*
X0209620Y0164330D01*
X0209564Y0164281D01*
X0209506Y0164234D01*
X0209445Y0164190D01*
X0209382Y0164150D01*
X0209316Y0164113D01*
X0209249Y0164080D01*
X0209180Y0164050D01*
X0209110Y0164024D01*
X0209039Y0164001D01*
X0208966Y0163983D01*
X0208892Y0163968D01*
X0208818Y0163957D01*
X0208744Y0163950D01*
X0208669Y0163947D01*
X0208594Y0163948D01*
X0208519Y0163953D01*
X0208445Y0163962D01*
X0208371Y0163975D01*
X0208298Y0163991D01*
X0208225Y0164012D01*
X0208155Y0164036D01*
X0208085Y0164064D01*
X0208017Y0164096D01*
X0207951Y0164131D01*
X0207887Y0164170D01*
X0207824Y0164212D01*
X0207765Y0164257D01*
X0207707Y0164305D01*
X0207653Y0164356D01*
X0207601Y0164410D01*
X0207552Y0164467D01*
X0207506Y0164526D01*
X0207463Y0164588D01*
X0207423Y0164652D01*
X0207387Y0164717D01*
X0207355Y0164785D01*
X0207326Y0164854D01*
X0207301Y0164925D01*
X0207279Y0164996D01*
X0207262Y0165069D01*
X0207248Y0165143D01*
X0207238Y0165217D01*
X0207232Y0165292D01*
X0207230Y0165367D01*
X0175800Y0195800D02*
X0175800Y0215800D01*
X0095800Y0215800D01*
X0095800Y0195800D01*
X0175800Y0195800D01*
D14*
X0173653Y0194033D02*
X0173653Y0192798D01*
X0173036Y0192181D01*
X0172419Y0192181D01*
X0171802Y0192798D01*
X0171802Y0194033D01*
X0172419Y0194650D01*
X0173036Y0194650D01*
X0173653Y0194033D01*
X0171802Y0194033D02*
X0171184Y0194650D01*
X0170567Y0194650D01*
X0169950Y0194033D01*
X0169950Y0192798D01*
X0170567Y0192181D01*
X0171184Y0192181D01*
X0171802Y0192798D01*
X0173036Y0186650D02*
X0173653Y0186033D01*
X0173653Y0184798D01*
X0173036Y0184181D01*
X0172419Y0184181D01*
X0171802Y0184798D01*
X0171184Y0184181D01*
X0170567Y0184181D01*
X0169950Y0184798D01*
X0169950Y0186033D01*
X0170567Y0186650D01*
X0171802Y0185416D02*
X0171802Y0184798D01*
X0171802Y0182967D02*
X0171802Y0180498D01*
X0173653Y0181115D02*
X0171802Y0182967D01*
X0173653Y0181115D02*
X0169950Y0181115D01*
X0163653Y0180498D02*
X0163653Y0182967D01*
X0161802Y0182967D01*
X0162419Y0181732D01*
X0162419Y0181115D01*
X0161802Y0180498D01*
X0160567Y0180498D01*
X0159950Y0181115D01*
X0159950Y0182350D01*
X0160567Y0182967D01*
X0160567Y0184181D02*
X0159950Y0184798D01*
X0159950Y0186033D01*
X0160567Y0186650D01*
X0161802Y0185416D02*
X0161802Y0184798D01*
X0161184Y0184181D01*
X0160567Y0184181D01*
X0161802Y0184798D02*
X0162419Y0184181D01*
X0163036Y0184181D01*
X0163653Y0184798D01*
X0163653Y0186033D01*
X0163036Y0186650D01*
X0163036Y0192181D02*
X0160567Y0192181D01*
X0159950Y0192798D01*
X0159950Y0194033D01*
X0160567Y0194650D01*
X0161802Y0194033D02*
X0161802Y0192181D01*
X0163036Y0192181D02*
X0163653Y0192798D01*
X0163653Y0194033D01*
X0163036Y0194650D01*
X0162419Y0194650D01*
X0161802Y0194033D01*
X0153653Y0193416D02*
X0149950Y0193416D01*
X0149950Y0194650D02*
X0149950Y0192181D01*
X0150567Y0190967D02*
X0149950Y0190350D01*
X0149950Y0189115D01*
X0150567Y0188498D01*
X0153036Y0188498D01*
X0150567Y0190967D01*
X0153036Y0190967D01*
X0153653Y0190350D01*
X0153653Y0189115D01*
X0153036Y0188498D01*
X0153036Y0186650D02*
X0153653Y0186033D01*
X0153653Y0184798D01*
X0153036Y0184181D01*
X0152419Y0184181D01*
X0151802Y0184798D01*
X0151184Y0184181D01*
X0150567Y0184181D01*
X0149950Y0184798D01*
X0149950Y0186033D01*
X0150567Y0186650D01*
X0151802Y0185416D02*
X0151802Y0184798D01*
X0151802Y0182967D02*
X0151802Y0181115D01*
X0151184Y0180498D01*
X0150567Y0180498D01*
X0149950Y0181115D01*
X0149950Y0182350D01*
X0150567Y0182967D01*
X0151802Y0182967D01*
X0153036Y0181732D01*
X0153653Y0180498D01*
X0143653Y0180498D02*
X0143036Y0180498D01*
X0140567Y0182967D01*
X0139950Y0182967D01*
X0140567Y0184181D02*
X0139950Y0184798D01*
X0139950Y0186033D01*
X0140567Y0186650D01*
X0141802Y0185416D02*
X0141802Y0184798D01*
X0141184Y0184181D01*
X0140567Y0184181D01*
X0141802Y0184798D02*
X0142419Y0184181D01*
X0143036Y0184181D01*
X0143653Y0184798D01*
X0143653Y0186033D01*
X0143036Y0186650D01*
X0143653Y0189732D02*
X0139950Y0189732D01*
X0139950Y0188498D02*
X0139950Y0190967D01*
X0139950Y0192181D02*
X0139950Y0194650D01*
X0139950Y0193416D02*
X0143653Y0193416D01*
X0142419Y0194650D01*
X0142419Y0190967D02*
X0143653Y0189732D01*
X0143653Y0182967D02*
X0143653Y0180498D01*
X0133653Y0181115D02*
X0133036Y0180498D01*
X0132419Y0180498D01*
X0131802Y0181115D01*
X0131802Y0182350D01*
X0132419Y0182967D01*
X0133036Y0182967D01*
X0133653Y0182350D01*
X0133653Y0181115D01*
X0131802Y0181115D02*
X0131184Y0180498D01*
X0130567Y0180498D01*
X0129950Y0181115D01*
X0129950Y0182350D01*
X0130567Y0182967D01*
X0131184Y0182967D01*
X0131802Y0182350D01*
X0132419Y0184181D02*
X0131802Y0184798D01*
X0131184Y0184181D01*
X0130567Y0184181D01*
X0129950Y0184798D01*
X0129950Y0186033D01*
X0130567Y0186650D01*
X0131802Y0185416D02*
X0131802Y0184798D01*
X0132419Y0184181D02*
X0133036Y0184181D01*
X0133653Y0184798D01*
X0133653Y0186033D01*
X0133036Y0186650D01*
X0133036Y0188498D02*
X0133653Y0189115D01*
X0133653Y0190350D01*
X0133036Y0190967D01*
X0133036Y0188498D02*
X0132419Y0188498D01*
X0129950Y0190967D01*
X0129950Y0188498D01*
X0129950Y0192181D02*
X0129950Y0194650D01*
X0129950Y0193416D02*
X0133653Y0193416D01*
X0132419Y0194650D01*
X0123653Y0193416D02*
X0119950Y0193416D01*
X0119950Y0194650D02*
X0119950Y0192181D01*
X0120567Y0190967D02*
X0119950Y0190350D01*
X0119950Y0189115D01*
X0120567Y0188498D01*
X0121184Y0188498D01*
X0121802Y0189115D01*
X0121802Y0189732D01*
X0121802Y0189115D02*
X0122419Y0188498D01*
X0123036Y0188498D01*
X0123653Y0189115D01*
X0123653Y0190350D01*
X0123036Y0190967D01*
X0123653Y0193416D02*
X0122419Y0194650D01*
X0123036Y0186650D02*
X0123653Y0186033D01*
X0123653Y0184798D01*
X0123036Y0184181D01*
X0122419Y0184181D01*
X0121802Y0184798D01*
X0121184Y0184181D01*
X0120567Y0184181D01*
X0119950Y0184798D01*
X0119950Y0186033D01*
X0120567Y0186650D01*
X0121802Y0185416D02*
X0121802Y0184798D01*
X0122419Y0182967D02*
X0121802Y0182350D01*
X0121802Y0180498D01*
X0123036Y0180498D02*
X0123653Y0181115D01*
X0123653Y0182350D01*
X0123036Y0182967D01*
X0122419Y0182967D01*
X0120567Y0182967D02*
X0119950Y0182350D01*
X0119950Y0181115D01*
X0120567Y0180498D01*
X0123036Y0180498D01*
X0113653Y0181115D02*
X0113036Y0180498D01*
X0110567Y0182967D01*
X0109950Y0182350D01*
X0109950Y0181115D01*
X0110567Y0180498D01*
X0113036Y0180498D01*
X0113653Y0181115D02*
X0113653Y0182350D01*
X0113036Y0182967D01*
X0110567Y0182967D01*
X0111802Y0184181D02*
X0111802Y0186650D01*
X0113653Y0184798D01*
X0109950Y0184798D01*
X0103653Y0184798D02*
X0101802Y0186650D01*
X0101802Y0184181D01*
X0102419Y0182967D02*
X0103653Y0181732D01*
X0099950Y0181732D01*
X0099950Y0180498D02*
X0099950Y0182967D01*
X0099950Y0184798D02*
X0103653Y0184798D01*
X0152419Y0194650D02*
X0153653Y0193416D01*
X0185950Y0194650D02*
X0186567Y0194650D01*
X0189036Y0192181D01*
X0189653Y0192181D01*
X0189653Y0194650D01*
X0195950Y0194033D02*
X0195950Y0192798D01*
X0196567Y0192181D01*
X0197184Y0192181D01*
X0197802Y0192798D01*
X0197802Y0194650D01*
X0196567Y0194650D01*
X0195950Y0194033D01*
X0197802Y0194650D02*
X0199036Y0193416D01*
X0199653Y0192181D01*
X0199036Y0186650D02*
X0199653Y0186033D01*
X0199653Y0184798D01*
X0199036Y0184181D01*
X0198419Y0184181D01*
X0197802Y0184798D01*
X0197184Y0184181D01*
X0196567Y0184181D01*
X0195950Y0184798D01*
X0195950Y0186033D01*
X0196567Y0186650D01*
X0197802Y0185416D02*
X0197802Y0184798D01*
X0199036Y0182967D02*
X0199653Y0182350D01*
X0199653Y0181115D01*
X0199036Y0180498D01*
X0198419Y0180498D01*
X0195950Y0182967D01*
X0195950Y0180498D01*
X0189653Y0181115D02*
X0189036Y0180498D01*
X0188419Y0180498D01*
X0187802Y0181115D01*
X0187184Y0180498D01*
X0186567Y0180498D01*
X0185950Y0181115D01*
X0185950Y0182350D01*
X0186567Y0182967D01*
X0186567Y0184181D02*
X0185950Y0184798D01*
X0185950Y0186033D01*
X0186567Y0186650D01*
X0187802Y0185416D02*
X0187802Y0184798D01*
X0187184Y0184181D01*
X0186567Y0184181D01*
X0187802Y0184798D02*
X0188419Y0184181D01*
X0189036Y0184181D01*
X0189653Y0184798D01*
X0189653Y0186033D01*
X0189036Y0186650D01*
X0189036Y0182967D02*
X0189653Y0182350D01*
X0189653Y0181115D01*
X0187802Y0181115D02*
X0187802Y0181732D01*
X0205950Y0181732D02*
X0209653Y0181732D01*
X0208419Y0182967D01*
X0208419Y0184181D02*
X0207802Y0184798D01*
X0207184Y0184181D01*
X0206567Y0184181D01*
X0205950Y0184798D01*
X0205950Y0186033D01*
X0206567Y0186650D01*
X0207802Y0185416D02*
X0207802Y0184798D01*
X0208419Y0184181D02*
X0209036Y0184181D01*
X0209653Y0184798D01*
X0209653Y0186033D01*
X0209036Y0186650D01*
X0205950Y0182967D02*
X0205950Y0180498D01*
X0215950Y0181115D02*
X0215950Y0182350D01*
X0216567Y0182967D01*
X0219036Y0180498D01*
X0216567Y0180498D01*
X0215950Y0181115D01*
X0216567Y0182967D02*
X0219036Y0182967D01*
X0219653Y0182350D01*
X0219653Y0181115D01*
X0219036Y0180498D01*
X0219036Y0184181D02*
X0218419Y0184181D01*
X0217802Y0184798D01*
X0217184Y0184181D01*
X0216567Y0184181D01*
X0215950Y0184798D01*
X0215950Y0186033D01*
X0216567Y0186650D01*
X0217802Y0185416D02*
X0217802Y0184798D01*
X0219036Y0184181D02*
X0219653Y0184798D01*
X0219653Y0186033D01*
X0219036Y0186650D01*
X0217802Y0192181D02*
X0217802Y0194650D01*
X0219653Y0192798D01*
X0215950Y0192798D01*
X0209653Y0192181D02*
X0209653Y0194650D01*
X0207802Y0194650D01*
X0208419Y0193416D01*
X0208419Y0192798D01*
X0207802Y0192181D01*
X0206567Y0192181D01*
X0205950Y0192798D01*
X0205950Y0194033D01*
X0206567Y0194650D01*
X0225950Y0194033D02*
X0226567Y0194650D01*
X0225950Y0194033D02*
X0225950Y0192798D01*
X0226567Y0192181D01*
X0227184Y0192181D01*
X0227802Y0192798D01*
X0227802Y0193416D01*
X0227802Y0192798D02*
X0228419Y0192181D01*
X0229036Y0192181D01*
X0229653Y0192798D01*
X0229653Y0194033D01*
X0229036Y0194650D01*
X0235950Y0194650D02*
X0235950Y0192181D01*
X0235950Y0194650D02*
X0238419Y0192181D01*
X0239036Y0192181D01*
X0239653Y0192798D01*
X0239653Y0194033D01*
X0239036Y0194650D01*
X0245950Y0194650D02*
X0245950Y0192181D01*
X0245950Y0193416D02*
X0249653Y0193416D01*
X0248419Y0194650D01*
X0255950Y0194033D02*
X0256567Y0194650D01*
X0259036Y0192181D01*
X0256567Y0192181D01*
X0255950Y0192798D01*
X0255950Y0194033D01*
X0256567Y0194650D02*
X0259036Y0194650D01*
X0259653Y0194033D01*
X0259653Y0192798D01*
X0259036Y0192181D01*
X0259036Y0186650D02*
X0259653Y0186033D01*
X0259653Y0184798D01*
X0259036Y0184181D01*
X0258419Y0184181D01*
X0255950Y0186650D01*
X0255950Y0184181D01*
X0256567Y0182967D02*
X0255950Y0182350D01*
X0255950Y0181115D01*
X0256567Y0180498D01*
X0257184Y0180498D01*
X0257802Y0181115D01*
X0257802Y0182967D01*
X0256567Y0182967D01*
X0257802Y0182967D02*
X0259036Y0181732D01*
X0259653Y0180498D01*
X0249653Y0180498D02*
X0249036Y0180498D01*
X0246567Y0182967D01*
X0245950Y0182967D01*
X0245950Y0184181D02*
X0245950Y0186650D01*
X0248419Y0184181D01*
X0249036Y0184181D01*
X0249653Y0184798D01*
X0249653Y0186033D01*
X0249036Y0186650D01*
X0249653Y0182967D02*
X0249653Y0180498D01*
X0239653Y0181115D02*
X0239036Y0180498D01*
X0238419Y0180498D01*
X0237802Y0181115D01*
X0237802Y0182350D01*
X0238419Y0182967D01*
X0239036Y0182967D01*
X0239653Y0182350D01*
X0239653Y0181115D01*
X0237802Y0181115D02*
X0237184Y0180498D01*
X0236567Y0180498D01*
X0235950Y0181115D01*
X0235950Y0182350D01*
X0236567Y0182967D01*
X0237184Y0182967D01*
X0237802Y0182350D01*
X0238419Y0184181D02*
X0239036Y0184181D01*
X0239653Y0184798D01*
X0239653Y0186033D01*
X0239036Y0186650D01*
X0238419Y0184181D02*
X0235950Y0186650D01*
X0235950Y0184181D01*
X0229653Y0184798D02*
X0229653Y0186033D01*
X0229036Y0186650D01*
X0229653Y0184798D02*
X0229036Y0184181D01*
X0228419Y0184181D01*
X0225950Y0186650D01*
X0225950Y0184181D01*
X0226567Y0182967D02*
X0225950Y0182350D01*
X0225950Y0181115D01*
X0226567Y0180498D01*
X0229036Y0180498D01*
X0229653Y0181115D01*
X0229653Y0182350D01*
X0229036Y0182967D01*
X0228419Y0182967D01*
X0227802Y0182350D01*
X0227802Y0180498D01*
X0244564Y0068785D02*
X0247033Y0066316D01*
X0247650Y0066933D01*
X0247650Y0068168D01*
X0247033Y0068785D01*
X0244564Y0068785D01*
X0243947Y0068168D01*
X0243947Y0066933D01*
X0244564Y0066316D01*
X0247033Y0066316D01*
X0247650Y0065102D02*
X0247650Y0062633D01*
X0247650Y0061419D02*
X0245181Y0061419D01*
X0243947Y0060184D01*
X0245181Y0058950D01*
X0247650Y0058950D01*
X0247650Y0057834D02*
X0245181Y0057834D01*
X0243947Y0056600D01*
X0245181Y0055366D01*
X0247650Y0055366D01*
X0247033Y0054151D02*
X0244564Y0054151D01*
X0243947Y0053534D01*
X0243947Y0051683D01*
X0247650Y0051683D01*
X0247650Y0053534D01*
X0247033Y0054151D01*
X0245798Y0055366D02*
X0245798Y0057834D01*
X0245798Y0058950D02*
X0245798Y0061419D01*
X0245181Y0062633D02*
X0243947Y0063868D01*
X0247650Y0063868D01*
X0253947Y0063868D02*
X0257650Y0063868D01*
X0257650Y0065102D02*
X0257650Y0062633D01*
X0257650Y0061419D02*
X0255181Y0061419D01*
X0253947Y0060184D01*
X0255181Y0058950D01*
X0257650Y0058950D01*
X0257650Y0057834D02*
X0257650Y0055366D01*
X0253947Y0055366D01*
X0254564Y0054151D02*
X0253947Y0053534D01*
X0253947Y0052300D01*
X0254564Y0051683D01*
X0257033Y0051683D01*
X0257650Y0052300D01*
X0257650Y0053534D01*
X0257033Y0054151D01*
X0257033Y0050468D02*
X0257650Y0049851D01*
X0257650Y0048617D01*
X0257033Y0047999D01*
X0255798Y0048617D02*
X0255798Y0049851D01*
X0256416Y0050468D01*
X0257033Y0050468D01*
X0255798Y0048617D02*
X0255181Y0047999D01*
X0254564Y0047999D01*
X0253947Y0048617D01*
X0253947Y0049851D01*
X0254564Y0050468D01*
X0253947Y0046785D02*
X0257650Y0044316D01*
X0257033Y0043102D02*
X0257650Y0042485D01*
X0257650Y0041250D01*
X0257033Y0040633D01*
X0255798Y0040633D02*
X0255181Y0041868D01*
X0255181Y0042485D01*
X0255798Y0043102D01*
X0257033Y0043102D01*
X0255798Y0040633D02*
X0253947Y0040633D01*
X0253947Y0043102D01*
X0255181Y0039419D02*
X0257650Y0039419D01*
X0255798Y0039419D02*
X0255798Y0036950D01*
X0255181Y0036950D02*
X0253947Y0038184D01*
X0255181Y0039419D01*
X0255181Y0036950D02*
X0257650Y0036950D01*
X0247650Y0036950D02*
X0245181Y0036950D01*
X0243947Y0038184D01*
X0245181Y0039419D01*
X0247650Y0039419D01*
X0245798Y0039419D02*
X0245798Y0036950D01*
X0245798Y0040633D02*
X0245798Y0043102D01*
X0243947Y0042485D02*
X0245798Y0040633D01*
X0243947Y0042485D02*
X0247650Y0042485D01*
X0247650Y0044316D02*
X0243947Y0046785D01*
X0244564Y0047999D02*
X0245181Y0047999D01*
X0245798Y0048617D01*
X0245798Y0049851D01*
X0246416Y0050468D01*
X0247033Y0050468D01*
X0247650Y0049851D01*
X0247650Y0048617D01*
X0247033Y0047999D01*
X0244564Y0047999D02*
X0243947Y0048617D01*
X0243947Y0049851D01*
X0244564Y0050468D01*
X0237650Y0050485D02*
X0237033Y0051102D01*
X0234564Y0051102D01*
X0233947Y0050485D01*
X0233947Y0049250D01*
X0234564Y0048633D01*
X0235181Y0048633D01*
X0235798Y0049250D01*
X0235798Y0051102D01*
X0237650Y0050485D02*
X0237650Y0049250D01*
X0237033Y0048633D01*
X0237650Y0047419D02*
X0235181Y0047419D01*
X0233947Y0046184D01*
X0235181Y0044950D01*
X0237650Y0044950D01*
X0235798Y0044950D02*
X0235798Y0047419D01*
X0235181Y0043102D02*
X0235798Y0042485D01*
X0236416Y0043102D01*
X0237033Y0043102D01*
X0237650Y0042485D01*
X0237650Y0041250D01*
X0237033Y0040633D01*
X0237650Y0039419D02*
X0235181Y0039419D01*
X0233947Y0038184D01*
X0235181Y0036950D01*
X0237650Y0036950D01*
X0235798Y0036950D02*
X0235798Y0039419D01*
X0234564Y0040633D02*
X0233947Y0041250D01*
X0233947Y0042485D01*
X0234564Y0043102D01*
X0235181Y0043102D01*
X0235798Y0042485D02*
X0235798Y0041868D01*
X0227650Y0043102D02*
X0227650Y0040633D01*
X0225181Y0043102D01*
X0224564Y0043102D01*
X0223947Y0042485D01*
X0223947Y0041250D01*
X0224564Y0040633D01*
X0225181Y0039419D02*
X0227650Y0039419D01*
X0225798Y0039419D02*
X0225798Y0036950D01*
X0225181Y0036950D02*
X0223947Y0038184D01*
X0225181Y0039419D01*
X0225181Y0036950D02*
X0227650Y0036950D01*
X0227650Y0044950D02*
X0225181Y0044950D01*
X0223947Y0046184D01*
X0225181Y0047419D01*
X0227650Y0047419D01*
X0227033Y0048633D02*
X0227650Y0049250D01*
X0227650Y0050485D01*
X0227033Y0051102D01*
X0226416Y0051102D01*
X0225798Y0050485D01*
X0225798Y0049250D01*
X0225181Y0048633D01*
X0224564Y0048633D01*
X0223947Y0049250D01*
X0223947Y0050485D01*
X0224564Y0051102D01*
X0225181Y0051102D01*
X0225798Y0050485D01*
X0225798Y0049250D02*
X0226416Y0048633D01*
X0227033Y0048633D01*
X0225798Y0047419D02*
X0225798Y0044950D01*
X0217650Y0044950D02*
X0215181Y0044950D01*
X0213947Y0046184D01*
X0215181Y0047419D01*
X0217650Y0047419D01*
X0217650Y0048633D02*
X0217033Y0048633D01*
X0214564Y0051102D01*
X0213947Y0051102D01*
X0213947Y0048633D01*
X0215798Y0047419D02*
X0215798Y0044950D01*
X0217650Y0043102D02*
X0217650Y0040633D01*
X0217650Y0039419D02*
X0215181Y0039419D01*
X0213947Y0038184D01*
X0215181Y0036950D01*
X0217650Y0036950D01*
X0215798Y0036950D02*
X0215798Y0039419D01*
X0215181Y0040633D02*
X0213947Y0041868D01*
X0217650Y0041868D01*
X0207650Y0042485D02*
X0207650Y0041250D01*
X0207033Y0040633D01*
X0204564Y0043102D01*
X0207033Y0043102D01*
X0207650Y0042485D01*
X0207033Y0040633D02*
X0204564Y0040633D01*
X0203947Y0041250D01*
X0203947Y0042485D01*
X0204564Y0043102D01*
X0205181Y0044950D02*
X0203947Y0046184D01*
X0205181Y0047419D01*
X0207650Y0047419D01*
X0207033Y0048633D02*
X0207650Y0049250D01*
X0207650Y0050485D01*
X0207033Y0051102D01*
X0206416Y0051102D01*
X0205798Y0050485D01*
X0205798Y0048633D01*
X0207033Y0048633D01*
X0205798Y0048633D02*
X0204564Y0049868D01*
X0203947Y0051102D01*
X0205798Y0047419D02*
X0205798Y0044950D01*
X0205181Y0044950D02*
X0207650Y0044950D01*
X0207650Y0039419D02*
X0205181Y0039419D01*
X0203947Y0038184D01*
X0205181Y0036950D01*
X0207650Y0036950D01*
X0205798Y0036950D02*
X0205798Y0039419D01*
X0187650Y0035557D02*
X0183947Y0035557D01*
X0183947Y0033089D02*
X0187650Y0035557D01*
X0187650Y0033089D02*
X0183947Y0033089D01*
X0183947Y0031868D02*
X0183947Y0030633D01*
X0183947Y0031250D02*
X0187650Y0031250D01*
X0187650Y0030633D02*
X0187650Y0031868D01*
X0186416Y0029419D02*
X0183947Y0029419D01*
X0186416Y0029419D02*
X0187650Y0028184D01*
X0186416Y0026950D01*
X0183947Y0026950D01*
X0177650Y0027567D02*
X0177650Y0028802D01*
X0177033Y0029419D01*
X0175798Y0029419D01*
X0175798Y0028184D01*
X0174564Y0026950D02*
X0177033Y0026950D01*
X0177650Y0027567D01*
X0174564Y0026950D02*
X0173947Y0027567D01*
X0173947Y0028802D01*
X0174564Y0029419D01*
X0173947Y0030633D02*
X0177650Y0033102D01*
X0173947Y0033102D01*
X0173947Y0034316D02*
X0173947Y0036168D01*
X0174564Y0036785D01*
X0177033Y0036785D01*
X0177650Y0036168D01*
X0177650Y0034316D01*
X0173947Y0034316D01*
X0173947Y0030633D02*
X0177650Y0030633D01*
X0167650Y0030633D02*
X0163947Y0030633D01*
X0167650Y0033102D01*
X0163947Y0033102D01*
X0163947Y0034316D02*
X0163947Y0036168D01*
X0164564Y0036785D01*
X0167033Y0036785D01*
X0167650Y0036168D01*
X0167650Y0034316D01*
X0163947Y0034316D01*
X0164564Y0029419D02*
X0163947Y0028802D01*
X0163947Y0027567D01*
X0164564Y0026950D01*
X0167033Y0026950D01*
X0167650Y0027567D01*
X0167650Y0028802D01*
X0167033Y0029419D01*
X0165798Y0029419D01*
X0165798Y0028184D01*
X0157650Y0027567D02*
X0157033Y0026950D01*
X0157650Y0027567D02*
X0157650Y0028802D01*
X0157033Y0029419D01*
X0155798Y0029419D01*
X0155181Y0028802D01*
X0155181Y0028184D01*
X0155798Y0026950D01*
X0153947Y0026950D01*
X0153947Y0029419D01*
X0153947Y0030633D02*
X0156416Y0030633D01*
X0157650Y0031868D01*
X0156416Y0033102D01*
X0153947Y0033102D01*
X0154564Y0034316D02*
X0153947Y0034933D01*
X0153947Y0036168D01*
X0154564Y0036785D01*
X0157033Y0034316D01*
X0157650Y0034933D01*
X0157650Y0036168D01*
X0157033Y0036785D01*
X0154564Y0036785D01*
X0154564Y0034316D02*
X0157033Y0034316D01*
X0147650Y0034933D02*
X0147033Y0034316D01*
X0147650Y0034933D02*
X0147650Y0036168D01*
X0147033Y0036785D01*
X0146416Y0036785D01*
X0145798Y0036168D01*
X0145798Y0035551D01*
X0145798Y0036168D02*
X0145181Y0036785D01*
X0144564Y0036785D01*
X0143947Y0036168D01*
X0143947Y0034933D01*
X0144564Y0034316D01*
X0143947Y0033102D02*
X0146416Y0033102D01*
X0147650Y0031868D01*
X0146416Y0030633D01*
X0143947Y0030633D01*
X0144564Y0029419D02*
X0145181Y0029419D01*
X0145798Y0028802D01*
X0146416Y0029419D01*
X0147033Y0029419D01*
X0147650Y0028802D01*
X0147650Y0027567D01*
X0147033Y0026950D01*
X0145798Y0028184D02*
X0145798Y0028802D01*
X0144564Y0029419D02*
X0143947Y0028802D01*
X0143947Y0027567D01*
X0144564Y0026950D01*
X0137650Y0026950D02*
X0133947Y0026950D01*
X0133947Y0028802D01*
X0134564Y0029419D01*
X0135798Y0029419D01*
X0136416Y0028802D01*
X0136416Y0026950D01*
X0136416Y0028184D02*
X0137650Y0029419D01*
X0137650Y0030633D02*
X0137650Y0033102D01*
X0137033Y0034316D02*
X0137650Y0034933D01*
X0137650Y0036168D01*
X0137033Y0036785D01*
X0136416Y0036785D01*
X0135798Y0036168D01*
X0135798Y0034933D01*
X0135181Y0034316D01*
X0134564Y0034316D01*
X0133947Y0034933D01*
X0133947Y0036168D01*
X0134564Y0036785D01*
X0133947Y0037999D02*
X0137650Y0037999D01*
X0137650Y0040468D01*
X0135798Y0039234D02*
X0135798Y0037999D01*
X0133947Y0037999D02*
X0133947Y0040468D01*
X0133947Y0041683D02*
X0133947Y0044151D01*
X0133947Y0042917D02*
X0137650Y0042917D01*
X0133947Y0033102D02*
X0133947Y0030633D01*
X0137650Y0030633D01*
X0135798Y0030633D02*
X0135798Y0031868D01*
X0253947Y0063868D02*
X0255181Y0062633D01*
X0255798Y0061419D02*
X0255798Y0058950D01*
X0255181Y0066316D02*
X0253947Y0067551D01*
X0257650Y0067551D01*
X0257650Y0068785D02*
X0257650Y0066316D01*
D15*
X0243089Y0056837D02*
X0242322Y0057604D01*
X0240787Y0057604D01*
X0240020Y0056837D01*
X0240020Y0053767D01*
X0240787Y0053000D01*
X0242322Y0053000D01*
X0243089Y0053767D01*
X0243089Y0055302D01*
X0241554Y0055302D01*
X0238485Y0056837D02*
X0237718Y0057604D01*
X0236183Y0057604D01*
X0235416Y0056837D01*
X0235416Y0053767D01*
X0236183Y0053000D01*
X0237718Y0053000D01*
X0238485Y0053767D01*
X0238485Y0056837D01*
X0233881Y0053000D02*
X0230812Y0053000D01*
X0230812Y0057604D01*
X0229277Y0056069D02*
X0229277Y0053000D01*
X0229277Y0055302D02*
X0226208Y0055302D01*
X0226208Y0056069D02*
X0226208Y0053000D01*
X0224673Y0053000D02*
X0224673Y0057604D01*
X0226208Y0056069D02*
X0227742Y0057604D01*
X0229277Y0056069D01*
X0224673Y0053000D02*
X0221604Y0057604D01*
X0221604Y0053000D01*
X0220069Y0053000D02*
X0220069Y0056069D01*
X0218535Y0057604D01*
X0217000Y0056069D01*
X0217000Y0053000D01*
X0217000Y0055302D02*
X0220069Y0055302D01*
X0173485Y0042837D02*
X0173485Y0041302D01*
X0172718Y0040535D01*
X0170416Y0040535D01*
X0171950Y0040535D02*
X0173485Y0039000D01*
X0170416Y0039000D02*
X0170416Y0043604D01*
X0172718Y0043604D01*
X0173485Y0042837D01*
X0168881Y0043604D02*
X0165812Y0043604D01*
X0165812Y0039000D01*
X0168881Y0039000D01*
X0167346Y0041302D02*
X0165812Y0041302D01*
X0164277Y0039000D02*
X0164277Y0043604D01*
X0162742Y0040535D02*
X0164277Y0039000D01*
X0162742Y0040535D02*
X0161208Y0039000D01*
X0161208Y0043604D01*
X0159673Y0042837D02*
X0158906Y0043604D01*
X0157371Y0043604D01*
X0156604Y0042837D01*
X0156604Y0039767D01*
X0157371Y0039000D01*
X0158906Y0039000D01*
X0159673Y0039767D01*
X0159673Y0042837D01*
X0155069Y0042837D02*
X0155069Y0041302D01*
X0154302Y0040535D01*
X0152000Y0040535D01*
X0152000Y0039000D02*
X0152000Y0043604D01*
X0154302Y0043604D01*
X0155069Y0042837D01*
D16*
X0186603Y0068044D02*
X0186603Y0073556D01*
X0191524Y0070800D01*
X0186603Y0068044D01*
X0186603Y0128044D02*
X0186603Y0133556D01*
X0191524Y0130800D01*
X0186603Y0128044D01*
D17*
X0191721Y0130800D03*
X0191721Y0070800D03*
D18*
X0164507Y0048585D03*
X0159093Y0048585D03*
X0149507Y0048585D03*
X0144093Y0048585D03*
X0134507Y0048585D03*
X0129093Y0048585D03*
D19*
X0131800Y0050111D03*
X0146800Y0050111D03*
X0161800Y0050111D03*
X0107489Y0165800D03*
D20*
X0109015Y0163093D03*
X0109015Y0168507D03*
M02*
