%
M48
M72
T01C0.02362
T02C0.03150
T03C0.03543
T04C0.04400
T05C0.06693
T06C0.07087
%
T01
X116800Y115800
X116800Y125800
X106800Y150800
T02
X110800Y200800
X110800Y210800
X100800Y210800
X100800Y200800
X120800Y200800
X130800Y200800
X130800Y210800
X120800Y210800
X140800Y210800
X140800Y200800
X150800Y200800
X160800Y200800
X160800Y210800
X150800Y210800
X170800Y210800
X170800Y200800
X186800Y200800
X196800Y200800
X196800Y210800
X186800Y210800
X206800Y210800
X206800Y200800
X216800Y200800
X226800Y200800
X226800Y210800
X216800Y210800
X236800Y210800
X236800Y200800
X246800Y200800
X256800Y200800
X256800Y210800
X246800Y210800
X211800Y162217
X211800Y156509
X211800Y150800
X211800Y145091
X211800Y139383
X211800Y107217
X211800Y101509
X211800Y95800
X211800Y90091
X211800Y84383
X206800Y30800
X216800Y30800
X226800Y30800
X236800Y30800
X246800Y30800
X256800Y30800
X256800Y20800
X246800Y20800
X236800Y20800
X226800Y20800
X216800Y20800
X206800Y20800
X186800Y20800
X176800Y20800
X166800Y20800
X156800Y20800
X146800Y20800
X136800Y20800
T03
X171957Y100800
X191643Y100800
X191643Y155800
X171957Y155800
T04
X21800Y15800
X41800Y15800
X41800Y35800
X21800Y35800
X71800Y35800
X91800Y35800
X91800Y15800
X71800Y15800
T05
X75186Y65800
X90776Y65800
X59595Y65800
X44005Y65800
X28414Y65800
X12824Y65800
X12824Y105800
X28414Y105800
X44005Y105800
X59595Y105800
X75186Y105800
X90776Y105800
T06
X71800Y150564
X26800Y150564
X26800Y210800
X71800Y210800
M30
