%
M48
M72
T01C0.02756
T02C0.03150
T03C0.03200
T04C0.03937
T05C0.04000
T06C0.06693
T07C0.11811
%
T01
X73941Y120700
X148862Y115779
X148941Y124795
T02
X91500Y142393
X81500Y142393
X71500Y142393
X61500Y142393
X51500Y142393
X51500Y152393
X61500Y152393
X71500Y152393
X81500Y152393
X91500Y152393
X11500Y112393
X11500Y102393
X11500Y92393
X11500Y82393
X11500Y72393
X11500Y62393
T03
X191500Y62393
X191500Y82393
T04
X167287Y84165
X167287Y70779
X167287Y57393
X167287Y44008
X167287Y30622
X147287Y37315
X147287Y50700
X147287Y64086
X147287Y77472
X147287Y90858
X151500Y147393
X171500Y147393
X147287Y23929
T05
X201500Y97393
X201500Y117393
T06
X125476Y67393
X109886Y67393
X94295Y67393
X78705Y67393
X63114Y67393
X47524Y67393
X47524Y27393
X63114Y27393
X78705Y27393
X94295Y27393
X109886Y27393
X125476Y27393
T07
X11500Y37393
X11500Y137393
X201500Y137393
X201500Y37393
M30
