G75*
%MOIN*%
%OFA0B0*%
%FSLAX25Y25*%
%IPPOS*%
%LPD*%
%AMOC8*
5,1,8,0,0,1.08239X$1,22.5*
%
%ADD10R,0.04331X0.03937*%
%ADD11R,0.06299X0.05118*%
%ADD12R,0.01772X0.02323*%
%ADD13R,0.05906X0.05906*%
%ADD14R,0.03937X0.04331*%
%ADD15R,0.06890X0.01772*%
%ADD16OC8,0.10000*%
%ADD17R,0.05150X0.05150*%
%ADD18OC8,0.05150*%
%ADD19C,0.05150*%
%ADD20R,0.03150X0.03543*%
%ADD21R,0.10000X0.10000*%
%ADD22R,0.12000X0.12000*%
%ADD23R,0.10039X0.10039*%
%ADD24C,0.10000*%
%ADD25OC8,0.05200*%
%ADD26R,0.05118X0.06299*%
%ADD27C,0.01600*%
%ADD28C,0.01000*%
%ADD29C,0.04356*%
D10*
X0066972Y0091527D03*
X0073665Y0091527D03*
X0073744Y0103614D03*
X0067051Y0103614D03*
X0116500Y0141547D03*
X0116500Y0148240D03*
X0126500Y0148240D03*
X0126500Y0141547D03*
X0136500Y0141547D03*
X0136500Y0148240D03*
X0161500Y0120740D03*
X0161500Y0114047D03*
X0176500Y0114047D03*
X0176500Y0120740D03*
X0164846Y0097393D03*
X0158154Y0097393D03*
X0185594Y0033102D03*
X0185594Y0026409D03*
X0164846Y0017393D03*
X0158154Y0017393D03*
D11*
X0141500Y0113456D03*
X0141500Y0121330D03*
D12*
X0136500Y0128240D03*
X0136500Y0136547D03*
X0126500Y0136547D03*
X0126500Y0128240D03*
X0116500Y0128240D03*
X0116500Y0136547D03*
D13*
X0063390Y0117393D03*
X0049610Y0117393D03*
X0053390Y0097393D03*
X0039610Y0097393D03*
D14*
X0039453Y0105307D03*
X0046146Y0105307D03*
X0042957Y0117393D03*
X0036264Y0117393D03*
X0019846Y0122393D03*
X0013154Y0122393D03*
D15*
X0097327Y0115189D03*
X0097327Y0112630D03*
X0097327Y0110071D03*
X0097327Y0107511D03*
X0097327Y0104952D03*
X0097327Y0102393D03*
X0097327Y0099834D03*
X0097327Y0097275D03*
X0097327Y0094716D03*
X0097327Y0092157D03*
X0125673Y0092157D03*
X0125673Y0094716D03*
X0125673Y0097275D03*
X0125673Y0099834D03*
X0125673Y0102393D03*
X0125673Y0104952D03*
X0125673Y0107511D03*
X0125673Y0110071D03*
X0125673Y0112630D03*
X0125673Y0115189D03*
D16*
X0147287Y0090858D03*
X0147287Y0077472D03*
X0147287Y0064086D03*
X0147287Y0050700D03*
X0147287Y0037315D03*
X0147287Y0023929D03*
X0167287Y0030622D03*
X0167287Y0044008D03*
X0167287Y0057393D03*
X0167287Y0070779D03*
X0167287Y0084165D03*
X0201500Y0117393D03*
D17*
X0051500Y0142393D03*
X0011500Y0112393D03*
D18*
X0051500Y0152393D03*
X0061500Y0152393D03*
X0061500Y0142393D03*
X0071500Y0142393D03*
X0081500Y0142393D03*
X0091500Y0142393D03*
X0091500Y0152393D03*
X0081500Y0152393D03*
X0071500Y0152393D03*
D19*
X0011500Y0102393D03*
X0011500Y0092393D03*
X0011500Y0082393D03*
X0011500Y0072393D03*
X0011500Y0062393D03*
D20*
G36*
X0078824Y0098631D02*
X0081372Y0096780D01*
X0079290Y0093915D01*
X0076742Y0095766D01*
X0078824Y0098631D01*
G37*
G36*
X0082526Y0103727D02*
X0085074Y0101876D01*
X0082992Y0099011D01*
X0080444Y0100862D01*
X0082526Y0103727D01*
G37*
G36*
X0086348Y0100950D02*
X0088896Y0099099D01*
X0086814Y0096234D01*
X0084266Y0098085D01*
X0086348Y0100950D01*
G37*
G36*
X0082646Y0095854D02*
X0085194Y0094003D01*
X0083112Y0091138D01*
X0080564Y0092989D01*
X0082646Y0095854D01*
G37*
D21*
X0151500Y0147393D03*
X0171500Y0147393D03*
D22*
X0047524Y0067393D03*
X0047524Y0027393D03*
D23*
X0063114Y0027393D03*
X0078705Y0027393D03*
X0094295Y0027393D03*
X0109886Y0027393D03*
X0125476Y0027393D03*
X0125476Y0067393D03*
X0109886Y0067393D03*
X0094295Y0067393D03*
X0078705Y0067393D03*
X0063114Y0067393D03*
D24*
X0201500Y0097393D03*
D25*
X0191500Y0082393D03*
X0191500Y0062393D03*
D26*
X0095437Y0122393D03*
X0087563Y0122393D03*
D27*
X0083390Y0112393D02*
X0093390Y0102393D01*
X0097327Y0102393D01*
X0097327Y0094716D02*
X0097169Y0094559D01*
X0092720Y0094559D01*
X0092130Y0093968D01*
X0092130Y0087078D01*
X0087445Y0082393D01*
X0061500Y0082393D01*
X0053390Y0090504D01*
X0053390Y0097393D01*
X0039610Y0097393D02*
X0039453Y0097551D01*
X0039453Y0105307D01*
X0036264Y0117393D02*
X0036264Y0122393D01*
X0073941Y0122393D01*
X0073941Y0120700D01*
X0066500Y0112393D02*
X0083390Y0112393D01*
X0066500Y0112393D02*
X0063390Y0115504D01*
X0063390Y0117393D01*
X0049610Y0117393D02*
X0042957Y0117393D01*
X0125673Y0117393D02*
X0125673Y0115189D01*
X0125673Y0117393D02*
X0136500Y0117393D01*
X0136500Y0121330D01*
X0141500Y0121330D01*
X0148941Y0121330D01*
X0148941Y0124795D01*
X0148862Y0115779D02*
X0148862Y0113456D01*
X0141500Y0113456D01*
X0141500Y0112630D01*
X0125673Y0112630D01*
X0147287Y0090858D02*
X0153823Y0097393D01*
X0158154Y0097393D01*
X0164846Y0097393D02*
X0167287Y0094952D01*
X0167287Y0084165D01*
X0167287Y0030622D02*
X0167287Y0019834D01*
X0164846Y0017393D01*
X0158154Y0017393D02*
X0153823Y0017393D01*
X0147287Y0023929D01*
D28*
X0026000Y0023288D02*
X0026000Y0014257D01*
X0028364Y0011893D01*
X0143359Y0011893D01*
X0137797Y0017455D01*
X0137797Y0017455D01*
X0137073Y0018179D01*
X0136681Y0019125D01*
X0136681Y0020150D01*
X0136720Y0020245D01*
X0136720Y0041331D01*
X0137112Y0042277D01*
X0137837Y0043001D01*
X0141026Y0046190D01*
X0141972Y0046582D01*
X0142213Y0046582D01*
X0140787Y0048008D01*
X0140787Y0053393D01*
X0144595Y0057200D01*
X0149980Y0057200D01*
X0153787Y0053393D01*
X0153787Y0048008D01*
X0152362Y0046582D01*
X0160787Y0046582D01*
X0160787Y0046700D01*
X0164595Y0050508D01*
X0169980Y0050508D01*
X0173787Y0046700D01*
X0173787Y0043322D01*
X0173925Y0043460D01*
X0173925Y0073776D01*
X0173704Y0073555D01*
X0173787Y0073472D01*
X0173787Y0068087D01*
X0169980Y0064279D01*
X0164595Y0064279D01*
X0160787Y0068087D01*
X0160787Y0073472D01*
X0164595Y0077279D01*
X0169980Y0077279D01*
X0170063Y0077196D01*
X0169980Y0077279D01*
X0164595Y0077279D01*
X0160787Y0073472D01*
X0160787Y0068087D01*
X0164595Y0064279D01*
X0169980Y0064279D01*
X0173787Y0068087D01*
X0173787Y0073472D01*
X0173704Y0073555D01*
X0173925Y0073776D01*
X0173925Y0043460D01*
X0173787Y0043322D01*
X0173787Y0046700D01*
X0169980Y0050508D01*
X0164595Y0050508D01*
X0160787Y0046700D01*
X0160787Y0046582D01*
X0152362Y0046582D01*
X0153787Y0048008D01*
X0153787Y0050216D01*
X0147772Y0050216D01*
X0147772Y0051185D01*
X0153787Y0051185D01*
X0153787Y0053393D01*
X0149980Y0057200D01*
X0147772Y0057200D01*
X0147772Y0051185D01*
X0146803Y0051185D01*
X0146803Y0057200D01*
X0144595Y0057200D01*
X0140787Y0053393D01*
X0140787Y0051185D01*
X0146803Y0051185D01*
X0146803Y0050216D01*
X0140787Y0050216D01*
X0140787Y0048008D01*
X0142213Y0046582D01*
X0141972Y0046582D01*
X0141026Y0046190D01*
X0137837Y0043001D01*
X0137112Y0042277D01*
X0136720Y0041331D01*
X0136720Y0020245D01*
X0136681Y0020150D01*
X0136681Y0019125D01*
X0137073Y0018179D01*
X0137797Y0017455D01*
X0142859Y0012393D01*
X0027864Y0012393D01*
X0026500Y0013757D01*
X0026500Y0073752D01*
X0027567Y0074819D01*
X0040828Y0074819D01*
X0040024Y0074015D01*
X0040024Y0060772D01*
X0040902Y0059893D01*
X0054145Y0059893D01*
X0055024Y0060772D01*
X0055024Y0074015D01*
X0054220Y0074819D01*
X0099611Y0074819D01*
X0100557Y0075211D01*
X0101281Y0075935D01*
X0108880Y0083533D01*
X0109272Y0084480D01*
X0109272Y0105937D01*
X0108880Y0106883D01*
X0108155Y0107608D01*
X0106775Y0108988D01*
X0108683Y0110895D01*
X0109075Y0111842D01*
X0109075Y0131327D01*
X0111720Y0133972D01*
X0114906Y0133972D01*
X0114993Y0133885D01*
X0118007Y0133885D01*
X0118059Y0133937D01*
X0118059Y0130849D01*
X0118007Y0130901D01*
X0114993Y0130901D01*
X0114114Y0130023D01*
X0114114Y0129208D01*
X0113925Y0128752D01*
X0113925Y0127728D01*
X0114114Y0127271D01*
X0114114Y0126457D01*
X0114993Y0125578D01*
X0118007Y0125578D01*
X0118094Y0125665D01*
X0119871Y0125665D01*
X0115356Y0121151D01*
X0114632Y0120427D01*
X0114240Y0119480D01*
X0114240Y0095543D01*
X0114632Y0094596D01*
X0118490Y0090738D01*
X0119215Y0090014D01*
X0120161Y0089622D01*
X0125066Y0089622D01*
X0125161Y0089582D01*
X0126185Y0089582D01*
X0126642Y0089771D01*
X0129739Y0089771D01*
X0130224Y0090256D01*
X0130224Y0084759D01*
X0125433Y0079968D01*
X0115988Y0079968D01*
X0115041Y0079576D01*
X0109378Y0073913D01*
X0104245Y0073913D01*
X0103366Y0073034D01*
X0103366Y0061752D01*
X0104245Y0060874D01*
X0107311Y0060874D01*
X0107311Y0033913D01*
X0104245Y0033913D01*
X0103366Y0033034D01*
X0103366Y0021752D01*
X0104245Y0020874D01*
X0115527Y0020874D01*
X0116405Y0021752D01*
X0116405Y0033034D01*
X0115527Y0033913D01*
X0112461Y0033913D01*
X0112461Y0060874D01*
X0115527Y0060874D01*
X0116405Y0061752D01*
X0116405Y0073034D01*
X0116094Y0073346D01*
X0117567Y0074819D01*
X0124142Y0074819D01*
X0123294Y0073970D01*
X0123270Y0073913D01*
X0119835Y0073913D01*
X0118957Y0073034D01*
X0118957Y0061752D01*
X0119835Y0060874D01*
X0122902Y0060874D01*
X0122902Y0033913D01*
X0119835Y0033913D01*
X0118957Y0033034D01*
X0118957Y0021752D01*
X0119835Y0020874D01*
X0131117Y0020874D01*
X0131996Y0021752D01*
X0131996Y0033034D01*
X0131117Y0033913D01*
X0128051Y0033913D01*
X0128051Y0060874D01*
X0131117Y0060874D01*
X0131996Y0061752D01*
X0131996Y0073034D01*
X0131117Y0073913D01*
X0130519Y0073913D01*
X0135682Y0079076D01*
X0135695Y0079045D01*
X0139451Y0075289D01*
X0140397Y0074897D01*
X0140787Y0074897D01*
X0140787Y0074780D01*
X0144595Y0070972D01*
X0149980Y0070972D01*
X0153787Y0074780D01*
X0153787Y0080164D01*
X0152322Y0081630D01*
X0152661Y0081630D01*
X0154831Y0079295D01*
X0154831Y0067948D01*
X0153724Y0066842D01*
X0149980Y0070586D01*
X0144595Y0070586D01*
X0140787Y0066779D01*
X0140787Y0061394D01*
X0144595Y0057586D01*
X0149980Y0057586D01*
X0153787Y0061394D01*
X0153787Y0061511D01*
X0155122Y0061511D01*
X0156069Y0061903D01*
X0156793Y0062628D01*
X0159588Y0065423D01*
X0159980Y0066369D01*
X0159980Y0080260D01*
X0159997Y0080724D01*
X0159980Y0080770D01*
X0159980Y0080819D01*
X0159802Y0081248D01*
X0159640Y0081684D01*
X0159607Y0081720D01*
X0159588Y0081765D01*
X0159260Y0082094D01*
X0155985Y0085618D01*
X0155966Y0085663D01*
X0155637Y0085992D01*
X0155321Y0086332D01*
X0155277Y0086353D01*
X0155242Y0086387D01*
X0154812Y0086565D01*
X0154390Y0086759D01*
X0154341Y0086760D01*
X0154296Y0086779D01*
X0153831Y0086779D01*
X0153366Y0086796D01*
X0153320Y0086779D01*
X0152401Y0086779D01*
X0153787Y0088166D01*
X0153787Y0093292D01*
X0154893Y0094398D01*
X0155367Y0093925D01*
X0160940Y0093925D01*
X0161500Y0094485D01*
X0162060Y0093925D01*
X0164249Y0093925D01*
X0164413Y0093762D01*
X0164413Y0090483D01*
X0160787Y0086857D01*
X0160787Y0081473D01*
X0164595Y0077665D01*
X0169980Y0077665D01*
X0171642Y0079327D01*
X0171642Y0078775D01*
X0170063Y0077196D01*
X0171642Y0078775D01*
X0171642Y0079327D01*
X0169980Y0077665D01*
X0164595Y0077665D01*
X0160787Y0081473D01*
X0160787Y0086857D01*
X0164413Y0090483D01*
X0164413Y0093762D01*
X0164249Y0093925D01*
X0162060Y0093925D01*
X0161500Y0094485D01*
X0160940Y0093925D01*
X0155367Y0093925D01*
X0154893Y0094398D01*
X0153787Y0093292D01*
X0153787Y0088166D01*
X0152401Y0086779D01*
X0153320Y0086779D01*
X0153366Y0086796D01*
X0153831Y0086779D01*
X0154296Y0086779D01*
X0154341Y0086760D01*
X0154390Y0086759D01*
X0154812Y0086565D01*
X0155242Y0086387D01*
X0155277Y0086353D01*
X0155321Y0086332D01*
X0155637Y0085992D01*
X0155966Y0085663D01*
X0155985Y0085618D01*
X0159260Y0082094D01*
X0159588Y0081765D01*
X0159607Y0081720D01*
X0159640Y0081684D01*
X0159802Y0081248D01*
X0159980Y0080819D01*
X0159980Y0080770D01*
X0159997Y0080724D01*
X0159980Y0080260D01*
X0159980Y0066369D01*
X0159588Y0065423D01*
X0156793Y0062628D01*
X0156069Y0061903D01*
X0155122Y0061511D01*
X0153787Y0061511D01*
X0153787Y0061394D01*
X0149980Y0057586D01*
X0144595Y0057586D01*
X0140787Y0061394D01*
X0140787Y0066779D01*
X0144595Y0070586D01*
X0149980Y0070586D01*
X0153724Y0066842D01*
X0154831Y0067948D01*
X0154831Y0079295D01*
X0152661Y0081630D01*
X0152322Y0081630D01*
X0153787Y0080164D01*
X0153787Y0074780D01*
X0149980Y0070972D01*
X0144595Y0070972D01*
X0140787Y0074780D01*
X0140787Y0074897D01*
X0140397Y0074897D01*
X0139451Y0075289D01*
X0135695Y0079045D01*
X0135682Y0079076D01*
X0130519Y0073913D01*
X0131117Y0073913D01*
X0131996Y0073034D01*
X0131996Y0061752D01*
X0131117Y0060874D01*
X0128051Y0060874D01*
X0128051Y0033913D01*
X0131117Y0033913D01*
X0131996Y0033034D01*
X0131996Y0021752D01*
X0131117Y0020874D01*
X0119835Y0020874D01*
X0118957Y0021752D01*
X0118957Y0033034D01*
X0119835Y0033913D01*
X0122902Y0033913D01*
X0122902Y0060874D01*
X0119835Y0060874D01*
X0118957Y0061752D01*
X0118957Y0073034D01*
X0119835Y0073913D01*
X0123270Y0073913D01*
X0123294Y0073970D01*
X0124142Y0074819D01*
X0117567Y0074819D01*
X0116094Y0073346D01*
X0116405Y0073034D01*
X0116405Y0061752D01*
X0115527Y0060874D01*
X0112461Y0060874D01*
X0112461Y0033913D01*
X0115527Y0033913D01*
X0116405Y0033034D01*
X0116405Y0021752D01*
X0115527Y0020874D01*
X0104245Y0020874D01*
X0103366Y0021752D01*
X0103366Y0033034D01*
X0104245Y0033913D01*
X0107311Y0033913D01*
X0107311Y0060874D01*
X0104245Y0060874D01*
X0103366Y0061752D01*
X0103366Y0073034D01*
X0104245Y0073913D01*
X0109378Y0073913D01*
X0115041Y0079576D01*
X0115988Y0079968D01*
X0125433Y0079968D01*
X0130224Y0084759D01*
X0130224Y0090256D01*
X0129739Y0089771D01*
X0126642Y0089771D01*
X0126185Y0089582D01*
X0125161Y0089582D01*
X0125066Y0089622D01*
X0120161Y0089622D01*
X0119215Y0090014D01*
X0118490Y0090738D01*
X0114632Y0094596D01*
X0114240Y0095543D01*
X0114240Y0119480D01*
X0114632Y0120427D01*
X0115356Y0121151D01*
X0120028Y0125822D01*
X0120028Y0135819D01*
X0120420Y0136765D01*
X0121144Y0137490D01*
X0122835Y0139180D01*
X0122835Y0143669D01*
X0121935Y0142770D01*
X0120989Y0142378D01*
X0120165Y0142378D01*
X0120165Y0138957D01*
X0119287Y0138078D01*
X0119075Y0138078D01*
X0119075Y0136035D01*
X0118886Y0135579D01*
X0118886Y0134764D01*
X0118007Y0133885D01*
X0114993Y0133885D01*
X0114906Y0133972D01*
X0111720Y0133972D01*
X0109075Y0131327D01*
X0109075Y0111842D01*
X0108683Y0110895D01*
X0106775Y0108988D01*
X0108155Y0107608D01*
X0108155Y0107608D01*
X0108880Y0106883D01*
X0109272Y0105937D01*
X0109272Y0084480D01*
X0108880Y0083533D01*
X0101281Y0075935D01*
X0100557Y0075211D01*
X0099611Y0074819D01*
X0054220Y0074819D01*
X0055024Y0074015D01*
X0055024Y0060772D01*
X0054145Y0059893D01*
X0040902Y0059893D01*
X0040024Y0060772D01*
X0040024Y0074015D01*
X0040828Y0074819D01*
X0027567Y0074819D01*
X0018683Y0065935D01*
X0017959Y0065211D01*
X0017012Y0064819D01*
X0014837Y0064819D01*
X0014954Y0064702D01*
X0015575Y0063204D01*
X0015575Y0061583D01*
X0014954Y0060085D01*
X0013808Y0058939D01*
X0012311Y0058319D01*
X0010689Y0058319D01*
X0009192Y0058939D01*
X0008046Y0060085D01*
X0007425Y0061583D01*
X0007425Y0063204D01*
X0008046Y0064702D01*
X0008153Y0064809D01*
X0007907Y0064819D01*
X0007445Y0064819D01*
X0007397Y0064838D01*
X0007346Y0064840D01*
X0006926Y0065033D01*
X0006498Y0065211D01*
X0006462Y0065247D01*
X0006415Y0065268D01*
X0006101Y0065608D01*
X0006000Y0065709D01*
X0006000Y0046233D01*
X0007484Y0047090D01*
X0010130Y0047799D01*
X0012870Y0047799D01*
X0015516Y0047090D01*
X0017889Y0045720D01*
X0019826Y0043782D01*
X0021196Y0041410D01*
X0021905Y0038763D01*
X0021905Y0036023D01*
X0021196Y0033377D01*
X0019826Y0031004D01*
X0019540Y0030718D01*
X0024049Y0026208D01*
X0025315Y0024942D01*
X0026000Y0023288D01*
X0025966Y0023370D02*
X0040024Y0023370D01*
X0026500Y0023370D01*
X0026500Y0024368D02*
X0040024Y0024368D01*
X0025553Y0024368D01*
X0024891Y0025367D02*
X0040024Y0025367D01*
X0026500Y0025367D01*
X0026500Y0026365D02*
X0040024Y0026365D01*
X0023892Y0026365D01*
X0022894Y0027364D02*
X0040024Y0027364D01*
X0026500Y0027364D01*
X0026500Y0028362D02*
X0040024Y0028362D01*
X0021895Y0028362D01*
X0020897Y0029361D02*
X0040024Y0029361D01*
X0026500Y0029361D01*
X0026500Y0030359D02*
X0040024Y0030359D01*
X0019898Y0030359D01*
X0020031Y0031358D02*
X0040024Y0031358D01*
X0026500Y0031358D01*
X0026500Y0032356D02*
X0040024Y0032356D01*
X0020607Y0032356D01*
X0021183Y0033355D02*
X0040024Y0033355D01*
X0026500Y0033355D01*
X0026500Y0034353D02*
X0040362Y0034353D01*
X0021458Y0034353D01*
X0021725Y0035352D02*
X0107311Y0035352D01*
X0026500Y0035352D01*
X0026500Y0036350D02*
X0107311Y0036350D01*
X0021905Y0036350D01*
X0021905Y0037349D02*
X0107311Y0037349D01*
X0026500Y0037349D01*
X0026500Y0038347D02*
X0107311Y0038347D01*
X0021905Y0038347D01*
X0021749Y0039346D02*
X0107311Y0039346D01*
X0026500Y0039346D01*
X0026500Y0040344D02*
X0107311Y0040344D01*
X0021482Y0040344D01*
X0021214Y0041343D02*
X0107311Y0041343D01*
X0026500Y0041343D01*
X0026500Y0042341D02*
X0107311Y0042341D01*
X0020659Y0042341D01*
X0020082Y0043340D02*
X0107311Y0043340D01*
X0026500Y0043340D01*
X0026500Y0044338D02*
X0107311Y0044338D01*
X0019271Y0044338D01*
X0018272Y0045337D02*
X0107311Y0045337D01*
X0026500Y0045337D01*
X0026500Y0046335D02*
X0107311Y0046335D01*
X0016823Y0046335D01*
X0014605Y0047334D02*
X0107311Y0047334D01*
X0026500Y0047334D01*
X0026500Y0048332D02*
X0107311Y0048332D01*
X0006000Y0048332D01*
X0006000Y0047334D02*
X0008395Y0047334D01*
X0006177Y0046335D02*
X0006000Y0046335D01*
X0006000Y0049331D02*
X0107311Y0049331D01*
X0026500Y0049331D01*
X0026500Y0050329D02*
X0107311Y0050329D01*
X0006000Y0050329D01*
X0006000Y0051328D02*
X0107311Y0051328D01*
X0026500Y0051328D01*
X0026500Y0052326D02*
X0107311Y0052326D01*
X0006000Y0052326D01*
X0006000Y0053325D02*
X0107311Y0053325D01*
X0026500Y0053325D01*
X0026500Y0054323D02*
X0107311Y0054323D01*
X0006000Y0054323D01*
X0006000Y0055322D02*
X0107311Y0055322D01*
X0026500Y0055322D01*
X0026500Y0056320D02*
X0107311Y0056320D01*
X0006000Y0056320D01*
X0006000Y0057319D02*
X0107311Y0057319D01*
X0026500Y0057319D01*
X0026500Y0058317D02*
X0107311Y0058317D01*
X0006000Y0058317D01*
X0006000Y0059316D02*
X0008815Y0059316D01*
X0007951Y0060314D02*
X0006000Y0060314D01*
X0006000Y0061313D02*
X0007537Y0061313D01*
X0007425Y0062311D02*
X0006000Y0062311D01*
X0006000Y0063310D02*
X0007469Y0063310D01*
X0007883Y0064309D02*
X0006000Y0064309D01*
X0006000Y0065307D02*
X0006379Y0065307D01*
X0007957Y0067393D02*
X0016500Y0067393D01*
X0026500Y0077393D01*
X0099098Y0077393D01*
X0106697Y0084992D01*
X0106697Y0105425D01*
X0104610Y0107511D01*
X0097327Y0107511D01*
X0097327Y0104952D02*
X0101815Y0104952D01*
X0103823Y0102945D01*
X0103823Y0088102D01*
X0095437Y0079716D01*
X0018823Y0079716D01*
X0011500Y0072393D01*
X0008636Y0075292D02*
X0008563Y0075292D01*
X0008563Y0075219D02*
X0008563Y0075747D01*
X0011098Y0078319D01*
X0012311Y0078319D01*
X0013808Y0078939D01*
X0014954Y0080085D01*
X0015575Y0081583D01*
X0015575Y0083204D01*
X0014954Y0084702D01*
X0013808Y0085848D01*
X0012311Y0086468D01*
X0010689Y0086468D01*
X0009192Y0085848D01*
X0008046Y0084702D01*
X0007425Y0083204D01*
X0007425Y0081928D01*
X0006000Y0080482D01*
X0006000Y0128554D01*
X0007484Y0127697D01*
X0010130Y0126988D01*
X0012870Y0126988D01*
X0014559Y0127441D01*
X0013178Y0126059D01*
X0010564Y0126059D01*
X0009685Y0125180D01*
X0009685Y0122566D01*
X0009317Y0122198D01*
X0008925Y0121252D01*
X0008925Y0116468D01*
X0008304Y0116468D01*
X0007425Y0115589D01*
X0007425Y0109197D01*
X0008304Y0108319D01*
X0013784Y0108319D01*
X0011933Y0106468D01*
X0010689Y0106468D01*
X0009192Y0105848D01*
X0008046Y0104702D01*
X0007425Y0103204D01*
X0007425Y0101583D01*
X0008046Y0100085D01*
X0009192Y0098939D01*
X0010689Y0098319D01*
X0012311Y0098319D01*
X0013808Y0098939D01*
X0014954Y0100085D01*
X0015575Y0101583D01*
X0015575Y0102827D01*
X0022029Y0109281D01*
X0022421Y0110228D01*
X0022421Y0118728D01*
X0022436Y0118728D01*
X0023315Y0119607D01*
X0023315Y0124819D01*
X0075433Y0124819D01*
X0078925Y0121327D01*
X0078925Y0116881D01*
X0079317Y0115935D01*
X0079984Y0115268D01*
X0067843Y0115268D01*
X0067843Y0119519D01*
X0070666Y0119519D01*
X0070992Y0118730D01*
X0071971Y0117752D01*
X0073249Y0117223D01*
X0074633Y0117223D01*
X0075911Y0117752D01*
X0076889Y0118730D01*
X0077419Y0120009D01*
X0077419Y0121392D01*
X0076889Y0122671D01*
X0076816Y0122744D01*
X0076816Y0122965D01*
X0076483Y0123769D01*
X0078925Y0121327D01*
X0078925Y0116881D01*
X0079317Y0115935D01*
X0079984Y0115268D01*
X0067843Y0115268D01*
X0067843Y0120967D01*
X0066964Y0121846D01*
X0059816Y0121846D01*
X0058937Y0120967D01*
X0058937Y0113819D01*
X0059816Y0112941D01*
X0061887Y0112941D01*
X0064063Y0110765D01*
X0064872Y0109956D01*
X0065928Y0109519D01*
X0082199Y0109519D01*
X0086117Y0105600D01*
X0086109Y0105596D01*
X0083839Y0104628D01*
X0082905Y0105307D01*
X0082523Y0105246D01*
X0081973Y0105797D01*
X0081027Y0106189D01*
X0077409Y0106189D01*
X0077409Y0106204D01*
X0076531Y0107082D01*
X0070957Y0107082D01*
X0070398Y0106523D01*
X0069838Y0107082D01*
X0064264Y0107082D01*
X0063386Y0106204D01*
X0063386Y0101024D01*
X0064264Y0100145D01*
X0064398Y0100145D01*
X0064398Y0094996D01*
X0064186Y0094996D01*
X0063307Y0094117D01*
X0063307Y0088937D01*
X0064186Y0088059D01*
X0069759Y0088059D01*
X0070319Y0088619D01*
X0070879Y0088059D01*
X0076452Y0088059D01*
X0077331Y0088937D01*
X0077331Y0088952D01*
X0081422Y0088952D01*
X0082368Y0089344D01*
X0082645Y0089622D01*
X0082732Y0089559D01*
X0083960Y0089753D01*
X0084279Y0090192D01*
X0085138Y0089763D01*
X0085359Y0089596D01*
X0085592Y0089536D01*
X0085806Y0089428D01*
X0086083Y0089409D01*
X0086351Y0089339D01*
X0086589Y0089373D01*
X0086828Y0089356D01*
X0087091Y0089443D01*
X0087365Y0089482D01*
X0087572Y0089604D01*
X0087800Y0089679D01*
X0088009Y0089861D01*
X0088248Y0090002D01*
X0088392Y0090193D01*
X0088574Y0090350D01*
X0088698Y0090598D01*
X0089255Y0091338D01*
X0089255Y0088269D01*
X0086254Y0085268D01*
X0062691Y0085268D01*
X0056265Y0091694D01*
X0056265Y0092941D01*
X0056964Y0092941D01*
X0057843Y0093819D01*
X0057843Y0100967D01*
X0056964Y0101846D01*
X0049816Y0101846D01*
X0048937Y0100967D01*
X0048937Y0093819D01*
X0049816Y0092941D01*
X0050515Y0092941D01*
X0050515Y0089932D01*
X0050953Y0088875D01*
X0051761Y0088066D01*
X0057537Y0082291D01*
X0026500Y0082291D01*
X0026500Y0124819D01*
X0034623Y0124819D01*
X0033827Y0124022D01*
X0033389Y0122965D01*
X0033389Y0120774D01*
X0032795Y0120180D01*
X0032795Y0114607D01*
X0033674Y0113728D01*
X0038854Y0113728D01*
X0039610Y0114485D01*
X0040367Y0113728D01*
X0045249Y0113728D01*
X0046036Y0112941D01*
X0053184Y0112941D01*
X0054063Y0113819D01*
X0054063Y0119519D01*
X0058937Y0119519D01*
X0058937Y0113819D01*
X0059816Y0112941D01*
X0061887Y0112941D01*
X0064063Y0110765D01*
X0064872Y0109956D01*
X0065928Y0109519D01*
X0082199Y0109519D01*
X0086117Y0105600D01*
X0086109Y0105596D01*
X0083839Y0104628D01*
X0082905Y0105307D01*
X0082523Y0105246D01*
X0081973Y0105797D01*
X0081027Y0106189D01*
X0077409Y0106189D01*
X0077409Y0106204D01*
X0076531Y0107082D01*
X0070957Y0107082D01*
X0070398Y0106523D01*
X0070138Y0106783D01*
X0069796Y0106980D01*
X0069414Y0107082D01*
X0067535Y0107082D01*
X0067535Y0104098D01*
X0066567Y0104098D01*
X0066567Y0103130D01*
X0063386Y0103130D01*
X0063386Y0101448D01*
X0063488Y0101066D01*
X0063686Y0100724D01*
X0063965Y0100445D01*
X0064307Y0100248D01*
X0064688Y0100145D01*
X0066567Y0100145D01*
X0066567Y0103130D01*
X0067535Y0103130D01*
X0067535Y0100145D01*
X0069414Y0100145D01*
X0069796Y0100248D01*
X0070138Y0100445D01*
X0070398Y0100705D01*
X0070957Y0100145D01*
X0076531Y0100145D01*
X0077409Y0101024D01*
X0077409Y0101039D01*
X0078897Y0101039D01*
X0079032Y0100184D01*
X0077976Y0100016D01*
X0077883Y0099889D01*
X0069547Y0099889D01*
X0069547Y0100145D01*
X0069838Y0100145D01*
X0070398Y0100705D01*
X0070957Y0100145D01*
X0076531Y0100145D01*
X0077409Y0101024D01*
X0077409Y0101039D01*
X0078897Y0101039D01*
X0079043Y0100117D01*
X0078784Y0100144D01*
X0078394Y0100083D01*
X0078033Y0099922D01*
X0077726Y0099673D01*
X0076738Y0098313D01*
X0078993Y0096675D01*
X0078655Y0096210D01*
X0076400Y0097848D01*
X0075412Y0096487D01*
X0075270Y0096119D01*
X0075229Y0095726D01*
X0075291Y0095336D01*
X0075442Y0094996D01*
X0070879Y0094996D01*
X0070319Y0094436D01*
X0070623Y0094740D01*
X0070015Y0094740D01*
X0070319Y0094436D01*
X0070059Y0094696D01*
X0069717Y0094893D01*
X0069335Y0094996D01*
X0067457Y0094996D01*
X0067457Y0092012D01*
X0066488Y0092012D01*
X0066488Y0094996D01*
X0064610Y0094996D01*
X0064228Y0094893D01*
X0063886Y0094696D01*
X0063607Y0094417D01*
X0063409Y0094075D01*
X0063307Y0093693D01*
X0063307Y0092011D01*
X0066488Y0092011D01*
X0066488Y0091043D01*
X0063307Y0091043D01*
X0063307Y0089361D01*
X0063409Y0088980D01*
X0063607Y0088638D01*
X0063886Y0088358D01*
X0064228Y0088161D01*
X0064610Y0088059D01*
X0066488Y0088059D01*
X0066488Y0091043D01*
X0067457Y0091043D01*
X0067457Y0088059D01*
X0069335Y0088059D01*
X0069717Y0088161D01*
X0070059Y0088358D01*
X0070319Y0088619D01*
X0070879Y0088059D01*
X0076452Y0088059D01*
X0077331Y0088937D01*
X0077331Y0088952D01*
X0081422Y0088952D01*
X0082368Y0089344D01*
X0082645Y0089622D01*
X0082732Y0089559D01*
X0083960Y0089753D01*
X0084279Y0090192D01*
X0085138Y0089763D01*
X0085359Y0089596D01*
X0085592Y0089536D01*
X0085806Y0089428D01*
X0086083Y0089409D01*
X0086351Y0089339D01*
X0086589Y0089373D01*
X0086828Y0089356D01*
X0087091Y0089443D01*
X0087365Y0089482D01*
X0087572Y0089604D01*
X0087800Y0089679D01*
X0088009Y0089861D01*
X0088248Y0090002D01*
X0088392Y0090193D01*
X0088574Y0090350D01*
X0088698Y0090598D01*
X0089255Y0091338D01*
X0089255Y0088269D01*
X0086254Y0085268D01*
X0062691Y0085268D01*
X0056265Y0091694D01*
X0056265Y0092941D01*
X0056964Y0092941D01*
X0057843Y0093819D01*
X0057843Y0100967D01*
X0056964Y0101846D01*
X0049816Y0101846D01*
X0048937Y0100967D01*
X0048937Y0093819D01*
X0049816Y0092941D01*
X0050515Y0092941D01*
X0050515Y0089932D01*
X0050953Y0088875D01*
X0051761Y0088066D01*
X0057537Y0082291D01*
X0018311Y0082291D01*
X0017364Y0081899D01*
X0011933Y0076468D01*
X0010689Y0076468D01*
X0009192Y0075848D01*
X0008563Y0075219D01*
X0009099Y0076291D02*
X0010261Y0076291D01*
X0010083Y0077289D02*
X0012754Y0077289D01*
X0013753Y0078288D02*
X0011068Y0078288D01*
X0014155Y0079286D02*
X0014752Y0079286D01*
X0015037Y0080285D02*
X0015750Y0080285D01*
X0015451Y0081283D02*
X0016749Y0081283D01*
X0015575Y0082282D02*
X0018288Y0082282D01*
X0015543Y0083280D02*
X0056548Y0083280D01*
X0026500Y0083280D01*
X0026500Y0084279D02*
X0055549Y0084279D01*
X0015130Y0084279D01*
X0014379Y0085277D02*
X0054551Y0085277D01*
X0026500Y0085277D01*
X0026500Y0086276D02*
X0053552Y0086276D01*
X0012775Y0086276D01*
X0012454Y0088419D02*
X0013064Y0088617D01*
X0013636Y0088908D01*
X0014155Y0089285D01*
X0014608Y0089739D01*
X0014985Y0090258D01*
X0015276Y0090829D01*
X0015474Y0091439D01*
X0015575Y0092073D01*
X0015575Y0092106D01*
X0011787Y0092106D01*
X0011787Y0088319D01*
X0011821Y0088319D01*
X0012454Y0088419D01*
X0011787Y0089271D02*
X0011213Y0089271D01*
X0011213Y0088319D02*
X0011213Y0092106D01*
X0011787Y0092106D01*
X0011787Y0092681D01*
X0011213Y0092681D01*
X0011213Y0096468D01*
X0011179Y0096468D01*
X0010546Y0096368D01*
X0009936Y0096170D01*
X0009364Y0095878D01*
X0008845Y0095501D01*
X0008392Y0095048D01*
X0008015Y0094529D01*
X0007724Y0093958D01*
X0007526Y0093348D01*
X0007425Y0092714D01*
X0007425Y0092681D01*
X0011213Y0092681D01*
X0011213Y0092106D01*
X0007425Y0092106D01*
X0007425Y0092073D01*
X0007526Y0091439D01*
X0007724Y0090829D01*
X0008015Y0090258D01*
X0008392Y0089739D01*
X0008845Y0089285D01*
X0009364Y0088908D01*
X0009936Y0088617D01*
X0010546Y0088419D01*
X0011179Y0088319D01*
X0011213Y0088319D01*
X0011213Y0090270D02*
X0011787Y0090270D01*
X0011787Y0091268D02*
X0011213Y0091268D01*
X0011213Y0092267D02*
X0006000Y0092267D01*
X0006000Y0093265D02*
X0007513Y0093265D01*
X0007880Y0094264D02*
X0006000Y0094264D01*
X0006000Y0095262D02*
X0008606Y0095262D01*
X0010217Y0096261D02*
X0006000Y0096261D01*
X0006000Y0097259D02*
X0035157Y0097259D01*
X0026500Y0097259D01*
X0026500Y0096261D02*
X0035157Y0096261D01*
X0012783Y0096261D01*
X0013064Y0096170D02*
X0012454Y0096368D01*
X0011821Y0096468D01*
X0011787Y0096468D01*
X0011787Y0092681D01*
X0015575Y0092681D01*
X0015575Y0092714D01*
X0015474Y0093348D01*
X0015276Y0093958D01*
X0014985Y0094529D01*
X0014608Y0095048D01*
X0014155Y0095501D01*
X0013636Y0095878D01*
X0013064Y0096170D01*
X0011787Y0096261D02*
X0011213Y0096261D01*
X0011213Y0095262D02*
X0011787Y0095262D01*
X0011787Y0094264D02*
X0011213Y0094264D01*
X0011213Y0093265D02*
X0011787Y0093265D01*
X0011787Y0092267D02*
X0050515Y0092267D01*
X0026500Y0092267D01*
X0026500Y0093265D02*
X0035711Y0093265D01*
X0015487Y0093265D01*
X0015120Y0094264D02*
X0035157Y0094264D01*
X0026500Y0094264D01*
X0026500Y0095262D02*
X0035157Y0095262D01*
X0014394Y0095262D01*
X0014126Y0099256D02*
X0035157Y0099256D01*
X0026500Y0099256D01*
X0026500Y0098258D02*
X0035157Y0098258D01*
X0006000Y0098258D01*
X0006000Y0099256D02*
X0008874Y0099256D01*
X0007975Y0100255D02*
X0006000Y0100255D01*
X0006000Y0101253D02*
X0007562Y0101253D01*
X0007425Y0102252D02*
X0006000Y0102252D01*
X0006000Y0103250D02*
X0007444Y0103250D01*
X0007858Y0104249D02*
X0006000Y0104249D01*
X0006000Y0105247D02*
X0008591Y0105247D01*
X0010153Y0106246D02*
X0006000Y0106246D01*
X0006000Y0107245D02*
X0012710Y0107245D01*
X0013708Y0108243D02*
X0006000Y0108243D01*
X0006000Y0109242D02*
X0007425Y0109242D01*
X0007425Y0110240D02*
X0006000Y0110240D01*
X0006000Y0111239D02*
X0007425Y0111239D01*
X0007425Y0112237D02*
X0006000Y0112237D01*
X0006000Y0113236D02*
X0007425Y0113236D01*
X0007425Y0114234D02*
X0006000Y0114234D01*
X0006000Y0115233D02*
X0007425Y0115233D01*
X0008067Y0116231D02*
X0006000Y0116231D01*
X0006000Y0117230D02*
X0008925Y0117230D01*
X0008925Y0118228D02*
X0006000Y0118228D01*
X0006000Y0119227D02*
X0008925Y0119227D01*
X0008925Y0120225D02*
X0006000Y0120225D01*
X0006000Y0121224D02*
X0008925Y0121224D01*
X0009341Y0122222D02*
X0006000Y0122222D01*
X0006000Y0123221D02*
X0009685Y0123221D01*
X0009685Y0124219D02*
X0006000Y0124219D01*
X0006000Y0125218D02*
X0009723Y0125218D01*
X0009283Y0127215D02*
X0006000Y0127215D01*
X0006000Y0128213D02*
X0006589Y0128213D01*
X0006000Y0126216D02*
X0013335Y0126216D01*
X0013717Y0127215D02*
X0014334Y0127215D01*
X0018154Y0127393D02*
X0013154Y0122393D01*
X0011500Y0120740D01*
X0011500Y0112393D01*
X0019846Y0110740D02*
X0011500Y0102393D01*
X0015575Y0102252D02*
X0036252Y0102252D01*
X0026500Y0102252D01*
X0026500Y0103250D02*
X0035984Y0103250D01*
X0015998Y0103250D01*
X0016997Y0104249D02*
X0035984Y0104249D01*
X0026500Y0104249D01*
X0026500Y0105247D02*
X0035984Y0105247D01*
X0017995Y0105247D01*
X0018994Y0106246D02*
X0035984Y0106246D01*
X0026500Y0106246D01*
X0026500Y0107245D02*
X0035984Y0107245D01*
X0019992Y0107245D01*
X0020991Y0108243D02*
X0036134Y0108243D01*
X0026500Y0108243D01*
X0026500Y0109242D02*
X0082476Y0109242D01*
X0021989Y0109242D01*
X0022421Y0110240D02*
X0064588Y0110240D01*
X0026500Y0110240D01*
X0026500Y0111239D02*
X0063589Y0111239D01*
X0022421Y0111239D01*
X0022421Y0112237D02*
X0062591Y0112237D01*
X0026500Y0112237D01*
X0026500Y0113236D02*
X0045741Y0113236D01*
X0022421Y0113236D01*
X0022421Y0114234D02*
X0033168Y0114234D01*
X0026500Y0114234D01*
X0026500Y0115233D02*
X0032795Y0115233D01*
X0022421Y0115233D01*
X0022421Y0116231D02*
X0032795Y0116231D01*
X0026500Y0116231D01*
X0026500Y0117230D02*
X0032795Y0117230D01*
X0032795Y0116909D02*
X0032795Y0115031D01*
X0032898Y0114649D01*
X0033095Y0114307D01*
X0033374Y0114028D01*
X0033716Y0113830D01*
X0034098Y0113728D01*
X0035780Y0113728D01*
X0035780Y0116909D01*
X0036748Y0116909D01*
X0036748Y0113728D01*
X0038430Y0113728D01*
X0038811Y0113830D01*
X0039153Y0114028D01*
X0039433Y0114307D01*
X0039563Y0114532D01*
X0040367Y0113728D01*
X0045249Y0113728D01*
X0046036Y0112941D01*
X0053184Y0112941D01*
X0054063Y0113819D01*
X0054063Y0120967D01*
X0053184Y0121846D01*
X0046036Y0121846D01*
X0045249Y0121059D01*
X0040367Y0121059D01*
X0039563Y0120254D01*
X0039433Y0120480D01*
X0039153Y0120759D01*
X0038811Y0120956D01*
X0038430Y0121059D01*
X0036748Y0121059D01*
X0036748Y0117878D01*
X0035780Y0117878D01*
X0035780Y0121059D01*
X0034098Y0121059D01*
X0033716Y0120956D01*
X0033374Y0120759D01*
X0033095Y0120480D01*
X0032898Y0120138D01*
X0032795Y0119756D01*
X0032795Y0117878D01*
X0035779Y0117878D01*
X0035779Y0116909D01*
X0032795Y0116909D01*
X0032795Y0118228D02*
X0026500Y0118228D01*
X0026500Y0119227D02*
X0032795Y0119227D01*
X0022935Y0119227D01*
X0023315Y0120225D02*
X0032948Y0120225D01*
X0032840Y0120225D02*
X0026500Y0120225D01*
X0026500Y0121224D02*
X0033389Y0121224D01*
X0033389Y0122222D02*
X0026500Y0122222D01*
X0026500Y0123221D02*
X0033495Y0123221D01*
X0034024Y0124219D02*
X0026500Y0124219D01*
X0023315Y0124219D02*
X0076033Y0124219D01*
X0076710Y0123221D02*
X0077031Y0123221D01*
X0023315Y0123221D01*
X0023315Y0122222D02*
X0078030Y0122222D01*
X0077075Y0122222D01*
X0077419Y0121224D02*
X0078925Y0121224D01*
X0067586Y0121224D01*
X0067843Y0120225D02*
X0078925Y0120225D01*
X0077419Y0120225D01*
X0077095Y0119227D02*
X0078925Y0119227D01*
X0067843Y0119227D01*
X0070787Y0119227D01*
X0071495Y0118228D02*
X0067843Y0118228D01*
X0078925Y0118228D01*
X0076387Y0118228D01*
X0074650Y0117230D02*
X0078925Y0117230D01*
X0067843Y0117230D01*
X0073232Y0117230D01*
X0067843Y0116231D02*
X0079194Y0116231D01*
X0067843Y0116231D01*
X0059521Y0113236D02*
X0053479Y0113236D01*
X0059521Y0113236D01*
X0058937Y0114234D02*
X0054063Y0114234D01*
X0058937Y0114234D01*
X0058937Y0115233D02*
X0054063Y0115233D01*
X0058937Y0115233D01*
X0058937Y0116231D02*
X0054063Y0116231D01*
X0058937Y0116231D01*
X0058937Y0117230D02*
X0054063Y0117230D01*
X0058937Y0117230D01*
X0058937Y0118228D02*
X0054063Y0118228D01*
X0058937Y0118228D01*
X0058937Y0119227D02*
X0054063Y0119227D01*
X0058937Y0119227D01*
X0058937Y0120225D02*
X0054063Y0120225D01*
X0053807Y0121224D02*
X0059193Y0121224D01*
X0045414Y0121224D02*
X0023315Y0121224D01*
X0022421Y0118228D02*
X0032795Y0118228D01*
X0035780Y0118228D02*
X0036748Y0118228D01*
X0036748Y0119227D02*
X0035780Y0119227D01*
X0035780Y0120225D02*
X0036748Y0120225D01*
X0035779Y0117230D02*
X0022421Y0117230D01*
X0019846Y0122393D02*
X0019846Y0110740D01*
X0015438Y0101253D02*
X0035443Y0101253D01*
X0026500Y0101253D01*
X0026500Y0100255D02*
X0035157Y0100255D01*
X0015025Y0100255D01*
X0015419Y0091268D02*
X0050515Y0091268D01*
X0026500Y0091268D01*
X0026500Y0090270D02*
X0050515Y0090270D01*
X0014991Y0090270D01*
X0014135Y0089271D02*
X0050789Y0089271D01*
X0026500Y0089271D01*
X0026500Y0088273D02*
X0051555Y0088273D01*
X0006000Y0088273D01*
X0006000Y0089271D02*
X0008865Y0089271D01*
X0008009Y0090270D02*
X0006000Y0090270D01*
X0006000Y0091268D02*
X0007581Y0091268D01*
X0006000Y0087274D02*
X0052554Y0087274D01*
X0026500Y0087274D01*
X0035157Y0093819D02*
X0036036Y0092941D01*
X0043184Y0092941D01*
X0044063Y0093819D01*
X0044063Y0100967D01*
X0043184Y0101846D01*
X0042328Y0101846D01*
X0042328Y0101926D01*
X0042799Y0102398D01*
X0043556Y0101641D01*
X0048735Y0101641D01*
X0049614Y0102520D01*
X0049614Y0108093D01*
X0048735Y0108972D01*
X0043556Y0108972D01*
X0042799Y0108215D01*
X0042043Y0108972D01*
X0036863Y0108972D01*
X0035984Y0108093D01*
X0035984Y0102520D01*
X0036578Y0101926D01*
X0036578Y0101846D01*
X0036036Y0101846D01*
X0035157Y0100967D01*
X0035157Y0093819D01*
X0036036Y0092941D01*
X0043184Y0092941D01*
X0044063Y0093819D01*
X0044063Y0100967D01*
X0043184Y0101846D01*
X0042328Y0101846D01*
X0042328Y0101926D01*
X0042847Y0102446D01*
X0042977Y0102220D01*
X0043256Y0101941D01*
X0043598Y0101744D01*
X0043980Y0101641D01*
X0045661Y0101641D01*
X0045661Y0104822D01*
X0046630Y0104822D01*
X0046630Y0101641D01*
X0048312Y0101641D01*
X0048693Y0101744D01*
X0049035Y0101941D01*
X0049314Y0102220D01*
X0049512Y0102562D01*
X0049614Y0102944D01*
X0049614Y0104822D01*
X0046630Y0104822D01*
X0046630Y0105791D01*
X0049614Y0105791D01*
X0049614Y0107670D01*
X0049512Y0108051D01*
X0049314Y0108393D01*
X0049035Y0108672D01*
X0048693Y0108870D01*
X0048312Y0108972D01*
X0046630Y0108972D01*
X0046630Y0105791D01*
X0045661Y0105791D01*
X0045661Y0108972D01*
X0043980Y0108972D01*
X0043598Y0108870D01*
X0043256Y0108672D01*
X0042977Y0108393D01*
X0042847Y0108168D01*
X0042043Y0108972D01*
X0036863Y0108972D01*
X0035984Y0108093D01*
X0035984Y0102520D01*
X0036578Y0101926D01*
X0036578Y0101846D01*
X0036036Y0101846D01*
X0035157Y0100967D01*
X0035157Y0093819D01*
X0043509Y0093265D02*
X0049491Y0093265D01*
X0043509Y0093265D01*
X0044063Y0094264D02*
X0048937Y0094264D01*
X0044063Y0094264D01*
X0044063Y0095262D02*
X0048937Y0095262D01*
X0044063Y0095262D01*
X0044063Y0096261D02*
X0048937Y0096261D01*
X0044063Y0096261D01*
X0044063Y0097259D02*
X0048937Y0097259D01*
X0044063Y0097259D01*
X0044063Y0098258D02*
X0048937Y0098258D01*
X0044063Y0098258D01*
X0044063Y0099256D02*
X0048937Y0099256D01*
X0044063Y0099256D01*
X0044063Y0100255D02*
X0048937Y0100255D01*
X0044063Y0100255D01*
X0043777Y0101253D02*
X0049223Y0101253D01*
X0043777Y0101253D01*
X0042959Y0102252D02*
X0042653Y0102252D01*
X0042945Y0102252D01*
X0045661Y0102252D02*
X0046630Y0102252D01*
X0046630Y0103250D02*
X0045661Y0103250D01*
X0045661Y0104249D02*
X0046630Y0104249D01*
X0046630Y0105247D02*
X0063386Y0105247D01*
X0049614Y0105247D01*
X0049614Y0104249D02*
X0063386Y0104249D01*
X0049614Y0104249D01*
X0049614Y0103250D02*
X0063386Y0103250D01*
X0063386Y0104098D02*
X0066567Y0104098D01*
X0066567Y0107082D01*
X0064688Y0107082D01*
X0064307Y0106980D01*
X0063965Y0106783D01*
X0063686Y0106503D01*
X0063488Y0106161D01*
X0063386Y0105780D01*
X0063386Y0104098D01*
X0063386Y0102252D02*
X0049346Y0102252D01*
X0049333Y0102252D02*
X0063386Y0102252D01*
X0063386Y0101253D02*
X0057557Y0101253D01*
X0063438Y0101253D01*
X0064155Y0100255D02*
X0057843Y0100255D01*
X0064294Y0100255D01*
X0064398Y0099256D02*
X0057843Y0099256D01*
X0077423Y0099256D01*
X0076814Y0098258D02*
X0057843Y0098258D01*
X0064398Y0098258D01*
X0064398Y0097259D02*
X0057843Y0097259D01*
X0075972Y0097259D01*
X0075325Y0096261D02*
X0057843Y0096261D01*
X0064398Y0096261D01*
X0064398Y0095262D02*
X0057843Y0095262D01*
X0075323Y0095262D01*
X0077210Y0097259D02*
X0078188Y0097259D01*
X0079157Y0097315D02*
X0066972Y0097315D01*
X0066972Y0103535D01*
X0067051Y0103614D01*
X0066567Y0103250D02*
X0049614Y0103250D01*
X0049614Y0106246D02*
X0063428Y0106246D01*
X0063537Y0106246D02*
X0049614Y0106246D01*
X0049614Y0107245D02*
X0084473Y0107245D01*
X0049614Y0107245D01*
X0049465Y0108243D02*
X0083475Y0108243D01*
X0049401Y0108243D01*
X0046630Y0108243D02*
X0045661Y0108243D01*
X0045661Y0107245D02*
X0046630Y0107245D01*
X0046630Y0106246D02*
X0045661Y0106246D01*
X0042890Y0108243D02*
X0042772Y0108243D01*
X0042827Y0108243D01*
X0039861Y0114234D02*
X0039360Y0114234D01*
X0039861Y0114234D01*
X0036748Y0114234D02*
X0035780Y0114234D01*
X0035780Y0115233D02*
X0036748Y0115233D01*
X0036748Y0116231D02*
X0035780Y0116231D01*
X0026500Y0129968D02*
X0026500Y0161029D01*
X0027864Y0162393D01*
X0069394Y0162393D01*
X0069199Y0162198D01*
X0064199Y0157198D01*
X0063807Y0156252D01*
X0063807Y0155849D01*
X0063188Y0156468D01*
X0059812Y0156468D01*
X0057425Y0154081D01*
X0057425Y0150706D01*
X0059812Y0148319D01*
X0063188Y0148319D01*
X0063807Y0148938D01*
X0063807Y0145849D01*
X0063188Y0146468D01*
X0059812Y0146468D01*
X0057425Y0144081D01*
X0057425Y0140706D01*
X0059812Y0138319D01*
X0063188Y0138319D01*
X0063897Y0139027D01*
X0064199Y0138297D01*
X0067742Y0134754D01*
X0068467Y0134029D01*
X0069413Y0133637D01*
X0095630Y0133637D01*
X0101484Y0127784D01*
X0101484Y0124968D01*
X0099496Y0124968D01*
X0099496Y0126164D01*
X0098617Y0127043D01*
X0092257Y0127043D01*
X0091500Y0126286D01*
X0090743Y0127043D01*
X0084383Y0127043D01*
X0083504Y0126164D01*
X0083504Y0124031D01*
X0082959Y0124576D01*
X0082958Y0124576D01*
X0078683Y0128852D01*
X0077959Y0129576D01*
X0077012Y0129968D01*
X0026500Y0129968D01*
X0026500Y0130210D02*
X0099058Y0130210D01*
X0019032Y0130210D01*
X0018790Y0129968D02*
X0019826Y0131004D01*
X0021196Y0133377D01*
X0021905Y0136023D01*
X0021905Y0138763D01*
X0021196Y0141410D01*
X0019826Y0143782D01*
X0019540Y0144069D01*
X0020315Y0144844D01*
X0025315Y0149844D01*
X0026000Y0151498D01*
X0026000Y0160529D01*
X0028364Y0162893D01*
X0069894Y0162893D01*
X0069199Y0162198D01*
X0064199Y0157198D01*
X0063807Y0156252D01*
X0063807Y0155849D01*
X0063188Y0156468D01*
X0059812Y0156468D01*
X0057425Y0154081D01*
X0057425Y0150706D01*
X0059812Y0148319D01*
X0063188Y0148319D01*
X0063807Y0148938D01*
X0063807Y0145849D01*
X0063188Y0146468D01*
X0061787Y0146468D01*
X0061787Y0142681D01*
X0061213Y0142681D01*
X0061213Y0146468D01*
X0059812Y0146468D01*
X0057425Y0144081D01*
X0057425Y0142681D01*
X0061213Y0142681D01*
X0061213Y0142106D01*
X0061787Y0142106D01*
X0061787Y0138319D01*
X0063188Y0138319D01*
X0063897Y0139027D01*
X0064199Y0138297D01*
X0067742Y0134754D01*
X0068467Y0134029D01*
X0069413Y0133637D01*
X0095630Y0133637D01*
X0101484Y0127784D01*
X0101484Y0124968D01*
X0099496Y0124968D01*
X0099496Y0126164D01*
X0098617Y0127043D01*
X0092257Y0127043D01*
X0091452Y0126239D01*
X0091322Y0126464D01*
X0091043Y0126743D01*
X0090701Y0126941D01*
X0090320Y0127043D01*
X0088063Y0127043D01*
X0088063Y0122893D01*
X0087063Y0122893D01*
X0087063Y0127043D01*
X0084806Y0127043D01*
X0084425Y0126941D01*
X0084083Y0126743D01*
X0083804Y0126464D01*
X0083606Y0126122D01*
X0083504Y0125740D01*
X0083504Y0124031D01*
X0082959Y0124576D01*
X0078683Y0128852D01*
X0078683Y0128852D01*
X0077959Y0129576D01*
X0077012Y0129968D01*
X0018790Y0129968D01*
X0019945Y0131209D02*
X0098059Y0131209D01*
X0026500Y0131209D01*
X0026500Y0132207D02*
X0097061Y0132207D01*
X0020521Y0132207D01*
X0021098Y0133206D02*
X0096062Y0133206D01*
X0026500Y0133206D01*
X0026500Y0134204D02*
X0068292Y0134204D01*
X0021418Y0134204D01*
X0021686Y0135203D02*
X0067293Y0135203D01*
X0026500Y0135203D01*
X0026500Y0136201D02*
X0066295Y0136201D01*
X0021905Y0136201D01*
X0021905Y0137200D02*
X0065296Y0137200D01*
X0026500Y0137200D01*
X0026500Y0138198D02*
X0064298Y0138198D01*
X0021905Y0138198D01*
X0021789Y0139197D02*
X0047426Y0139197D01*
X0026500Y0139197D01*
X0026500Y0140195D02*
X0047425Y0140195D01*
X0021522Y0140195D01*
X0021254Y0141194D02*
X0047425Y0141194D01*
X0026500Y0141194D01*
X0026500Y0142192D02*
X0047425Y0142192D01*
X0020745Y0142192D01*
X0020168Y0143191D02*
X0047425Y0143191D01*
X0026500Y0143191D01*
X0026500Y0144189D02*
X0047425Y0144189D01*
X0019660Y0144189D01*
X0020659Y0145188D02*
X0047425Y0145188D01*
X0026500Y0145188D01*
X0026500Y0146186D02*
X0048022Y0146186D01*
X0021657Y0146186D01*
X0022656Y0147185D02*
X0063807Y0147185D01*
X0026500Y0147185D01*
X0026500Y0148183D02*
X0063807Y0148183D01*
X0023654Y0148183D01*
X0024653Y0149182D02*
X0048949Y0149182D01*
X0026500Y0149182D01*
X0026500Y0150180D02*
X0047950Y0150180D01*
X0025454Y0150180D01*
X0025868Y0151179D02*
X0047425Y0151179D01*
X0026500Y0151179D01*
X0026500Y0152178D02*
X0047425Y0152178D01*
X0026000Y0152178D01*
X0026000Y0153176D02*
X0047425Y0153176D01*
X0026500Y0153176D01*
X0026500Y0154175D02*
X0047519Y0154175D01*
X0026000Y0154175D01*
X0026000Y0155173D02*
X0048517Y0155173D01*
X0026500Y0155173D01*
X0026500Y0156172D02*
X0049516Y0156172D01*
X0026000Y0156172D01*
X0026000Y0157170D02*
X0064187Y0157170D01*
X0026500Y0157170D01*
X0026500Y0158169D02*
X0065169Y0158169D01*
X0026000Y0158169D01*
X0026000Y0159167D02*
X0066168Y0159167D01*
X0026500Y0159167D01*
X0026500Y0160166D02*
X0067166Y0160166D01*
X0026000Y0160166D01*
X0026635Y0161164D02*
X0068165Y0161164D01*
X0026635Y0161164D01*
X0027633Y0162163D02*
X0069163Y0162163D01*
X0027633Y0162163D01*
X0047425Y0154081D02*
X0047425Y0150706D01*
X0049812Y0148319D01*
X0053188Y0148319D01*
X0055575Y0150706D01*
X0055575Y0154081D01*
X0053188Y0156468D01*
X0049812Y0156468D01*
X0047425Y0154081D01*
X0047425Y0150706D01*
X0049812Y0148319D01*
X0053188Y0148319D01*
X0055575Y0150706D01*
X0055575Y0154081D01*
X0053188Y0156468D01*
X0049812Y0156468D01*
X0047425Y0154081D01*
X0053484Y0156172D02*
X0059516Y0156172D01*
X0053484Y0156172D01*
X0054483Y0155173D02*
X0058517Y0155173D01*
X0054483Y0155173D01*
X0055481Y0154175D02*
X0057519Y0154175D01*
X0055481Y0154175D01*
X0055575Y0153176D02*
X0057425Y0153176D01*
X0055575Y0153176D01*
X0055575Y0152178D02*
X0057425Y0152178D01*
X0055575Y0152178D01*
X0055575Y0151179D02*
X0057425Y0151179D01*
X0055575Y0151179D01*
X0055050Y0150180D02*
X0057950Y0150180D01*
X0055050Y0150180D01*
X0054051Y0149182D02*
X0058949Y0149182D01*
X0054051Y0149182D01*
X0054696Y0146468D02*
X0055575Y0145589D01*
X0055575Y0139197D01*
X0054696Y0138319D01*
X0048304Y0138319D01*
X0047425Y0139197D01*
X0047425Y0145589D01*
X0048304Y0146468D01*
X0054696Y0146468D01*
X0055575Y0145589D01*
X0055575Y0139197D01*
X0054696Y0138319D01*
X0048304Y0138319D01*
X0047425Y0139197D01*
X0047425Y0145589D01*
X0048304Y0146468D01*
X0054696Y0146468D01*
X0054978Y0146186D02*
X0059530Y0146186D01*
X0054978Y0146186D01*
X0055575Y0145188D02*
X0058532Y0145188D01*
X0055575Y0145188D01*
X0055575Y0144189D02*
X0057533Y0144189D01*
X0055575Y0144189D01*
X0055575Y0143191D02*
X0057425Y0143191D01*
X0055575Y0143191D01*
X0055575Y0142192D02*
X0057425Y0142192D01*
X0057425Y0142106D02*
X0057425Y0140706D01*
X0059812Y0138319D01*
X0061213Y0138319D01*
X0061213Y0142106D01*
X0057425Y0142106D01*
X0057425Y0141194D02*
X0055575Y0141194D01*
X0057425Y0141194D01*
X0057935Y0140195D02*
X0055575Y0140195D01*
X0057935Y0140195D01*
X0058934Y0139197D02*
X0055574Y0139197D01*
X0058934Y0139197D01*
X0061213Y0139197D02*
X0061787Y0139197D01*
X0061787Y0140195D02*
X0061213Y0140195D01*
X0061213Y0141194D02*
X0061787Y0141194D01*
X0061213Y0142192D02*
X0055575Y0142192D01*
X0061213Y0143191D02*
X0061787Y0143191D01*
X0061787Y0144189D02*
X0061213Y0144189D01*
X0061213Y0145188D02*
X0061787Y0145188D01*
X0061787Y0146186D02*
X0061213Y0146186D01*
X0063470Y0146186D02*
X0063807Y0146186D01*
X0063470Y0146186D01*
X0068957Y0146186D02*
X0069530Y0146186D01*
X0069812Y0146468D02*
X0068957Y0145613D01*
X0068957Y0149174D01*
X0069812Y0148319D01*
X0073188Y0148319D01*
X0075575Y0150706D01*
X0075575Y0152827D01*
X0077015Y0154267D01*
X0077611Y0154267D01*
X0077425Y0154081D01*
X0077425Y0150706D01*
X0079812Y0148319D01*
X0081933Y0148319D01*
X0084317Y0145935D01*
X0085041Y0145211D01*
X0085988Y0144819D01*
X0088163Y0144819D01*
X0087425Y0144081D01*
X0087425Y0140706D01*
X0089344Y0138787D01*
X0083656Y0138787D01*
X0085575Y0140706D01*
X0085575Y0144081D01*
X0083188Y0146468D01*
X0079812Y0146468D01*
X0077425Y0144081D01*
X0077425Y0140706D01*
X0079344Y0138787D01*
X0073656Y0138787D01*
X0075575Y0140706D01*
X0075575Y0144081D01*
X0073188Y0146468D01*
X0069812Y0146468D01*
X0068957Y0147185D02*
X0083067Y0147185D01*
X0083470Y0146186D02*
X0084066Y0146186D01*
X0084468Y0145188D02*
X0085096Y0145188D01*
X0085467Y0144189D02*
X0087533Y0144189D01*
X0087425Y0143191D02*
X0085575Y0143191D01*
X0085575Y0142192D02*
X0087425Y0142192D01*
X0087425Y0141194D02*
X0085575Y0141194D01*
X0085065Y0140195D02*
X0087935Y0140195D01*
X0088934Y0139197D02*
X0084066Y0139197D01*
X0078934Y0139197D02*
X0074066Y0139197D01*
X0075065Y0140195D02*
X0077935Y0140195D01*
X0077425Y0141194D02*
X0075575Y0141194D01*
X0075575Y0142192D02*
X0077425Y0142192D01*
X0077425Y0143191D02*
X0075575Y0143191D01*
X0075467Y0144189D02*
X0077533Y0144189D01*
X0078532Y0145188D02*
X0074468Y0145188D01*
X0073470Y0146186D02*
X0079530Y0146186D01*
X0082069Y0148183D02*
X0068957Y0148183D01*
X0071500Y0152393D02*
X0075949Y0156842D01*
X0128429Y0156842D01*
X0136500Y0148771D01*
X0136500Y0148240D01*
X0140165Y0148183D02*
X0145000Y0148183D01*
X0140165Y0148183D01*
X0140165Y0147370D02*
X0140165Y0150830D01*
X0139287Y0151708D01*
X0137204Y0151708D01*
X0130748Y0158165D01*
X0152638Y0158165D01*
X0130748Y0158165D01*
X0137204Y0151708D01*
X0139287Y0151708D01*
X0140165Y0150830D01*
X0140165Y0145650D01*
X0139409Y0144893D01*
X0140165Y0144137D01*
X0140165Y0138957D01*
X0139287Y0138078D01*
X0139075Y0138078D01*
X0139075Y0136035D01*
X0138886Y0135579D01*
X0138886Y0134764D01*
X0138007Y0133885D01*
X0135059Y0133885D01*
X0135059Y0130901D01*
X0138007Y0130901D01*
X0138020Y0130889D01*
X0138020Y0133898D01*
X0138007Y0133885D01*
X0135059Y0133885D01*
X0135059Y0130805D01*
X0135417Y0130901D01*
X0136500Y0130901D01*
X0136500Y0128240D01*
X0136500Y0128240D01*
X0136500Y0130901D01*
X0137583Y0130901D01*
X0137965Y0130799D01*
X0138307Y0130602D01*
X0138586Y0130322D01*
X0138784Y0129980D01*
X0138886Y0129599D01*
X0138886Y0128240D01*
X0136500Y0128240D01*
X0136500Y0128240D01*
X0140594Y0128240D01*
X0140594Y0144795D01*
X0130280Y0144795D01*
X0122563Y0144795D01*
X0122563Y0140307D01*
X0120634Y0140307D01*
X0120634Y0128240D01*
X0116500Y0128240D01*
X0116500Y0128240D01*
X0116500Y0130901D01*
X0115417Y0130901D01*
X0115035Y0130799D01*
X0114693Y0130602D01*
X0114414Y0130322D01*
X0114216Y0129980D01*
X0114114Y0129599D01*
X0114114Y0128240D01*
X0116500Y0128240D01*
X0116500Y0130901D01*
X0117583Y0130901D01*
X0117965Y0130799D01*
X0118307Y0130602D01*
X0118586Y0130322D01*
X0118784Y0129980D01*
X0118886Y0129599D01*
X0118886Y0128240D01*
X0116500Y0128240D01*
X0116500Y0128240D01*
X0116500Y0128240D01*
X0114114Y0128240D01*
X0114114Y0126881D01*
X0114216Y0126499D01*
X0114414Y0126157D01*
X0114693Y0125878D01*
X0115035Y0125681D01*
X0115417Y0125578D01*
X0116500Y0125578D01*
X0117583Y0125578D01*
X0117965Y0125681D01*
X0118307Y0125878D01*
X0118586Y0126157D01*
X0118784Y0126499D01*
X0118886Y0126881D01*
X0118886Y0128240D01*
X0116500Y0128240D01*
X0116500Y0125578D01*
X0116500Y0128240D01*
X0116500Y0128240D01*
X0116500Y0128213D02*
X0116500Y0128213D01*
X0116500Y0127215D02*
X0116500Y0127215D01*
X0116500Y0126216D02*
X0116500Y0126216D01*
X0118620Y0126216D02*
X0120028Y0126216D01*
X0120028Y0127215D02*
X0118886Y0127215D01*
X0118886Y0128213D02*
X0120028Y0128213D01*
X0120028Y0129212D02*
X0118886Y0129212D01*
X0118651Y0130210D02*
X0120028Y0130210D01*
X0120028Y0131209D02*
X0109075Y0131209D01*
X0118059Y0131209D01*
X0118059Y0132207D02*
X0109955Y0132207D01*
X0120028Y0132207D01*
X0120028Y0133206D02*
X0110954Y0133206D01*
X0118059Y0133206D01*
X0118326Y0134204D02*
X0120028Y0134204D01*
X0120028Y0135203D02*
X0118886Y0135203D01*
X0119075Y0136201D02*
X0120186Y0136201D01*
X0120854Y0137200D02*
X0119075Y0137200D01*
X0119407Y0138198D02*
X0121853Y0138198D01*
X0122835Y0139197D02*
X0120165Y0139197D01*
X0120165Y0140195D02*
X0122835Y0140195D01*
X0122835Y0141194D02*
X0120165Y0141194D01*
X0120165Y0142192D02*
X0122835Y0142192D01*
X0122835Y0143191D02*
X0122356Y0143191D01*
X0120476Y0144952D02*
X0123764Y0148240D01*
X0126500Y0148240D01*
X0122835Y0150642D02*
X0122305Y0150423D01*
X0121581Y0149698D01*
X0120165Y0148283D01*
X0120165Y0150830D01*
X0119287Y0151708D01*
X0116673Y0151708D01*
X0114114Y0154267D01*
X0127363Y0154267D01*
X0132835Y0148795D01*
X0132835Y0147370D01*
X0130165Y0147370D01*
X0130165Y0150830D01*
X0129287Y0151708D01*
X0123713Y0151708D01*
X0122835Y0150830D01*
X0122835Y0150642D01*
X0122305Y0150423D01*
X0121581Y0149698D01*
X0120165Y0148283D01*
X0120165Y0150830D01*
X0119287Y0151708D01*
X0116673Y0151708D01*
X0114114Y0154267D01*
X0127363Y0154267D01*
X0132835Y0148795D01*
X0132835Y0145650D01*
X0133591Y0144893D01*
X0132835Y0144137D01*
X0132835Y0139027D01*
X0132800Y0139013D01*
X0132469Y0138695D01*
X0131100Y0137481D01*
X0131026Y0137450D01*
X0130718Y0137143D01*
X0130393Y0136855D01*
X0130358Y0136782D01*
X0130301Y0136726D01*
X0130135Y0136324D01*
X0129945Y0135933D01*
X0129940Y0135854D01*
X0129909Y0135780D01*
X0129909Y0135345D01*
X0129883Y0134911D01*
X0129909Y0134835D01*
X0129909Y0122921D01*
X0124409Y0122921D01*
X0124785Y0123297D01*
X0125177Y0124243D01*
X0125177Y0125578D01*
X0128007Y0125578D01*
X0128094Y0125665D01*
X0129909Y0125665D01*
X0129909Y0122921D01*
X0124409Y0122921D01*
X0124785Y0123297D01*
X0125177Y0124243D01*
X0125177Y0125643D01*
X0125417Y0125578D01*
X0126500Y0125578D01*
X0127583Y0125578D01*
X0127965Y0125681D01*
X0128307Y0125878D01*
X0128586Y0126157D01*
X0128784Y0126499D01*
X0128886Y0126881D01*
X0128886Y0128240D01*
X0128886Y0129599D01*
X0128784Y0129980D01*
X0128586Y0130322D01*
X0128307Y0130602D01*
X0127965Y0130799D01*
X0127583Y0130901D01*
X0126500Y0130901D01*
X0125417Y0130901D01*
X0125177Y0130837D01*
X0125177Y0133885D01*
X0127705Y0133885D01*
X0127705Y0130901D01*
X0125177Y0130901D01*
X0125177Y0133885D01*
X0128007Y0133885D01*
X0128886Y0134764D01*
X0128886Y0135579D01*
X0129075Y0136035D01*
X0129075Y0138078D01*
X0129287Y0138078D01*
X0130165Y0138957D01*
X0130165Y0144137D01*
X0129409Y0144893D01*
X0130165Y0145650D01*
X0130165Y0150830D01*
X0129287Y0151708D01*
X0123713Y0151708D01*
X0122835Y0150830D01*
X0122835Y0150642D01*
X0123184Y0151179D02*
X0119816Y0151179D01*
X0123184Y0151179D01*
X0122063Y0150180D02*
X0120165Y0150180D01*
X0122063Y0150180D01*
X0121065Y0149182D02*
X0120165Y0149182D01*
X0121065Y0149182D01*
X0116500Y0148240D02*
X0112346Y0152393D01*
X0091500Y0152393D01*
X0087425Y0152178D02*
X0085575Y0152178D01*
X0085575Y0151960D02*
X0085575Y0154081D01*
X0085389Y0154267D01*
X0087611Y0154267D01*
X0087425Y0154081D01*
X0087425Y0150706D01*
X0088163Y0149968D01*
X0087567Y0149968D01*
X0085575Y0151960D01*
X0086356Y0151179D02*
X0087425Y0151179D01*
X0087354Y0150180D02*
X0087950Y0150180D01*
X0086500Y0147393D02*
X0106500Y0147393D01*
X0108941Y0144952D01*
X0120476Y0144952D01*
X0116500Y0141547D02*
X0116500Y0136547D01*
X0110654Y0136547D01*
X0106500Y0132393D01*
X0106500Y0112354D01*
X0104217Y0110071D01*
X0097327Y0110071D01*
X0097327Y0112630D02*
X0102248Y0112630D01*
X0104059Y0114441D01*
X0104059Y0122393D01*
X0095437Y0122393D01*
X0099496Y0119819D02*
X0101484Y0119819D01*
X0101484Y0117483D01*
X0101393Y0117574D01*
X0098295Y0117574D01*
X0097886Y0117744D01*
X0098617Y0117744D01*
X0099496Y0118622D01*
X0099496Y0119819D01*
X0099496Y0119227D02*
X0101484Y0119227D01*
X0101484Y0118228D02*
X0099102Y0118228D01*
X0097327Y0115189D02*
X0083705Y0115189D01*
X0081500Y0117393D01*
X0081500Y0122393D01*
X0076500Y0127393D01*
X0018154Y0127393D01*
X0057843Y0094264D02*
X0063454Y0094264D01*
X0063519Y0094264D02*
X0057843Y0094264D01*
X0057289Y0093265D02*
X0063307Y0093265D01*
X0057289Y0093265D01*
X0056265Y0092267D02*
X0063307Y0092267D01*
X0056265Y0092267D01*
X0056691Y0091268D02*
X0063307Y0091268D01*
X0063307Y0090270D02*
X0057689Y0090270D01*
X0063307Y0090270D01*
X0063307Y0089271D02*
X0058688Y0089271D01*
X0063331Y0089271D01*
X0063972Y0088273D02*
X0059686Y0088273D01*
X0064034Y0088273D01*
X0066488Y0088273D02*
X0067457Y0088273D01*
X0067457Y0089271D02*
X0066488Y0089271D01*
X0066488Y0090270D02*
X0067457Y0090270D01*
X0066972Y0091527D02*
X0066972Y0097315D01*
X0066567Y0100255D02*
X0067535Y0100255D01*
X0067535Y0101253D02*
X0066567Y0101253D01*
X0066567Y0102252D02*
X0067535Y0102252D01*
X0067535Y0104249D02*
X0066567Y0104249D01*
X0066567Y0105247D02*
X0067535Y0105247D01*
X0067535Y0106246D02*
X0066567Y0106246D01*
X0069808Y0100255D02*
X0070848Y0100255D01*
X0069947Y0100255D01*
X0073744Y0103614D02*
X0080515Y0103614D01*
X0082759Y0101369D01*
X0087287Y0103299D01*
X0092012Y0099834D01*
X0097327Y0099834D01*
X0097327Y0097275D02*
X0090476Y0097236D01*
X0086500Y0091960D01*
X0084060Y0093181D01*
X0082879Y0093496D01*
X0080910Y0091527D01*
X0073665Y0091527D01*
X0070665Y0088273D02*
X0069973Y0088273D01*
X0069910Y0088273D02*
X0070665Y0088273D01*
X0067457Y0092267D02*
X0066488Y0092267D01*
X0066488Y0093265D02*
X0067457Y0093265D01*
X0067457Y0094264D02*
X0066488Y0094264D01*
X0066488Y0091268D02*
X0056691Y0091268D01*
X0060685Y0087274D02*
X0088260Y0087274D01*
X0060685Y0087274D01*
X0061683Y0086276D02*
X0087262Y0086276D01*
X0061683Y0086276D01*
X0062682Y0085277D02*
X0086263Y0085277D01*
X0062682Y0085277D01*
X0057473Y0073913D02*
X0056594Y0073034D01*
X0056594Y0061752D01*
X0057473Y0060874D01*
X0068755Y0060874D01*
X0069634Y0061752D01*
X0069634Y0073034D01*
X0068755Y0073913D01*
X0057473Y0073913D01*
X0056594Y0073034D01*
X0056594Y0061752D01*
X0057473Y0060874D01*
X0068755Y0060874D01*
X0069634Y0061752D01*
X0069634Y0073034D01*
X0068755Y0073913D01*
X0057473Y0073913D01*
X0056855Y0073295D02*
X0055024Y0073295D01*
X0056855Y0073295D01*
X0056594Y0072297D02*
X0055024Y0072297D01*
X0056594Y0072297D01*
X0056594Y0071298D02*
X0055024Y0071298D01*
X0056594Y0071298D01*
X0056594Y0070300D02*
X0055024Y0070300D01*
X0056594Y0070300D01*
X0056594Y0069301D02*
X0055024Y0069301D01*
X0056594Y0069301D01*
X0056594Y0068303D02*
X0055024Y0068303D01*
X0056594Y0068303D01*
X0056594Y0067304D02*
X0055024Y0067304D01*
X0056594Y0067304D01*
X0056594Y0066306D02*
X0055024Y0066306D01*
X0056594Y0066306D01*
X0056594Y0065307D02*
X0055024Y0065307D01*
X0056594Y0065307D01*
X0056594Y0064309D02*
X0055024Y0064309D01*
X0056594Y0064309D01*
X0056594Y0063310D02*
X0055024Y0063310D01*
X0056594Y0063310D01*
X0056594Y0062311D02*
X0055024Y0062311D01*
X0056594Y0062311D01*
X0057034Y0061313D02*
X0055024Y0061313D01*
X0057034Y0061313D01*
X0054566Y0060314D02*
X0107311Y0060314D01*
X0054566Y0060314D01*
X0040481Y0060314D02*
X0026500Y0060314D01*
X0026500Y0059316D02*
X0107311Y0059316D01*
X0014185Y0059316D01*
X0015049Y0060314D02*
X0040481Y0060314D01*
X0040024Y0061313D02*
X0026500Y0061313D01*
X0026500Y0062311D02*
X0040024Y0062311D01*
X0015575Y0062311D01*
X0015531Y0063310D02*
X0040024Y0063310D01*
X0026500Y0063310D01*
X0026500Y0064309D02*
X0040024Y0064309D01*
X0015117Y0064309D01*
X0015463Y0061313D02*
X0040024Y0061313D01*
X0040024Y0065307D02*
X0026500Y0065307D01*
X0026500Y0066306D02*
X0040024Y0066306D01*
X0019053Y0066306D01*
X0018055Y0065307D02*
X0040024Y0065307D01*
X0040024Y0067304D02*
X0026500Y0067304D01*
X0026500Y0068303D02*
X0040024Y0068303D01*
X0021051Y0068303D01*
X0022049Y0069301D02*
X0040024Y0069301D01*
X0026500Y0069301D01*
X0026500Y0070300D02*
X0040024Y0070300D01*
X0023048Y0070300D01*
X0024046Y0071298D02*
X0040024Y0071298D01*
X0026500Y0071298D01*
X0026500Y0072297D02*
X0040024Y0072297D01*
X0025045Y0072297D01*
X0026043Y0073295D02*
X0040024Y0073295D01*
X0026500Y0073295D01*
X0027042Y0074294D02*
X0040303Y0074294D01*
X0027042Y0074294D01*
X0020052Y0067304D02*
X0040024Y0067304D01*
X0054745Y0074294D02*
X0109759Y0074294D01*
X0054745Y0074294D01*
X0069373Y0073295D02*
X0072446Y0073295D01*
X0069373Y0073295D01*
X0069634Y0072297D02*
X0072185Y0072297D01*
X0069634Y0072297D01*
X0069634Y0071298D02*
X0072185Y0071298D01*
X0069634Y0071298D01*
X0069634Y0070300D02*
X0072185Y0070300D01*
X0069634Y0070300D01*
X0069634Y0069301D02*
X0072185Y0069301D01*
X0069634Y0069301D01*
X0069634Y0068303D02*
X0072185Y0068303D01*
X0069634Y0068303D01*
X0069634Y0067304D02*
X0072185Y0067304D01*
X0069634Y0067304D01*
X0069634Y0066306D02*
X0072185Y0066306D01*
X0069634Y0066306D01*
X0069634Y0065307D02*
X0072185Y0065307D01*
X0069634Y0065307D01*
X0069634Y0064309D02*
X0072185Y0064309D01*
X0069634Y0064309D01*
X0069634Y0063310D02*
X0072185Y0063310D01*
X0069634Y0063310D01*
X0069634Y0062311D02*
X0072185Y0062311D01*
X0069634Y0062311D01*
X0069194Y0061313D02*
X0072624Y0061313D01*
X0069194Y0061313D01*
X0072185Y0061752D02*
X0073064Y0060874D01*
X0084346Y0060874D01*
X0085224Y0061752D01*
X0085224Y0073034D01*
X0084346Y0073913D01*
X0073064Y0073913D01*
X0072185Y0073034D01*
X0072185Y0061752D01*
X0073064Y0060874D01*
X0084346Y0060874D01*
X0085224Y0061752D01*
X0085224Y0073034D01*
X0084346Y0073913D01*
X0073064Y0073913D01*
X0072185Y0073034D01*
X0072185Y0061752D01*
X0084785Y0061313D02*
X0088215Y0061313D01*
X0084785Y0061313D01*
X0085224Y0062311D02*
X0087776Y0062311D01*
X0085224Y0062311D01*
X0085224Y0063310D02*
X0087776Y0063310D01*
X0085224Y0063310D01*
X0085224Y0064309D02*
X0087776Y0064309D01*
X0085224Y0064309D01*
X0085224Y0065307D02*
X0087776Y0065307D01*
X0085224Y0065307D01*
X0085224Y0066306D02*
X0087776Y0066306D01*
X0085224Y0066306D01*
X0085224Y0067304D02*
X0087776Y0067304D01*
X0087776Y0066893D02*
X0087776Y0062176D01*
X0087878Y0061795D01*
X0088075Y0061453D01*
X0088355Y0061173D01*
X0088697Y0060976D01*
X0089078Y0060874D01*
X0093795Y0060874D01*
X0093795Y0066893D01*
X0094795Y0066893D01*
X0094795Y0060874D01*
X0099512Y0060874D01*
X0099894Y0060976D01*
X0100236Y0061173D01*
X0100515Y0061453D01*
X0100713Y0061795D01*
X0100815Y0062176D01*
X0100815Y0066893D01*
X0094795Y0066893D01*
X0094795Y0067893D01*
X0100815Y0067893D01*
X0100815Y0072611D01*
X0100713Y0072992D01*
X0100515Y0073334D01*
X0100236Y0073613D01*
X0099894Y0073811D01*
X0099512Y0073913D01*
X0094795Y0073913D01*
X0094795Y0067893D01*
X0093795Y0067893D01*
X0093795Y0066893D01*
X0087776Y0066893D01*
X0087776Y0067893D02*
X0087776Y0072611D01*
X0087878Y0072992D01*
X0088075Y0073334D01*
X0088355Y0073613D01*
X0088697Y0073811D01*
X0089078Y0073913D01*
X0093795Y0073913D01*
X0093795Y0067893D01*
X0087776Y0067893D01*
X0087776Y0068303D02*
X0085224Y0068303D01*
X0087776Y0068303D01*
X0087776Y0069301D02*
X0085224Y0069301D01*
X0087776Y0069301D01*
X0087776Y0070300D02*
X0085224Y0070300D01*
X0087776Y0070300D01*
X0087776Y0071298D02*
X0085224Y0071298D01*
X0087776Y0071298D01*
X0087776Y0072297D02*
X0085224Y0072297D01*
X0087776Y0072297D01*
X0087776Y0073034D02*
X0087776Y0061752D01*
X0088654Y0060874D01*
X0099936Y0060874D01*
X0100815Y0061752D01*
X0100815Y0073034D01*
X0099936Y0073913D01*
X0088654Y0073913D01*
X0087776Y0073034D01*
X0088036Y0073295D02*
X0084964Y0073295D01*
X0088053Y0073295D01*
X0093795Y0073295D02*
X0094795Y0073295D01*
X0094795Y0072297D02*
X0093795Y0072297D01*
X0093795Y0071298D02*
X0094795Y0071298D01*
X0094795Y0070300D02*
X0093795Y0070300D01*
X0093795Y0069301D02*
X0094795Y0069301D01*
X0094795Y0068303D02*
X0093795Y0068303D01*
X0093795Y0067304D02*
X0085224Y0067304D01*
X0093795Y0066306D02*
X0094795Y0066306D01*
X0094795Y0067304D02*
X0103366Y0067304D01*
X0100815Y0067304D01*
X0100815Y0066306D02*
X0103366Y0066306D01*
X0100815Y0066306D01*
X0100815Y0065307D02*
X0103366Y0065307D01*
X0100815Y0065307D01*
X0100815Y0064309D02*
X0103366Y0064309D01*
X0100815Y0064309D01*
X0100815Y0063310D02*
X0103366Y0063310D01*
X0100815Y0063310D01*
X0100815Y0062311D02*
X0103366Y0062311D01*
X0100815Y0062311D01*
X0100376Y0061313D02*
X0103806Y0061313D01*
X0100376Y0061313D01*
X0094795Y0061313D02*
X0093795Y0061313D01*
X0093795Y0062311D02*
X0094795Y0062311D01*
X0094795Y0063310D02*
X0093795Y0063310D01*
X0093795Y0064309D02*
X0094795Y0064309D01*
X0094795Y0065307D02*
X0093795Y0065307D01*
X0100815Y0068303D02*
X0103366Y0068303D01*
X0100815Y0068303D01*
X0100815Y0069301D02*
X0103366Y0069301D01*
X0100815Y0069301D01*
X0100815Y0070300D02*
X0103366Y0070300D01*
X0100815Y0070300D01*
X0100815Y0071298D02*
X0103366Y0071298D01*
X0100815Y0071298D01*
X0100815Y0072297D02*
X0103366Y0072297D01*
X0100815Y0072297D01*
X0100554Y0073295D02*
X0103627Y0073295D01*
X0100538Y0073295D01*
X0100639Y0075292D02*
X0110757Y0075292D01*
X0100639Y0075292D01*
X0101637Y0076291D02*
X0111756Y0076291D01*
X0101637Y0076291D01*
X0102636Y0077289D02*
X0112754Y0077289D01*
X0102636Y0077289D01*
X0103634Y0078288D02*
X0113753Y0078288D01*
X0103634Y0078288D01*
X0104633Y0079286D02*
X0114752Y0079286D01*
X0104633Y0079286D01*
X0105631Y0080285D02*
X0125750Y0080285D01*
X0105631Y0080285D01*
X0106630Y0081283D02*
X0126749Y0081283D01*
X0106630Y0081283D01*
X0107628Y0082282D02*
X0127747Y0082282D01*
X0107628Y0082282D01*
X0108627Y0083280D02*
X0128746Y0083280D01*
X0108627Y0083280D01*
X0109188Y0084279D02*
X0129744Y0084279D01*
X0109188Y0084279D01*
X0109272Y0085277D02*
X0130224Y0085277D01*
X0109272Y0085277D01*
X0109272Y0086276D02*
X0130224Y0086276D01*
X0109272Y0086276D01*
X0109272Y0087274D02*
X0130224Y0087274D01*
X0109272Y0087274D01*
X0109272Y0088273D02*
X0130224Y0088273D01*
X0109272Y0088273D01*
X0109272Y0089271D02*
X0130224Y0089271D01*
X0109272Y0089271D01*
X0109272Y0090270D02*
X0118959Y0090270D01*
X0109272Y0090270D01*
X0109272Y0091268D02*
X0117960Y0091268D01*
X0109272Y0091268D01*
X0109272Y0092267D02*
X0116962Y0092267D01*
X0109272Y0092267D01*
X0109272Y0093265D02*
X0115963Y0093265D01*
X0109272Y0093265D01*
X0109272Y0094264D02*
X0114965Y0094264D01*
X0109272Y0094264D01*
X0109272Y0095262D02*
X0114356Y0095262D01*
X0109272Y0095262D01*
X0109272Y0096261D02*
X0114240Y0096261D01*
X0109272Y0096261D01*
X0109272Y0097259D02*
X0114240Y0097259D01*
X0109272Y0097259D01*
X0109272Y0098258D02*
X0114240Y0098258D01*
X0109272Y0098258D01*
X0109272Y0099256D02*
X0114240Y0099256D01*
X0109272Y0099256D01*
X0109272Y0100255D02*
X0114240Y0100255D01*
X0109272Y0100255D01*
X0109272Y0101253D02*
X0114240Y0101253D01*
X0109272Y0101253D01*
X0109272Y0102252D02*
X0114240Y0102252D01*
X0109272Y0102252D01*
X0109272Y0103250D02*
X0114240Y0103250D01*
X0109272Y0103250D01*
X0109272Y0104249D02*
X0114240Y0104249D01*
X0109272Y0104249D01*
X0109272Y0105247D02*
X0114240Y0105247D01*
X0109272Y0105247D01*
X0109144Y0106246D02*
X0114240Y0106246D01*
X0109144Y0106246D01*
X0108519Y0107245D02*
X0114240Y0107245D01*
X0108519Y0107245D01*
X0107520Y0108243D02*
X0114240Y0108243D01*
X0107520Y0108243D01*
X0107029Y0109242D02*
X0114240Y0109242D01*
X0107029Y0109242D01*
X0108027Y0110240D02*
X0114240Y0110240D01*
X0108027Y0110240D01*
X0108825Y0111239D02*
X0114240Y0111239D01*
X0108825Y0111239D01*
X0109075Y0112237D02*
X0114240Y0112237D01*
X0109075Y0112237D01*
X0109075Y0113236D02*
X0114240Y0113236D01*
X0109075Y0113236D01*
X0109075Y0114234D02*
X0114240Y0114234D01*
X0109075Y0114234D01*
X0109075Y0115233D02*
X0114240Y0115233D01*
X0109075Y0115233D01*
X0109075Y0116231D02*
X0114240Y0116231D01*
X0109075Y0116231D01*
X0109075Y0117230D02*
X0114240Y0117230D01*
X0109075Y0117230D01*
X0109075Y0118228D02*
X0114240Y0118228D01*
X0109075Y0118228D01*
X0109075Y0119227D02*
X0114240Y0119227D01*
X0109075Y0119227D01*
X0109075Y0120225D02*
X0114549Y0120225D01*
X0109075Y0120225D01*
X0109075Y0121224D02*
X0115429Y0121224D01*
X0109075Y0121224D01*
X0109075Y0122222D02*
X0116428Y0122222D01*
X0109075Y0122222D01*
X0109075Y0123221D02*
X0117426Y0123221D01*
X0109075Y0123221D01*
X0109075Y0124219D02*
X0118425Y0124219D01*
X0109075Y0124219D01*
X0109075Y0125218D02*
X0119423Y0125218D01*
X0109075Y0125218D01*
X0109075Y0126216D02*
X0114355Y0126216D01*
X0114380Y0126216D02*
X0109075Y0126216D01*
X0109075Y0127215D02*
X0114114Y0127215D01*
X0109075Y0127215D01*
X0109075Y0128213D02*
X0113925Y0128213D01*
X0114114Y0128213D02*
X0109075Y0128213D01*
X0109075Y0129212D02*
X0114114Y0129212D01*
X0109075Y0129212D01*
X0109075Y0130210D02*
X0114302Y0130210D01*
X0114349Y0130210D02*
X0109075Y0130210D01*
X0104059Y0128850D02*
X0104059Y0122393D01*
X0101484Y0125218D02*
X0099496Y0125218D01*
X0101484Y0125218D01*
X0101484Y0126216D02*
X0099444Y0126216D01*
X0101484Y0126216D01*
X0101484Y0127215D02*
X0080320Y0127215D01*
X0101484Y0127215D01*
X0101055Y0128213D02*
X0079321Y0128213D01*
X0101055Y0128213D01*
X0100056Y0129212D02*
X0078323Y0129212D01*
X0100056Y0129212D01*
X0104059Y0128850D02*
X0096697Y0136212D01*
X0069925Y0136212D01*
X0066382Y0139756D01*
X0066382Y0155740D01*
X0071382Y0160740D01*
X0153705Y0160740D01*
X0161500Y0152945D01*
X0161500Y0132393D01*
X0173154Y0120740D01*
X0176500Y0120740D01*
X0180165Y0121224D02*
X0186500Y0121224D01*
X0186500Y0122222D02*
X0180165Y0122222D01*
X0197136Y0122222D01*
X0196138Y0121224D02*
X0180165Y0121224D01*
X0180165Y0120225D02*
X0186500Y0120225D01*
X0186500Y0119227D02*
X0180165Y0119227D01*
X0195000Y0119227D01*
X0195000Y0120086D02*
X0195000Y0117893D01*
X0201000Y0117893D01*
X0201000Y0116893D01*
X0202000Y0116893D01*
X0202000Y0110893D01*
X0204192Y0110893D01*
X0207000Y0113701D01*
X0207000Y0101086D01*
X0205182Y0102904D01*
X0202793Y0103893D01*
X0200207Y0103893D01*
X0197818Y0102904D01*
X0195990Y0101075D01*
X0195000Y0098686D01*
X0195000Y0096100D01*
X0195990Y0093711D01*
X0197818Y0091883D01*
X0200207Y0090893D01*
X0202793Y0090893D01*
X0205182Y0091883D01*
X0207000Y0093701D01*
X0207000Y0046233D01*
X0205516Y0047090D01*
X0202870Y0047799D01*
X0200130Y0047799D01*
X0197484Y0047090D01*
X0195111Y0045720D01*
X0193174Y0043782D01*
X0191804Y0041410D01*
X0191094Y0038763D01*
X0191094Y0036023D01*
X0191804Y0033377D01*
X0193174Y0031004D01*
X0193460Y0030718D01*
X0192685Y0029942D01*
X0189260Y0026517D01*
X0189260Y0028999D01*
X0188456Y0029803D01*
X0188681Y0029933D01*
X0188960Y0030212D01*
X0189158Y0030555D01*
X0189260Y0030936D01*
X0189260Y0032618D01*
X0186079Y0032618D01*
X0186079Y0033586D01*
X0189260Y0033586D01*
X0189260Y0035268D01*
X0189158Y0035650D01*
X0188960Y0035992D01*
X0188681Y0036271D01*
X0188339Y0036468D01*
X0187957Y0036571D01*
X0186079Y0036571D01*
X0186079Y0033586D01*
X0185110Y0033586D01*
X0185110Y0036571D01*
X0184075Y0036571D01*
X0184075Y0109559D01*
X0183683Y0110505D01*
X0182959Y0111230D01*
X0180165Y0114023D01*
X0180165Y0116637D01*
X0179409Y0117393D01*
X0180165Y0118150D01*
X0180165Y0123330D01*
X0179287Y0124208D01*
X0173713Y0124208D01*
X0173520Y0124015D01*
X0164075Y0133460D01*
X0164075Y0153457D01*
X0163683Y0154403D01*
X0162959Y0155127D01*
X0162958Y0155127D01*
X0155888Y0162198D01*
X0155888Y0162198D01*
X0155692Y0162393D01*
X0185136Y0162393D01*
X0186500Y0161029D01*
X0186500Y0036571D01*
X0184075Y0036571D01*
X0184075Y0108535D01*
X0184075Y0109559D01*
X0183683Y0110505D01*
X0180165Y0114023D01*
X0180165Y0116637D01*
X0179409Y0117393D01*
X0180165Y0118150D01*
X0180165Y0123330D01*
X0179287Y0124208D01*
X0173713Y0124208D01*
X0173520Y0124015D01*
X0164075Y0133460D01*
X0164075Y0153457D01*
X0163683Y0154403D01*
X0155192Y0162893D01*
X0184636Y0162893D01*
X0187000Y0160529D01*
X0187000Y0151498D01*
X0187685Y0149844D01*
X0188951Y0148578D01*
X0192685Y0144844D01*
X0193460Y0144069D01*
X0193174Y0143782D01*
X0191804Y0141410D01*
X0191094Y0138763D01*
X0191094Y0136023D01*
X0191804Y0133377D01*
X0193174Y0131004D01*
X0195111Y0129067D01*
X0197484Y0127697D01*
X0200130Y0126988D01*
X0202870Y0126988D01*
X0205516Y0127697D01*
X0207000Y0128554D01*
X0207000Y0121086D01*
X0204192Y0123893D01*
X0202000Y0123893D01*
X0202000Y0117893D01*
X0201000Y0117893D01*
X0201000Y0123893D01*
X0198808Y0123893D01*
X0195000Y0120086D01*
X0195139Y0120225D02*
X0180165Y0120225D01*
X0180165Y0118228D02*
X0186500Y0118228D01*
X0186500Y0117230D02*
X0179572Y0117230D01*
X0201000Y0117230D01*
X0201000Y0116893D02*
X0195000Y0116893D01*
X0195000Y0114701D01*
X0198808Y0110893D01*
X0201000Y0110893D01*
X0201000Y0116893D01*
X0201000Y0116231D02*
X0202000Y0116231D01*
X0202000Y0115233D02*
X0201000Y0115233D01*
X0201000Y0114234D02*
X0202000Y0114234D01*
X0202000Y0113236D02*
X0201000Y0113236D01*
X0201000Y0112237D02*
X0202000Y0112237D01*
X0202000Y0111239D02*
X0201000Y0111239D01*
X0198462Y0111239D02*
X0182950Y0111239D01*
X0186500Y0111239D01*
X0186500Y0112237D02*
X0181951Y0112237D01*
X0197464Y0112237D01*
X0196465Y0113236D02*
X0180953Y0113236D01*
X0186500Y0113236D01*
X0186500Y0114234D02*
X0180165Y0114234D01*
X0195467Y0114234D01*
X0195000Y0115233D02*
X0180165Y0115233D01*
X0186500Y0115233D01*
X0186500Y0116231D02*
X0180165Y0116231D01*
X0195000Y0116231D01*
X0195000Y0118228D02*
X0180165Y0118228D01*
X0180165Y0123221D02*
X0186500Y0123221D01*
X0186500Y0124219D02*
X0173315Y0124219D01*
X0207000Y0124219D01*
X0207000Y0123221D02*
X0204865Y0123221D01*
X0205864Y0122222D02*
X0207000Y0122222D01*
X0207000Y0121224D02*
X0206862Y0121224D01*
X0207000Y0125218D02*
X0172317Y0125218D01*
X0186500Y0125218D01*
X0186500Y0126216D02*
X0171318Y0126216D01*
X0207000Y0126216D01*
X0207000Y0127215D02*
X0203717Y0127215D01*
X0206411Y0128213D02*
X0207000Y0128213D01*
X0202000Y0123221D02*
X0201000Y0123221D01*
X0201000Y0122222D02*
X0202000Y0122222D01*
X0202000Y0121224D02*
X0201000Y0121224D01*
X0201000Y0120225D02*
X0202000Y0120225D01*
X0202000Y0119227D02*
X0201000Y0119227D01*
X0201000Y0118228D02*
X0202000Y0118228D01*
X0198135Y0123221D02*
X0180165Y0123221D01*
X0186500Y0127215D02*
X0170320Y0127215D01*
X0199283Y0127215D01*
X0196589Y0128213D02*
X0169321Y0128213D01*
X0186500Y0128213D01*
X0186500Y0129212D02*
X0168323Y0129212D01*
X0194966Y0129212D01*
X0193967Y0130210D02*
X0167324Y0130210D01*
X0186500Y0130210D01*
X0186500Y0131209D02*
X0166326Y0131209D01*
X0193055Y0131209D01*
X0192479Y0132207D02*
X0165327Y0132207D01*
X0186500Y0132207D01*
X0186500Y0133206D02*
X0164329Y0133206D01*
X0191902Y0133206D01*
X0191582Y0134204D02*
X0164075Y0134204D01*
X0186500Y0134204D01*
X0186500Y0135203D02*
X0164075Y0135203D01*
X0191314Y0135203D01*
X0191094Y0136201D02*
X0164075Y0136201D01*
X0186500Y0136201D01*
X0186500Y0137200D02*
X0164075Y0137200D01*
X0191094Y0137200D01*
X0191094Y0138198D02*
X0164075Y0138198D01*
X0186500Y0138198D01*
X0186500Y0139197D02*
X0164075Y0139197D01*
X0191211Y0139197D01*
X0191478Y0140195D02*
X0164075Y0140195D01*
X0186500Y0140195D01*
X0186500Y0141194D02*
X0177422Y0141194D01*
X0191746Y0141194D01*
X0192255Y0142192D02*
X0178000Y0142192D01*
X0186500Y0142192D01*
X0186500Y0143191D02*
X0178000Y0143191D01*
X0192832Y0143191D01*
X0193340Y0144189D02*
X0178000Y0144189D01*
X0186500Y0144189D01*
X0186500Y0145188D02*
X0178000Y0145188D01*
X0192341Y0145188D01*
X0192685Y0144844D02*
X0192685Y0144844D01*
X0191343Y0146186D02*
X0178000Y0146186D01*
X0186500Y0146186D01*
X0186500Y0147185D02*
X0178000Y0147185D01*
X0190344Y0147185D01*
X0189346Y0148183D02*
X0178000Y0148183D01*
X0186500Y0148183D01*
X0186500Y0149182D02*
X0178000Y0149182D01*
X0188347Y0149182D01*
X0188951Y0148578D02*
X0188951Y0148578D01*
X0187546Y0150180D02*
X0178000Y0150180D01*
X0186500Y0150180D01*
X0186500Y0151179D02*
X0178000Y0151179D01*
X0187132Y0151179D01*
X0187000Y0152178D02*
X0178000Y0152178D01*
X0186500Y0152178D01*
X0186500Y0153176D02*
X0177839Y0153176D01*
X0187000Y0153176D01*
X0187000Y0154175D02*
X0163777Y0154175D01*
X0186500Y0154175D01*
X0186500Y0155173D02*
X0162913Y0155173D01*
X0187000Y0155173D01*
X0187000Y0156172D02*
X0161914Y0156172D01*
X0186500Y0156172D01*
X0186500Y0157170D02*
X0160916Y0157170D01*
X0187000Y0157170D01*
X0187000Y0158169D02*
X0159917Y0158169D01*
X0186500Y0158169D01*
X0186500Y0159167D02*
X0158919Y0159167D01*
X0187000Y0159167D01*
X0187000Y0160166D02*
X0157920Y0160166D01*
X0186500Y0160166D01*
X0186365Y0161164D02*
X0156922Y0161164D01*
X0186365Y0161164D01*
X0185367Y0162163D02*
X0155923Y0162163D01*
X0185367Y0162163D01*
X0177121Y0153893D02*
X0165879Y0153893D01*
X0165000Y0153015D01*
X0165000Y0141772D01*
X0165879Y0140893D01*
X0177121Y0140893D01*
X0178000Y0141772D01*
X0178000Y0153015D01*
X0177121Y0153893D01*
X0165879Y0153893D01*
X0165000Y0153015D01*
X0165000Y0141772D01*
X0165879Y0140893D01*
X0177121Y0140893D01*
X0178000Y0141772D01*
X0178000Y0153015D01*
X0177121Y0153893D01*
X0165161Y0153176D02*
X0164075Y0153176D01*
X0165161Y0153176D01*
X0165000Y0152178D02*
X0164075Y0152178D01*
X0165000Y0152178D01*
X0165000Y0151179D02*
X0164075Y0151179D01*
X0165000Y0151179D01*
X0165000Y0150180D02*
X0164075Y0150180D01*
X0165000Y0150180D01*
X0165000Y0149182D02*
X0164075Y0149182D01*
X0165000Y0149182D01*
X0165000Y0148183D02*
X0164075Y0148183D01*
X0165000Y0148183D01*
X0165000Y0147185D02*
X0164075Y0147185D01*
X0165000Y0147185D01*
X0165000Y0146186D02*
X0164075Y0146186D01*
X0165000Y0146186D01*
X0165000Y0145188D02*
X0164075Y0145188D01*
X0165000Y0145188D01*
X0165000Y0144189D02*
X0164075Y0144189D01*
X0165000Y0144189D01*
X0165000Y0143191D02*
X0164075Y0143191D01*
X0165000Y0143191D01*
X0165000Y0142192D02*
X0164075Y0142192D01*
X0165000Y0142192D01*
X0165578Y0141194D02*
X0164075Y0141194D01*
X0165578Y0141194D01*
X0158925Y0141194D02*
X0157422Y0141194D01*
X0158925Y0141194D01*
X0158925Y0142192D02*
X0158000Y0142192D01*
X0158925Y0142192D01*
X0158925Y0143191D02*
X0158000Y0143191D01*
X0158925Y0143191D01*
X0158925Y0144189D02*
X0158000Y0144189D01*
X0158925Y0144189D01*
X0158925Y0145188D02*
X0158000Y0145188D01*
X0158925Y0145188D01*
X0158925Y0146186D02*
X0158000Y0146186D01*
X0158925Y0146186D01*
X0158925Y0147185D02*
X0158000Y0147185D01*
X0158925Y0147185D01*
X0158925Y0148183D02*
X0158000Y0148183D01*
X0158925Y0148183D01*
X0158925Y0149182D02*
X0158000Y0149182D01*
X0158925Y0149182D01*
X0158925Y0150180D02*
X0158000Y0150180D01*
X0158925Y0150180D01*
X0158925Y0151179D02*
X0158000Y0151179D01*
X0158925Y0151179D01*
X0158925Y0151878D02*
X0158925Y0131881D01*
X0159317Y0130935D01*
X0160041Y0130211D01*
X0160041Y0130211D01*
X0171695Y0118557D01*
X0172641Y0118165D01*
X0172835Y0118165D01*
X0172835Y0118150D01*
X0173591Y0117393D01*
X0172835Y0116637D01*
X0172835Y0111779D01*
X0165165Y0111779D01*
X0165165Y0116637D01*
X0164409Y0117393D01*
X0165165Y0118150D01*
X0165165Y0123330D01*
X0164287Y0124208D01*
X0161673Y0124208D01*
X0159628Y0126253D01*
X0158903Y0126978D01*
X0157957Y0127370D01*
X0151285Y0127370D01*
X0150911Y0127743D01*
X0149633Y0128273D01*
X0148249Y0128273D01*
X0146971Y0127743D01*
X0145992Y0126765D01*
X0145463Y0125487D01*
X0145463Y0125197D01*
X0145271Y0125389D01*
X0137729Y0125389D01*
X0136850Y0124511D01*
X0136850Y0124205D01*
X0135928Y0124205D01*
X0135059Y0123845D01*
X0135059Y0125578D01*
X0138007Y0125578D01*
X0138094Y0125665D01*
X0141107Y0125665D01*
X0142053Y0126057D01*
X0142777Y0126781D01*
X0143169Y0127728D01*
X0143169Y0145307D01*
X0142777Y0146253D01*
X0142053Y0146978D01*
X0141107Y0147370D01*
X0140165Y0147370D01*
X0140165Y0147185D02*
X0145000Y0147185D01*
X0141553Y0147185D01*
X0142805Y0146186D02*
X0145000Y0146186D01*
X0140165Y0146186D01*
X0139703Y0145188D02*
X0145000Y0145188D01*
X0143169Y0145188D01*
X0143169Y0144189D02*
X0145000Y0144189D01*
X0140113Y0144189D01*
X0140165Y0143191D02*
X0145000Y0143191D01*
X0143169Y0143191D01*
X0143169Y0142192D02*
X0145000Y0142192D01*
X0140165Y0142192D01*
X0140165Y0141194D02*
X0145578Y0141194D01*
X0143169Y0141194D01*
X0143169Y0140195D02*
X0158925Y0140195D01*
X0140165Y0140195D01*
X0140165Y0139197D02*
X0158925Y0139197D01*
X0143169Y0139197D01*
X0143169Y0138198D02*
X0158925Y0138198D01*
X0139407Y0138198D01*
X0139075Y0137200D02*
X0158925Y0137200D01*
X0143169Y0137200D01*
X0143169Y0136201D02*
X0158925Y0136201D01*
X0139075Y0136201D01*
X0138886Y0135203D02*
X0158925Y0135203D01*
X0143169Y0135203D01*
X0143169Y0134204D02*
X0158925Y0134204D01*
X0138326Y0134204D01*
X0138020Y0133206D02*
X0135059Y0133206D01*
X0158925Y0133206D01*
X0143169Y0133206D01*
X0143169Y0132207D02*
X0158925Y0132207D01*
X0135059Y0132207D01*
X0138020Y0132207D01*
X0138020Y0131209D02*
X0135059Y0131209D01*
X0159204Y0131209D01*
X0143169Y0131209D01*
X0143169Y0130210D02*
X0160042Y0130210D01*
X0138651Y0130210D01*
X0138886Y0129212D02*
X0161040Y0129212D01*
X0143169Y0129212D01*
X0143169Y0128213D02*
X0148105Y0128213D01*
X0138886Y0128213D01*
X0138886Y0128240D02*
X0136500Y0128240D01*
X0136500Y0125578D01*
X0137583Y0125578D01*
X0137965Y0125681D01*
X0138307Y0125878D01*
X0138586Y0126157D01*
X0138784Y0126499D01*
X0138886Y0126881D01*
X0138886Y0128240D01*
X0138886Y0127215D02*
X0146442Y0127215D01*
X0142957Y0127215D01*
X0142212Y0126216D02*
X0145765Y0126216D01*
X0138620Y0126216D01*
X0137729Y0125389D02*
X0136850Y0124511D01*
X0136850Y0124205D01*
X0135928Y0124205D01*
X0135059Y0123845D01*
X0135059Y0125674D01*
X0135417Y0125578D01*
X0136500Y0125578D01*
X0136500Y0128240D01*
X0136500Y0128240D01*
X0136500Y0128213D02*
X0136500Y0128213D01*
X0136500Y0127215D02*
X0136500Y0127215D01*
X0136500Y0126216D02*
X0136500Y0126216D01*
X0137557Y0125218D02*
X0135059Y0125218D01*
X0137557Y0125218D01*
X0137729Y0125389D02*
X0145271Y0125389D01*
X0145463Y0125197D01*
X0145463Y0125487D01*
X0145992Y0126765D01*
X0146971Y0127743D01*
X0148249Y0128273D01*
X0149633Y0128273D01*
X0150911Y0127743D01*
X0151285Y0127370D01*
X0157957Y0127370D01*
X0158903Y0126978D01*
X0159628Y0126253D01*
X0161673Y0124208D01*
X0164287Y0124208D01*
X0165165Y0123330D01*
X0165165Y0118150D01*
X0164409Y0117393D01*
X0165165Y0116637D01*
X0165165Y0111779D01*
X0172835Y0111779D01*
X0172835Y0116637D01*
X0173591Y0117393D01*
X0172835Y0118150D01*
X0172835Y0118165D01*
X0172641Y0118165D01*
X0171695Y0118557D01*
X0159317Y0130935D01*
X0158925Y0131881D01*
X0158925Y0151878D01*
X0158000Y0152803D01*
X0158000Y0141772D01*
X0157121Y0140893D01*
X0145879Y0140893D01*
X0145000Y0141772D01*
X0145000Y0153015D01*
X0145879Y0153893D01*
X0156910Y0153893D01*
X0152638Y0158165D01*
X0156910Y0153893D01*
X0145879Y0153893D01*
X0145000Y0153015D01*
X0145000Y0141772D01*
X0145879Y0140893D01*
X0157121Y0140893D01*
X0158000Y0141772D01*
X0158000Y0152803D01*
X0158925Y0151878D01*
X0158626Y0152178D02*
X0158000Y0152178D01*
X0158626Y0152178D01*
X0156629Y0154175D02*
X0134738Y0154175D01*
X0156629Y0154175D01*
X0155630Y0155173D02*
X0133740Y0155173D01*
X0155630Y0155173D01*
X0154632Y0156172D02*
X0132741Y0156172D01*
X0154632Y0156172D01*
X0153633Y0157170D02*
X0131743Y0157170D01*
X0153633Y0157170D01*
X0145161Y0153176D02*
X0135737Y0153176D01*
X0145161Y0153176D01*
X0145000Y0152178D02*
X0136735Y0152178D01*
X0145000Y0152178D01*
X0145000Y0151179D02*
X0139816Y0151179D01*
X0145000Y0151179D01*
X0145000Y0150180D02*
X0140165Y0150180D01*
X0145000Y0150180D01*
X0145000Y0149182D02*
X0140165Y0149182D01*
X0145000Y0149182D01*
X0136500Y0141547D02*
X0136500Y0136547D01*
X0136283Y0136763D01*
X0134217Y0136803D01*
X0132484Y0135267D01*
X0132484Y0120346D01*
X0124098Y0120346D01*
X0119335Y0115582D01*
X0119335Y0109165D01*
X0121146Y0107354D01*
X0125516Y0107354D01*
X0125673Y0107511D01*
X0125673Y0104952D02*
X0135634Y0104952D01*
X0137366Y0106685D01*
X0170988Y0106685D01*
X0174217Y0103456D01*
X0174217Y0077708D01*
X0167287Y0070779D01*
X0172006Y0066306D02*
X0173925Y0066306D01*
X0172006Y0066306D01*
X0173005Y0067304D02*
X0173925Y0067304D01*
X0173005Y0067304D01*
X0173787Y0068303D02*
X0173925Y0068303D01*
X0173787Y0068303D01*
X0173787Y0069301D02*
X0173925Y0069301D01*
X0173787Y0069301D01*
X0173787Y0070300D02*
X0173925Y0070300D01*
X0173787Y0070300D01*
X0173787Y0071298D02*
X0173925Y0071298D01*
X0173787Y0071298D01*
X0173787Y0072297D02*
X0173925Y0072297D01*
X0173787Y0072297D01*
X0173787Y0073295D02*
X0173925Y0073295D01*
X0173787Y0073295D01*
X0170156Y0077289D02*
X0159980Y0077289D01*
X0170156Y0077289D01*
X0170602Y0078288D02*
X0171155Y0078288D01*
X0170602Y0078288D01*
X0171601Y0079286D02*
X0171642Y0079286D01*
X0171601Y0079286D01*
X0163972Y0078288D02*
X0159980Y0078288D01*
X0163972Y0078288D01*
X0162974Y0079286D02*
X0159980Y0079286D01*
X0162974Y0079286D01*
X0161975Y0080285D02*
X0159981Y0080285D01*
X0161975Y0080285D01*
X0160977Y0081283D02*
X0159789Y0081283D01*
X0160977Y0081283D01*
X0160787Y0082282D02*
X0159085Y0082282D01*
X0160787Y0082282D01*
X0160787Y0083280D02*
X0158157Y0083280D01*
X0160787Y0083280D01*
X0160787Y0084279D02*
X0157229Y0084279D01*
X0160787Y0084279D01*
X0160787Y0085277D02*
X0156301Y0085277D01*
X0160787Y0085277D01*
X0160787Y0086276D02*
X0155373Y0086276D01*
X0160787Y0086276D01*
X0161204Y0087274D02*
X0152896Y0087274D01*
X0161204Y0087274D01*
X0162203Y0088273D02*
X0153787Y0088273D01*
X0162203Y0088273D01*
X0163201Y0089271D02*
X0153787Y0089271D01*
X0163201Y0089271D01*
X0164200Y0090270D02*
X0153787Y0090270D01*
X0164200Y0090270D01*
X0164413Y0091268D02*
X0153787Y0091268D01*
X0164413Y0091268D01*
X0164413Y0092267D02*
X0153787Y0092267D01*
X0164413Y0092267D01*
X0164413Y0093265D02*
X0153787Y0093265D01*
X0164413Y0093265D01*
X0161721Y0094264D02*
X0161279Y0094264D01*
X0161721Y0094264D01*
X0161500Y0100302D02*
X0160940Y0100862D01*
X0155367Y0100862D01*
X0154773Y0100268D01*
X0153251Y0100268D01*
X0152194Y0099830D01*
X0151386Y0099022D01*
X0149722Y0097358D01*
X0144595Y0097358D01*
X0142697Y0095460D01*
X0142697Y0098654D01*
X0142305Y0099600D01*
X0141581Y0100324D01*
X0138114Y0103791D01*
X0138433Y0104110D01*
X0169922Y0104110D01*
X0171642Y0102390D01*
X0171642Y0089003D01*
X0170162Y0090483D01*
X0170162Y0095524D01*
X0169725Y0096581D01*
X0168916Y0097390D01*
X0168512Y0097794D01*
X0168512Y0099983D01*
X0167633Y0100862D01*
X0162060Y0100862D01*
X0161500Y0100302D01*
X0168240Y0100255D02*
X0171642Y0100255D01*
X0171642Y0101253D02*
X0140651Y0101253D01*
X0141650Y0100255D02*
X0153219Y0100255D01*
X0151620Y0099256D02*
X0142447Y0099256D01*
X0142697Y0098258D02*
X0150622Y0098258D01*
X0154759Y0094264D02*
X0155028Y0094264D01*
X0154759Y0094264D01*
X0153783Y0084204D02*
X0144413Y0084204D01*
X0140122Y0088220D01*
X0140122Y0098141D01*
X0135870Y0102393D01*
X0125673Y0102393D01*
X0125673Y0099834D02*
X0125673Y0099756D01*
X0133823Y0099756D01*
X0137878Y0095700D01*
X0137878Y0080504D01*
X0140909Y0077472D01*
X0147287Y0077472D01*
X0142800Y0082177D02*
X0141323Y0080700D01*
X0140453Y0081570D01*
X0140453Y0084384D01*
X0142623Y0082354D01*
X0142800Y0082177D01*
X0142695Y0082282D02*
X0140453Y0082282D01*
X0140453Y0083280D02*
X0141633Y0083280D01*
X0140566Y0084279D02*
X0140453Y0084279D01*
X0140740Y0081283D02*
X0141906Y0081283D01*
X0136453Y0078288D02*
X0134894Y0078288D01*
X0136453Y0078288D01*
X0137451Y0077289D02*
X0133895Y0077289D01*
X0137451Y0077289D01*
X0138450Y0076291D02*
X0132897Y0076291D01*
X0138450Y0076291D01*
X0139448Y0075292D02*
X0131898Y0075292D01*
X0139448Y0075292D01*
X0141273Y0074294D02*
X0130900Y0074294D01*
X0141273Y0074294D01*
X0142272Y0073295D02*
X0131735Y0073295D01*
X0142272Y0073295D01*
X0143271Y0072297D02*
X0131996Y0072297D01*
X0143271Y0072297D01*
X0144269Y0071298D02*
X0131996Y0071298D01*
X0144269Y0071298D01*
X0144308Y0070300D02*
X0131996Y0070300D01*
X0144308Y0070300D01*
X0143310Y0069301D02*
X0131996Y0069301D01*
X0143310Y0069301D01*
X0142311Y0068303D02*
X0131996Y0068303D01*
X0142311Y0068303D01*
X0141313Y0067304D02*
X0131996Y0067304D01*
X0141313Y0067304D01*
X0140787Y0066306D02*
X0131996Y0066306D01*
X0140787Y0066306D01*
X0140787Y0065307D02*
X0131996Y0065307D01*
X0140787Y0065307D01*
X0140787Y0064309D02*
X0131996Y0064309D01*
X0140787Y0064309D01*
X0140787Y0063310D02*
X0131996Y0063310D01*
X0140787Y0063310D01*
X0140787Y0062311D02*
X0131996Y0062311D01*
X0140787Y0062311D01*
X0140868Y0061313D02*
X0131557Y0061313D01*
X0140868Y0061313D01*
X0141867Y0060314D02*
X0128051Y0060314D01*
X0141867Y0060314D01*
X0142865Y0059316D02*
X0128051Y0059316D01*
X0142865Y0059316D01*
X0143864Y0058317D02*
X0128051Y0058317D01*
X0143864Y0058317D01*
X0143715Y0056320D02*
X0128051Y0056320D01*
X0143715Y0056320D01*
X0142716Y0055322D02*
X0128051Y0055322D01*
X0142716Y0055322D01*
X0141718Y0054323D02*
X0128051Y0054323D01*
X0141718Y0054323D01*
X0140787Y0053325D02*
X0128051Y0053325D01*
X0140787Y0053325D01*
X0140787Y0052326D02*
X0128051Y0052326D01*
X0140787Y0052326D01*
X0140787Y0051328D02*
X0128051Y0051328D01*
X0140787Y0051328D01*
X0140787Y0050329D02*
X0128051Y0050329D01*
X0146803Y0050329D01*
X0147772Y0050329D02*
X0164417Y0050329D01*
X0153787Y0050329D01*
X0153787Y0049331D02*
X0163418Y0049331D01*
X0153787Y0049331D01*
X0153787Y0048332D02*
X0162420Y0048332D01*
X0153787Y0048332D01*
X0153113Y0047334D02*
X0161421Y0047334D01*
X0153113Y0047334D01*
X0153787Y0051328D02*
X0164161Y0051328D01*
X0153787Y0051328D01*
X0153787Y0052326D02*
X0163162Y0052326D01*
X0153787Y0052326D01*
X0153787Y0053325D02*
X0162163Y0053325D01*
X0153787Y0053325D01*
X0152857Y0054323D02*
X0161165Y0054323D01*
X0152857Y0054323D01*
X0151858Y0055322D02*
X0160787Y0055322D01*
X0151858Y0055322D01*
X0150860Y0056320D02*
X0160787Y0056320D01*
X0150860Y0056320D01*
X0150711Y0058317D02*
X0160787Y0058317D01*
X0150711Y0058317D01*
X0151709Y0059316D02*
X0160787Y0059316D01*
X0151709Y0059316D01*
X0152708Y0060314D02*
X0161016Y0060314D01*
X0152708Y0060314D01*
X0153706Y0061313D02*
X0162015Y0061313D01*
X0153706Y0061313D01*
X0154610Y0064086D02*
X0147287Y0064086D01*
X0152263Y0068303D02*
X0154831Y0068303D01*
X0152263Y0068303D01*
X0151265Y0069301D02*
X0154831Y0069301D01*
X0151265Y0069301D01*
X0150266Y0070300D02*
X0154831Y0070300D01*
X0150266Y0070300D01*
X0150306Y0071298D02*
X0154831Y0071298D01*
X0150306Y0071298D01*
X0151304Y0072297D02*
X0154831Y0072297D01*
X0151304Y0072297D01*
X0152303Y0073295D02*
X0154831Y0073295D01*
X0152303Y0073295D01*
X0153301Y0074294D02*
X0154831Y0074294D01*
X0153301Y0074294D01*
X0153787Y0075292D02*
X0154831Y0075292D01*
X0153787Y0075292D01*
X0153787Y0076291D02*
X0154831Y0076291D01*
X0153787Y0076291D01*
X0153787Y0077289D02*
X0154831Y0077289D01*
X0153787Y0077289D01*
X0153787Y0078288D02*
X0154831Y0078288D01*
X0153787Y0078288D01*
X0153787Y0079286D02*
X0154831Y0079286D01*
X0153787Y0079286D01*
X0153667Y0080285D02*
X0153911Y0080285D01*
X0153667Y0080285D01*
X0152983Y0081283D02*
X0152669Y0081283D01*
X0152983Y0081283D01*
X0153783Y0084204D02*
X0157406Y0080307D01*
X0157406Y0066882D01*
X0154610Y0064086D01*
X0156477Y0062311D02*
X0163013Y0062311D01*
X0156477Y0062311D01*
X0157475Y0063310D02*
X0164012Y0063310D01*
X0157475Y0063310D01*
X0158474Y0064309D02*
X0164566Y0064309D01*
X0158474Y0064309D01*
X0159472Y0065307D02*
X0163567Y0065307D01*
X0159472Y0065307D01*
X0159954Y0066306D02*
X0162569Y0066306D01*
X0159954Y0066306D01*
X0159980Y0067304D02*
X0161570Y0067304D01*
X0159980Y0067304D01*
X0159980Y0068303D02*
X0160787Y0068303D01*
X0159980Y0068303D01*
X0159980Y0069301D02*
X0160787Y0069301D01*
X0159980Y0069301D01*
X0159980Y0070300D02*
X0160787Y0070300D01*
X0159980Y0070300D01*
X0159980Y0071298D02*
X0160787Y0071298D01*
X0159980Y0071298D01*
X0159980Y0072297D02*
X0160787Y0072297D01*
X0159980Y0072297D01*
X0159980Y0073295D02*
X0160787Y0073295D01*
X0159980Y0073295D01*
X0159980Y0074294D02*
X0161609Y0074294D01*
X0159980Y0074294D01*
X0159980Y0075292D02*
X0162608Y0075292D01*
X0159980Y0075292D01*
X0159980Y0076291D02*
X0163606Y0076291D01*
X0159980Y0076291D01*
X0154187Y0067304D02*
X0153262Y0067304D01*
X0154187Y0067304D01*
X0160787Y0060086D02*
X0160787Y0054701D01*
X0164595Y0050893D01*
X0169980Y0050893D01*
X0173787Y0054701D01*
X0173787Y0060086D01*
X0169980Y0063893D01*
X0164595Y0063893D01*
X0160787Y0060086D01*
X0160787Y0054701D01*
X0164595Y0050893D01*
X0169980Y0050893D01*
X0173787Y0054701D01*
X0173787Y0060086D01*
X0169980Y0063893D01*
X0164595Y0063893D01*
X0160787Y0060086D01*
X0160787Y0057319D02*
X0128051Y0057319D01*
X0160787Y0057319D01*
X0170414Y0051328D02*
X0173925Y0051328D01*
X0170414Y0051328D01*
X0170158Y0050329D02*
X0173925Y0050329D01*
X0170158Y0050329D01*
X0171156Y0049331D02*
X0173925Y0049331D01*
X0171156Y0049331D01*
X0172155Y0048332D02*
X0173925Y0048332D01*
X0172155Y0048332D01*
X0173153Y0047334D02*
X0173925Y0047334D01*
X0173153Y0047334D01*
X0173787Y0046335D02*
X0173925Y0046335D01*
X0173787Y0046335D01*
X0173787Y0045337D02*
X0173925Y0045337D01*
X0173787Y0045337D01*
X0173787Y0044338D02*
X0173925Y0044338D01*
X0173787Y0044338D01*
X0173787Y0043340D02*
X0173805Y0043340D01*
X0173787Y0043340D01*
X0176500Y0042393D02*
X0176500Y0105110D01*
X0172406Y0109204D01*
X0161500Y0109204D01*
X0161500Y0114047D01*
X0165165Y0114234D02*
X0172835Y0114234D01*
X0165165Y0114234D01*
X0165165Y0113236D02*
X0172835Y0113236D01*
X0165165Y0113236D01*
X0165165Y0112237D02*
X0172835Y0112237D01*
X0165165Y0112237D01*
X0165165Y0115233D02*
X0172835Y0115233D01*
X0165165Y0115233D01*
X0165165Y0116231D02*
X0172835Y0116231D01*
X0165165Y0116231D01*
X0164572Y0117230D02*
X0173428Y0117230D01*
X0164572Y0117230D01*
X0165165Y0118228D02*
X0172489Y0118228D01*
X0165165Y0118228D01*
X0165165Y0119227D02*
X0171025Y0119227D01*
X0165165Y0119227D01*
X0165165Y0120225D02*
X0170027Y0120225D01*
X0165165Y0120225D01*
X0165165Y0121224D02*
X0169028Y0121224D01*
X0165165Y0121224D01*
X0165165Y0122222D02*
X0168030Y0122222D01*
X0165165Y0122222D01*
X0165165Y0123221D02*
X0167031Y0123221D01*
X0165165Y0123221D01*
X0166033Y0124219D02*
X0161662Y0124219D01*
X0166033Y0124219D01*
X0165034Y0125218D02*
X0160663Y0125218D01*
X0165034Y0125218D01*
X0164036Y0126216D02*
X0159665Y0126216D01*
X0164036Y0126216D01*
X0163037Y0127215D02*
X0158331Y0127215D01*
X0163037Y0127215D01*
X0162039Y0128213D02*
X0149777Y0128213D01*
X0162039Y0128213D01*
X0157445Y0124795D02*
X0148941Y0124795D01*
X0145463Y0125218D02*
X0145443Y0125218D01*
X0145463Y0125218D01*
X0146150Y0118456D02*
X0146620Y0118456D01*
X0145914Y0117749D01*
X0145657Y0117129D01*
X0145393Y0117393D01*
X0146150Y0118150D01*
X0146150Y0118456D01*
X0149513Y0118456D01*
X0150569Y0118893D01*
X0151378Y0119702D01*
X0151816Y0120759D01*
X0151816Y0122220D01*
X0156378Y0122220D01*
X0157835Y0120764D01*
X0157835Y0118150D01*
X0158591Y0117393D01*
X0157835Y0116637D01*
X0157835Y0111779D01*
X0151251Y0111779D01*
X0151299Y0111828D01*
X0151737Y0112885D01*
X0151737Y0113735D01*
X0151811Y0113809D01*
X0152340Y0115087D01*
X0152340Y0116471D01*
X0151811Y0117749D01*
X0150832Y0118728D01*
X0150501Y0118865D01*
X0150569Y0118893D01*
X0151378Y0119702D01*
X0151816Y0120759D01*
X0151816Y0122220D01*
X0156378Y0122220D01*
X0157835Y0120764D01*
X0157835Y0118150D01*
X0158591Y0117393D01*
X0157835Y0116637D01*
X0157835Y0111779D01*
X0146150Y0111779D01*
X0146150Y0112956D01*
X0142000Y0112956D01*
X0142000Y0111779D01*
X0141000Y0111779D01*
X0141000Y0112956D01*
X0142000Y0112956D01*
X0142000Y0113956D01*
X0146150Y0113956D01*
X0146150Y0116213D01*
X0146047Y0116594D01*
X0145850Y0116936D01*
X0145571Y0117216D01*
X0145345Y0117346D01*
X0146150Y0118150D01*
X0146150Y0118456D01*
X0146150Y0118228D02*
X0146393Y0118228D01*
X0146150Y0118228D02*
X0157835Y0118228D01*
X0151332Y0118228D01*
X0150903Y0119227D02*
X0157835Y0119227D01*
X0150903Y0119227D01*
X0151595Y0120225D02*
X0157835Y0120225D01*
X0151595Y0120225D01*
X0151816Y0121224D02*
X0157375Y0121224D01*
X0151816Y0121224D01*
X0152026Y0117230D02*
X0158428Y0117230D01*
X0145547Y0117230D01*
X0145557Y0117230D02*
X0145698Y0117230D01*
X0146145Y0116231D02*
X0157835Y0116231D01*
X0152340Y0116231D01*
X0152340Y0115233D02*
X0157835Y0115233D01*
X0146150Y0115233D01*
X0146150Y0114234D02*
X0157835Y0114234D01*
X0151987Y0114234D01*
X0151737Y0113236D02*
X0157835Y0113236D01*
X0142000Y0113236D01*
X0142000Y0112237D02*
X0141000Y0112237D01*
X0141000Y0112956D02*
X0136850Y0112956D01*
X0136850Y0111779D01*
X0135244Y0111779D01*
X0134612Y0112411D01*
X0133666Y0112803D01*
X0130618Y0112803D01*
X0130618Y0113713D01*
X0130618Y0114519D01*
X0136850Y0114519D01*
X0136850Y0113956D01*
X0141000Y0113956D01*
X0141000Y0112956D01*
X0141000Y0113236D02*
X0130618Y0113236D01*
X0130618Y0114234D02*
X0136850Y0114234D01*
X0136850Y0112237D02*
X0134786Y0112237D01*
X0133154Y0110228D02*
X0125831Y0110228D01*
X0125673Y0110071D01*
X0125673Y0110149D01*
X0130618Y0107653D02*
X0132087Y0107653D01*
X0132213Y0107527D01*
X0130618Y0107527D01*
X0130618Y0107653D01*
X0133154Y0110228D02*
X0134177Y0109204D01*
X0161500Y0109204D01*
X0157835Y0112237D02*
X0151469Y0112237D01*
X0146150Y0112237D02*
X0157835Y0112237D01*
X0161500Y0120740D02*
X0157445Y0124795D01*
X0174673Y0110578D02*
X0176327Y0110578D01*
X0178925Y0107980D01*
X0178925Y0105983D01*
X0178683Y0106568D01*
X0174673Y0110578D01*
X0175011Y0110240D02*
X0176666Y0110240D01*
X0176010Y0109242D02*
X0177664Y0109242D01*
X0177008Y0108243D02*
X0178663Y0108243D01*
X0178925Y0107245D02*
X0178007Y0107245D01*
X0178816Y0106246D02*
X0178925Y0106246D01*
X0181500Y0109047D02*
X0181500Y0030504D01*
X0185594Y0026409D01*
X0171579Y0012393D01*
X0146500Y0012393D01*
X0139256Y0019637D01*
X0139295Y0019677D01*
X0139295Y0040819D01*
X0142484Y0044008D01*
X0167287Y0044008D01*
X0162213Y0039889D02*
X0153787Y0039889D01*
X0153787Y0040007D01*
X0152362Y0041433D01*
X0160787Y0041433D01*
X0160787Y0041315D01*
X0162213Y0039889D01*
X0161758Y0040344D02*
X0153450Y0040344D01*
X0152452Y0041343D02*
X0160787Y0041343D01*
X0162213Y0034740D02*
X0153787Y0034740D01*
X0153787Y0034622D01*
X0149980Y0030815D01*
X0144595Y0030815D01*
X0141870Y0033540D01*
X0141870Y0027704D01*
X0144595Y0030429D01*
X0149980Y0030429D01*
X0153787Y0026621D01*
X0153787Y0021494D01*
X0154893Y0020388D01*
X0155367Y0020862D01*
X0160940Y0020862D01*
X0161500Y0020302D01*
X0162060Y0020862D01*
X0164249Y0020862D01*
X0164413Y0021025D01*
X0164413Y0024304D01*
X0160787Y0027929D01*
X0160787Y0033314D01*
X0162213Y0034740D01*
X0161827Y0034353D02*
X0153518Y0034353D01*
X0152520Y0033355D02*
X0160828Y0033355D01*
X0160787Y0032356D02*
X0151521Y0032356D01*
X0150523Y0031358D02*
X0160787Y0031358D01*
X0160787Y0030359D02*
X0150049Y0030359D01*
X0151048Y0029361D02*
X0160787Y0029361D01*
X0160787Y0028362D02*
X0152046Y0028362D01*
X0153045Y0027364D02*
X0161353Y0027364D01*
X0162352Y0026365D02*
X0153787Y0026365D01*
X0153787Y0025367D02*
X0163350Y0025367D01*
X0164349Y0024368D02*
X0153787Y0024368D01*
X0153787Y0023370D02*
X0164413Y0023370D01*
X0164413Y0022371D02*
X0153787Y0022371D01*
X0153909Y0021373D02*
X0164413Y0021373D01*
X0161572Y0020374D02*
X0161428Y0020374D01*
X0168512Y0016993D02*
X0168512Y0014968D01*
X0170512Y0014968D01*
X0181929Y0026385D01*
X0181929Y0026433D01*
X0179317Y0029045D01*
X0178925Y0029991D01*
X0178925Y0041520D01*
X0178683Y0040935D01*
X0177959Y0040211D01*
X0172880Y0035132D01*
X0172236Y0034865D01*
X0173787Y0033314D01*
X0173787Y0027929D01*
X0170162Y0024304D01*
X0170162Y0019262D01*
X0169725Y0018206D01*
X0168916Y0017397D01*
X0168512Y0016993D01*
X0168897Y0017378D02*
X0172923Y0017378D01*
X0171924Y0016380D02*
X0168512Y0016380D01*
X0168512Y0015381D02*
X0170926Y0015381D01*
X0169795Y0018377D02*
X0173921Y0018377D01*
X0174920Y0019376D02*
X0170162Y0019376D01*
X0170162Y0020374D02*
X0175918Y0020374D01*
X0176917Y0021373D02*
X0170162Y0021373D01*
X0170162Y0022371D02*
X0177915Y0022371D01*
X0178914Y0023370D02*
X0170162Y0023370D01*
X0170226Y0024368D02*
X0179912Y0024368D01*
X0180911Y0025367D02*
X0171225Y0025367D01*
X0172223Y0026365D02*
X0181909Y0026365D01*
X0180999Y0027364D02*
X0173222Y0027364D01*
X0173787Y0028362D02*
X0180000Y0028362D01*
X0179186Y0029361D02*
X0173787Y0029361D01*
X0173787Y0030359D02*
X0178925Y0030359D01*
X0178925Y0031358D02*
X0173787Y0031358D01*
X0173787Y0032356D02*
X0178925Y0032356D01*
X0178925Y0033355D02*
X0173747Y0033355D01*
X0172748Y0034353D02*
X0178925Y0034353D01*
X0178925Y0035352D02*
X0173100Y0035352D01*
X0174098Y0036350D02*
X0178925Y0036350D01*
X0178925Y0037349D02*
X0175097Y0037349D01*
X0176095Y0038347D02*
X0178925Y0038347D01*
X0178925Y0039346D02*
X0177094Y0039346D01*
X0178092Y0040344D02*
X0178925Y0040344D01*
X0178925Y0041343D02*
X0178852Y0041343D01*
X0176500Y0042393D02*
X0171421Y0037315D01*
X0147287Y0037315D01*
X0143053Y0032356D02*
X0141870Y0032356D01*
X0141870Y0031358D02*
X0144052Y0031358D01*
X0144525Y0030359D02*
X0141870Y0030359D01*
X0141870Y0029361D02*
X0143527Y0029361D01*
X0142528Y0028362D02*
X0141870Y0028362D01*
X0136720Y0028362D02*
X0131996Y0028362D01*
X0136720Y0028362D01*
X0136720Y0027364D02*
X0131996Y0027364D01*
X0136720Y0027364D01*
X0136720Y0026365D02*
X0131996Y0026365D01*
X0136720Y0026365D01*
X0136720Y0025367D02*
X0131996Y0025367D01*
X0136720Y0025367D01*
X0136720Y0024368D02*
X0131996Y0024368D01*
X0136720Y0024368D01*
X0136720Y0023370D02*
X0131996Y0023370D01*
X0136720Y0023370D01*
X0136720Y0022371D02*
X0131996Y0022371D01*
X0136720Y0022371D01*
X0136720Y0021373D02*
X0131616Y0021373D01*
X0136720Y0021373D01*
X0136720Y0020374D02*
X0054626Y0020374D01*
X0136720Y0020374D01*
X0136681Y0019376D02*
X0026500Y0019376D01*
X0026000Y0019376D02*
X0136681Y0019376D01*
X0136991Y0018377D02*
X0026500Y0018377D01*
X0026000Y0018377D02*
X0136991Y0018377D01*
X0137874Y0017378D02*
X0026500Y0017378D01*
X0026000Y0017378D02*
X0137874Y0017378D01*
X0138872Y0016380D02*
X0026500Y0016380D01*
X0026000Y0016380D02*
X0138872Y0016380D01*
X0139871Y0015381D02*
X0026000Y0015381D01*
X0026500Y0015381D02*
X0139871Y0015381D01*
X0140869Y0014383D02*
X0026000Y0014383D01*
X0026500Y0014383D02*
X0140869Y0014383D01*
X0141868Y0013384D02*
X0026873Y0013384D01*
X0141868Y0013384D01*
X0142866Y0012386D02*
X0027871Y0012386D01*
X0026500Y0020374D02*
X0040422Y0020374D01*
X0026000Y0020374D01*
X0026000Y0021373D02*
X0040024Y0021373D01*
X0026500Y0021373D01*
X0026500Y0022371D02*
X0040024Y0022371D01*
X0026000Y0022371D01*
X0040024Y0020772D02*
X0040024Y0034015D01*
X0040902Y0034893D01*
X0054145Y0034893D01*
X0055024Y0034015D01*
X0055024Y0020772D01*
X0054145Y0019893D01*
X0040902Y0019893D01*
X0040024Y0020772D01*
X0040902Y0019893D01*
X0054145Y0019893D01*
X0055024Y0020772D01*
X0055024Y0034015D01*
X0054145Y0034893D01*
X0040902Y0034893D01*
X0040024Y0034015D01*
X0040024Y0020772D01*
X0055024Y0021373D02*
X0056974Y0021373D01*
X0055024Y0021373D01*
X0055024Y0022371D02*
X0056594Y0022371D01*
X0055024Y0022371D01*
X0055024Y0023370D02*
X0056594Y0023370D01*
X0055024Y0023370D01*
X0055024Y0024368D02*
X0056594Y0024368D01*
X0055024Y0024368D01*
X0055024Y0025367D02*
X0056594Y0025367D01*
X0055024Y0025367D01*
X0055024Y0026365D02*
X0056594Y0026365D01*
X0055024Y0026365D01*
X0055024Y0027364D02*
X0056594Y0027364D01*
X0055024Y0027364D01*
X0055024Y0028362D02*
X0056594Y0028362D01*
X0055024Y0028362D01*
X0055024Y0029361D02*
X0056594Y0029361D01*
X0055024Y0029361D01*
X0055024Y0030359D02*
X0056594Y0030359D01*
X0055024Y0030359D01*
X0055024Y0031358D02*
X0056594Y0031358D01*
X0055024Y0031358D01*
X0055024Y0032356D02*
X0056594Y0032356D01*
X0055024Y0032356D01*
X0055024Y0033355D02*
X0056915Y0033355D01*
X0055024Y0033355D01*
X0054685Y0034353D02*
X0107311Y0034353D01*
X0054685Y0034353D01*
X0056594Y0033034D02*
X0056594Y0021752D01*
X0057473Y0020874D01*
X0068755Y0020874D01*
X0069634Y0021752D01*
X0069634Y0033034D01*
X0068755Y0033913D01*
X0057473Y0033913D01*
X0056594Y0033034D01*
X0056594Y0021752D01*
X0057473Y0020874D01*
X0068755Y0020874D01*
X0069634Y0021752D01*
X0069634Y0033034D01*
X0068755Y0033913D01*
X0057473Y0033913D01*
X0056594Y0033034D01*
X0069314Y0033355D02*
X0072505Y0033355D01*
X0069314Y0033355D01*
X0069634Y0032356D02*
X0072185Y0032356D01*
X0069634Y0032356D01*
X0069634Y0031358D02*
X0072185Y0031358D01*
X0069634Y0031358D01*
X0069634Y0030359D02*
X0072185Y0030359D01*
X0069634Y0030359D01*
X0069634Y0029361D02*
X0072185Y0029361D01*
X0069634Y0029361D01*
X0069634Y0028362D02*
X0072185Y0028362D01*
X0069634Y0028362D01*
X0069634Y0027364D02*
X0072185Y0027364D01*
X0069634Y0027364D01*
X0069634Y0026365D02*
X0072185Y0026365D01*
X0069634Y0026365D01*
X0069634Y0025367D02*
X0072185Y0025367D01*
X0069634Y0025367D01*
X0069634Y0024368D02*
X0072185Y0024368D01*
X0069634Y0024368D01*
X0069634Y0023370D02*
X0072185Y0023370D01*
X0069634Y0023370D01*
X0069634Y0022371D02*
X0072185Y0022371D01*
X0069634Y0022371D01*
X0069254Y0021373D02*
X0072565Y0021373D01*
X0069254Y0021373D01*
X0072185Y0021752D02*
X0073064Y0020874D01*
X0084346Y0020874D01*
X0085224Y0021752D01*
X0085224Y0033034D01*
X0084346Y0033913D01*
X0073064Y0033913D01*
X0072185Y0033034D01*
X0072185Y0021752D01*
X0073064Y0020874D01*
X0084346Y0020874D01*
X0085224Y0021752D01*
X0085224Y0033034D01*
X0084346Y0033913D01*
X0073064Y0033913D01*
X0072185Y0033034D01*
X0072185Y0021752D01*
X0084845Y0021373D02*
X0088155Y0021373D01*
X0084845Y0021373D01*
X0085224Y0022371D02*
X0087776Y0022371D01*
X0085224Y0022371D01*
X0085224Y0023370D02*
X0087776Y0023370D01*
X0085224Y0023370D01*
X0085224Y0024368D02*
X0087776Y0024368D01*
X0085224Y0024368D01*
X0085224Y0025367D02*
X0087776Y0025367D01*
X0085224Y0025367D01*
X0085224Y0026365D02*
X0087776Y0026365D01*
X0085224Y0026365D01*
X0085224Y0027364D02*
X0087776Y0027364D01*
X0087776Y0026893D02*
X0087776Y0022176D01*
X0087878Y0021795D01*
X0088075Y0021453D01*
X0088355Y0021173D01*
X0088697Y0020976D01*
X0089078Y0020874D01*
X0093795Y0020874D01*
X0093795Y0026893D01*
X0094795Y0026893D01*
X0094795Y0020874D01*
X0099512Y0020874D01*
X0099894Y0020976D01*
X0100236Y0021173D01*
X0100515Y0021453D01*
X0100713Y0021795D01*
X0100815Y0022176D01*
X0100815Y0026893D01*
X0094795Y0026893D01*
X0094795Y0027893D01*
X0100815Y0027893D01*
X0100815Y0032611D01*
X0100713Y0032992D01*
X0100515Y0033334D01*
X0100236Y0033613D01*
X0099894Y0033811D01*
X0099512Y0033913D01*
X0094795Y0033913D01*
X0094795Y0027893D01*
X0093795Y0027893D01*
X0093795Y0026893D01*
X0087776Y0026893D01*
X0087776Y0027893D02*
X0087776Y0032611D01*
X0087878Y0032992D01*
X0088075Y0033334D01*
X0088355Y0033613D01*
X0088697Y0033811D01*
X0089078Y0033913D01*
X0093795Y0033913D01*
X0093795Y0027893D01*
X0087776Y0027893D01*
X0087776Y0028362D02*
X0085224Y0028362D01*
X0087776Y0028362D01*
X0087776Y0029361D02*
X0085224Y0029361D01*
X0087776Y0029361D01*
X0087776Y0030359D02*
X0085224Y0030359D01*
X0087776Y0030359D01*
X0087776Y0031358D02*
X0085224Y0031358D01*
X0087776Y0031358D01*
X0087776Y0032356D02*
X0085224Y0032356D01*
X0087776Y0032356D01*
X0087776Y0033034D02*
X0087776Y0021752D01*
X0088654Y0020874D01*
X0099936Y0020874D01*
X0100815Y0021752D01*
X0100815Y0033034D01*
X0099936Y0033913D01*
X0088654Y0033913D01*
X0087776Y0033034D01*
X0088096Y0033355D02*
X0084904Y0033355D01*
X0088096Y0033355D01*
X0093795Y0033355D02*
X0094795Y0033355D01*
X0094795Y0032356D02*
X0093795Y0032356D01*
X0093795Y0031358D02*
X0094795Y0031358D01*
X0094795Y0030359D02*
X0093795Y0030359D01*
X0093795Y0029361D02*
X0094795Y0029361D01*
X0094795Y0028362D02*
X0093795Y0028362D01*
X0093795Y0027364D02*
X0085224Y0027364D01*
X0093795Y0026365D02*
X0094795Y0026365D01*
X0094795Y0025367D02*
X0093795Y0025367D01*
X0093795Y0024368D02*
X0094795Y0024368D01*
X0094795Y0023370D02*
X0093795Y0023370D01*
X0093795Y0022371D02*
X0094795Y0022371D01*
X0094795Y0021373D02*
X0093795Y0021373D01*
X0094795Y0027364D02*
X0103366Y0027364D01*
X0100815Y0027364D01*
X0100815Y0028362D02*
X0103366Y0028362D01*
X0100815Y0028362D01*
X0100815Y0029361D02*
X0103366Y0029361D01*
X0100815Y0029361D01*
X0100815Y0030359D02*
X0103366Y0030359D01*
X0100815Y0030359D01*
X0100815Y0031358D02*
X0103366Y0031358D01*
X0100815Y0031358D01*
X0100815Y0032356D02*
X0103366Y0032356D01*
X0100815Y0032356D01*
X0100495Y0033355D02*
X0103686Y0033355D01*
X0100495Y0033355D01*
X0100815Y0026365D02*
X0103366Y0026365D01*
X0100815Y0026365D01*
X0100815Y0025367D02*
X0103366Y0025367D01*
X0100815Y0025367D01*
X0100815Y0024368D02*
X0103366Y0024368D01*
X0100815Y0024368D01*
X0100815Y0023370D02*
X0103366Y0023370D01*
X0100815Y0023370D01*
X0100815Y0022371D02*
X0103366Y0022371D01*
X0100815Y0022371D01*
X0100435Y0021373D02*
X0103746Y0021373D01*
X0100435Y0021373D01*
X0109886Y0027393D02*
X0109886Y0067393D01*
X0109886Y0070779D01*
X0116500Y0077393D01*
X0126500Y0077393D01*
X0132799Y0083693D01*
X0132799Y0092275D01*
X0130280Y0094795D01*
X0125752Y0094795D01*
X0125673Y0094716D01*
X0125634Y0092197D02*
X0125673Y0092157D01*
X0125634Y0092197D02*
X0120673Y0092197D01*
X0116815Y0096055D01*
X0116815Y0118968D01*
X0122602Y0124756D01*
X0122602Y0135307D01*
X0124689Y0137393D01*
X0126500Y0137393D01*
X0126500Y0136547D01*
X0126500Y0137393D02*
X0126500Y0141547D01*
X0130165Y0141194D02*
X0132835Y0141194D01*
X0132835Y0142192D02*
X0130165Y0142192D01*
X0130165Y0143191D02*
X0132835Y0143191D01*
X0132887Y0144189D02*
X0130113Y0144189D01*
X0130280Y0144795D02*
X0130280Y0128240D01*
X0126500Y0128240D01*
X0126500Y0128240D01*
X0126500Y0130901D01*
X0126500Y0128240D01*
X0128886Y0128240D01*
X0126500Y0128240D01*
X0126500Y0128240D01*
X0126500Y0125578D01*
X0126500Y0128240D01*
X0126500Y0128240D01*
X0126500Y0128213D02*
X0126500Y0128213D01*
X0126500Y0127215D02*
X0126500Y0127215D01*
X0126500Y0126216D02*
X0126500Y0126216D01*
X0125177Y0125218D02*
X0129909Y0125218D01*
X0125177Y0125218D01*
X0125167Y0124219D02*
X0129909Y0124219D01*
X0125167Y0124219D01*
X0124709Y0123221D02*
X0129909Y0123221D01*
X0124709Y0123221D01*
X0128620Y0126216D02*
X0129909Y0126216D01*
X0129909Y0127215D02*
X0128886Y0127215D01*
X0128886Y0128213D02*
X0129909Y0128213D01*
X0129909Y0129212D02*
X0128886Y0129212D01*
X0128651Y0130210D02*
X0129909Y0130210D01*
X0129909Y0131209D02*
X0125177Y0131209D01*
X0127705Y0131209D01*
X0127705Y0132207D02*
X0125177Y0132207D01*
X0129909Y0132207D01*
X0129909Y0133206D02*
X0125177Y0133206D01*
X0127705Y0133206D01*
X0128326Y0134204D02*
X0129909Y0134204D01*
X0129901Y0135203D02*
X0128886Y0135203D01*
X0129075Y0136201D02*
X0130075Y0136201D01*
X0130775Y0137200D02*
X0129075Y0137200D01*
X0129407Y0138198D02*
X0131909Y0138198D01*
X0132835Y0139197D02*
X0130165Y0139197D01*
X0130165Y0140195D02*
X0132835Y0140195D01*
X0133297Y0145188D02*
X0129703Y0145188D01*
X0130165Y0146186D02*
X0132835Y0146186D01*
X0132835Y0147185D02*
X0130165Y0147185D01*
X0130165Y0148183D02*
X0132835Y0148183D01*
X0130165Y0148183D01*
X0130165Y0149182D02*
X0132448Y0149182D01*
X0130165Y0149182D01*
X0130165Y0150180D02*
X0131450Y0150180D01*
X0130165Y0150180D01*
X0130451Y0151179D02*
X0129816Y0151179D01*
X0130451Y0151179D01*
X0129452Y0152178D02*
X0116204Y0152178D01*
X0129452Y0152178D01*
X0128454Y0153176D02*
X0115205Y0153176D01*
X0128454Y0153176D01*
X0127455Y0154175D02*
X0114207Y0154175D01*
X0127455Y0154175D01*
X0112835Y0148264D02*
X0112835Y0147527D01*
X0110007Y0147527D01*
X0107959Y0149576D01*
X0107373Y0149819D01*
X0111280Y0149819D01*
X0112835Y0148264D01*
X0112835Y0148183D02*
X0109351Y0148183D01*
X0108353Y0149182D02*
X0111917Y0149182D01*
X0106758Y0143494D02*
X0107482Y0142770D01*
X0108429Y0142378D01*
X0112835Y0142378D01*
X0112835Y0139122D01*
X0110141Y0139122D01*
X0109195Y0138730D01*
X0105041Y0134576D01*
X0104317Y0133852D01*
X0103925Y0132906D01*
X0103925Y0132625D01*
X0098155Y0138395D01*
X0097209Y0138787D01*
X0093656Y0138787D01*
X0095575Y0140706D01*
X0095575Y0144081D01*
X0094837Y0144819D01*
X0105433Y0144819D01*
X0106758Y0143494D01*
X0107061Y0143191D02*
X0095575Y0143191D01*
X0095575Y0142192D02*
X0112835Y0142192D01*
X0112835Y0141194D02*
X0095575Y0141194D01*
X0095065Y0140195D02*
X0112835Y0140195D01*
X0112835Y0139197D02*
X0094066Y0139197D01*
X0098352Y0138198D02*
X0108664Y0138198D01*
X0107665Y0137200D02*
X0099351Y0137200D01*
X0100349Y0136201D02*
X0106667Y0136201D01*
X0105668Y0135203D02*
X0101348Y0135203D01*
X0102346Y0134204D02*
X0104670Y0134204D01*
X0104050Y0133206D02*
X0103345Y0133206D01*
X0106063Y0144189D02*
X0095467Y0144189D01*
X0086500Y0147393D02*
X0081500Y0152393D01*
X0078949Y0149182D02*
X0074051Y0149182D01*
X0075050Y0150180D02*
X0077950Y0150180D01*
X0077425Y0151179D02*
X0075575Y0151179D01*
X0075575Y0152178D02*
X0077425Y0152178D01*
X0077425Y0153176D02*
X0075924Y0153176D01*
X0076922Y0154175D02*
X0077519Y0154175D01*
X0073630Y0158165D02*
X0072448Y0158165D01*
X0070752Y0156468D01*
X0071933Y0156468D01*
X0073630Y0158165D01*
X0072635Y0157170D02*
X0071453Y0157170D01*
X0063807Y0156172D02*
X0063484Y0156172D01*
X0063807Y0156172D01*
X0085481Y0154175D02*
X0087519Y0154175D01*
X0087425Y0153176D02*
X0085575Y0153176D01*
X0078683Y0128852D02*
X0078683Y0128852D01*
X0081318Y0126216D02*
X0083556Y0126216D01*
X0083661Y0126216D02*
X0081318Y0126216D01*
X0082317Y0125218D02*
X0083504Y0125218D01*
X0082317Y0125218D01*
X0083315Y0124219D02*
X0083504Y0124219D01*
X0083315Y0124219D01*
X0087063Y0124219D02*
X0088063Y0124219D01*
X0088063Y0123221D02*
X0087063Y0123221D01*
X0087063Y0125218D02*
X0088063Y0125218D01*
X0088063Y0126216D02*
X0087063Y0126216D01*
X0091500Y0118500D02*
X0090763Y0117763D01*
X0092237Y0117763D01*
X0091500Y0118500D01*
X0091228Y0118228D02*
X0091772Y0118228D01*
X0092382Y0112614D02*
X0087235Y0112614D01*
X0092382Y0107467D01*
X0092382Y0111122D01*
X0092382Y0112614D01*
X0092382Y0112237D02*
X0087612Y0112237D01*
X0088610Y0111239D02*
X0092382Y0111239D01*
X0092382Y0110240D02*
X0089609Y0110240D01*
X0090607Y0109242D02*
X0092382Y0109242D01*
X0092382Y0108243D02*
X0091606Y0108243D01*
X0085472Y0106246D02*
X0077367Y0106246D01*
X0085472Y0106246D01*
X0085292Y0105247D02*
X0082987Y0105247D01*
X0085292Y0105247D01*
X0082530Y0105247D02*
X0082522Y0105247D01*
X0082530Y0105247D01*
X0079021Y0100255D02*
X0076640Y0100255D01*
X0079021Y0100255D01*
X0079157Y0097315D02*
X0079057Y0096273D01*
X0086581Y0098592D01*
X0089203Y0091268D02*
X0089255Y0091268D01*
X0089203Y0091268D01*
X0089255Y0090270D02*
X0088481Y0090270D01*
X0089255Y0090270D01*
X0089255Y0089271D02*
X0082192Y0089271D01*
X0089255Y0089271D01*
X0089255Y0088273D02*
X0076666Y0088273D01*
X0089255Y0088273D01*
X0095005Y0088273D02*
X0100352Y0088273D01*
X0101248Y0089169D02*
X0094370Y0082291D01*
X0091408Y0082291D01*
X0093758Y0084641D01*
X0094567Y0085450D01*
X0095005Y0086507D01*
X0095005Y0089771D01*
X0101248Y0089771D01*
X0101248Y0089169D01*
X0101248Y0089271D02*
X0095005Y0089271D01*
X0095005Y0087274D02*
X0099354Y0087274D01*
X0098355Y0086276D02*
X0094909Y0086276D01*
X0094394Y0085277D02*
X0097357Y0085277D01*
X0096358Y0084279D02*
X0093396Y0084279D01*
X0092397Y0083280D02*
X0095360Y0083280D01*
X0078692Y0096261D02*
X0078584Y0096261D01*
X0116145Y0073295D02*
X0119217Y0073295D01*
X0116145Y0073295D01*
X0116405Y0072297D02*
X0118957Y0072297D01*
X0116405Y0072297D01*
X0116405Y0071298D02*
X0118957Y0071298D01*
X0116405Y0071298D01*
X0116405Y0070300D02*
X0118957Y0070300D01*
X0116405Y0070300D01*
X0116405Y0069301D02*
X0118957Y0069301D01*
X0116405Y0069301D01*
X0116405Y0068303D02*
X0118957Y0068303D01*
X0116405Y0068303D01*
X0116405Y0067304D02*
X0118957Y0067304D01*
X0116405Y0067304D01*
X0116405Y0066306D02*
X0118957Y0066306D01*
X0116405Y0066306D01*
X0116405Y0065307D02*
X0118957Y0065307D01*
X0116405Y0065307D01*
X0116405Y0064309D02*
X0118957Y0064309D01*
X0116405Y0064309D01*
X0116405Y0063310D02*
X0118957Y0063310D01*
X0116405Y0063310D01*
X0116405Y0062311D02*
X0118957Y0062311D01*
X0116405Y0062311D01*
X0115966Y0061313D02*
X0119396Y0061313D01*
X0115966Y0061313D01*
X0112461Y0060314D02*
X0122902Y0060314D01*
X0112461Y0060314D01*
X0112461Y0059316D02*
X0122902Y0059316D01*
X0112461Y0059316D01*
X0112461Y0058317D02*
X0122902Y0058317D01*
X0112461Y0058317D01*
X0112461Y0057319D02*
X0122902Y0057319D01*
X0112461Y0057319D01*
X0112461Y0056320D02*
X0122902Y0056320D01*
X0112461Y0056320D01*
X0112461Y0055322D02*
X0122902Y0055322D01*
X0112461Y0055322D01*
X0112461Y0054323D02*
X0122902Y0054323D01*
X0112461Y0054323D01*
X0112461Y0053325D02*
X0122902Y0053325D01*
X0112461Y0053325D01*
X0112461Y0052326D02*
X0122902Y0052326D01*
X0112461Y0052326D01*
X0112461Y0051328D02*
X0122902Y0051328D01*
X0112461Y0051328D01*
X0112461Y0050329D02*
X0122902Y0050329D01*
X0112461Y0050329D01*
X0112461Y0049331D02*
X0122902Y0049331D01*
X0112461Y0049331D01*
X0112461Y0048332D02*
X0122902Y0048332D01*
X0112461Y0048332D01*
X0112461Y0047334D02*
X0122902Y0047334D01*
X0112461Y0047334D01*
X0112461Y0046335D02*
X0122902Y0046335D01*
X0112461Y0046335D01*
X0112461Y0045337D02*
X0122902Y0045337D01*
X0112461Y0045337D01*
X0112461Y0044338D02*
X0122902Y0044338D01*
X0112461Y0044338D01*
X0112461Y0043340D02*
X0122902Y0043340D01*
X0112461Y0043340D01*
X0112461Y0042341D02*
X0122902Y0042341D01*
X0112461Y0042341D01*
X0112461Y0041343D02*
X0122902Y0041343D01*
X0112461Y0041343D01*
X0112461Y0040344D02*
X0122902Y0040344D01*
X0112461Y0040344D01*
X0112461Y0039346D02*
X0122902Y0039346D01*
X0112461Y0039346D01*
X0112461Y0038347D02*
X0122902Y0038347D01*
X0112461Y0038347D01*
X0112461Y0037349D02*
X0122902Y0037349D01*
X0112461Y0037349D01*
X0112461Y0036350D02*
X0122902Y0036350D01*
X0112461Y0036350D01*
X0112461Y0035352D02*
X0122902Y0035352D01*
X0112461Y0035352D01*
X0112461Y0034353D02*
X0122902Y0034353D01*
X0112461Y0034353D01*
X0116085Y0033355D02*
X0119277Y0033355D01*
X0116085Y0033355D01*
X0116405Y0032356D02*
X0118957Y0032356D01*
X0116405Y0032356D01*
X0116405Y0031358D02*
X0118957Y0031358D01*
X0116405Y0031358D01*
X0116405Y0030359D02*
X0118957Y0030359D01*
X0116405Y0030359D01*
X0116405Y0029361D02*
X0118957Y0029361D01*
X0116405Y0029361D01*
X0116405Y0028362D02*
X0118957Y0028362D01*
X0116405Y0028362D01*
X0116405Y0027364D02*
X0118957Y0027364D01*
X0116405Y0027364D01*
X0116405Y0026365D02*
X0118957Y0026365D01*
X0116405Y0026365D01*
X0116405Y0025367D02*
X0118957Y0025367D01*
X0116405Y0025367D01*
X0116405Y0024368D02*
X0118957Y0024368D01*
X0116405Y0024368D01*
X0116405Y0023370D02*
X0118957Y0023370D01*
X0116405Y0023370D01*
X0116405Y0022371D02*
X0118957Y0022371D01*
X0116405Y0022371D01*
X0116026Y0021373D02*
X0119337Y0021373D01*
X0116026Y0021373D01*
X0125476Y0027393D02*
X0125476Y0067393D01*
X0125476Y0072511D01*
X0135437Y0082472D01*
X0135437Y0093614D01*
X0131736Y0097315D01*
X0125713Y0097315D01*
X0125673Y0097275D01*
X0120728Y0097259D02*
X0119390Y0097259D01*
X0119390Y0097121D02*
X0119390Y0105469D01*
X0119687Y0105171D01*
X0120634Y0104779D01*
X0120728Y0104779D01*
X0120728Y0095783D01*
X0119390Y0097121D01*
X0119390Y0098258D02*
X0120728Y0098258D01*
X0120728Y0099256D02*
X0119390Y0099256D01*
X0119390Y0100255D02*
X0120728Y0100255D01*
X0120728Y0101253D02*
X0119390Y0101253D01*
X0119390Y0102252D02*
X0120728Y0102252D01*
X0120728Y0103250D02*
X0119390Y0103250D01*
X0119390Y0104249D02*
X0120728Y0104249D01*
X0119611Y0105247D02*
X0119390Y0105247D01*
X0120250Y0096261D02*
X0120728Y0096261D01*
X0138654Y0103250D02*
X0170781Y0103250D01*
X0171642Y0102252D02*
X0139653Y0102252D01*
X0142697Y0097259D02*
X0144496Y0097259D01*
X0143498Y0096261D02*
X0142697Y0096261D01*
X0168512Y0098258D02*
X0171642Y0098258D01*
X0171642Y0099256D02*
X0168512Y0099256D01*
X0169046Y0097259D02*
X0171642Y0097259D01*
X0171642Y0096261D02*
X0169857Y0096261D01*
X0170162Y0095262D02*
X0171642Y0095262D01*
X0171642Y0094264D02*
X0170162Y0094264D01*
X0170162Y0093265D02*
X0171642Y0093265D01*
X0171642Y0092267D02*
X0170162Y0092267D01*
X0170162Y0091268D02*
X0171642Y0091268D01*
X0171642Y0090270D02*
X0170375Y0090270D01*
X0171373Y0089271D02*
X0171642Y0089271D01*
X0184075Y0089271D02*
X0186500Y0089271D01*
X0186500Y0088273D02*
X0184075Y0088273D01*
X0207000Y0088273D01*
X0207000Y0089271D02*
X0184075Y0089271D01*
X0184075Y0090270D02*
X0186500Y0090270D01*
X0186500Y0091268D02*
X0184075Y0091268D01*
X0199302Y0091268D01*
X0197434Y0092267D02*
X0184075Y0092267D01*
X0186500Y0092267D01*
X0186500Y0093265D02*
X0184075Y0093265D01*
X0196436Y0093265D01*
X0195761Y0094264D02*
X0184075Y0094264D01*
X0186500Y0094264D01*
X0186500Y0095262D02*
X0184075Y0095262D01*
X0195347Y0095262D01*
X0195000Y0096261D02*
X0184075Y0096261D01*
X0186500Y0096261D01*
X0186500Y0097259D02*
X0184075Y0097259D01*
X0195000Y0097259D01*
X0195000Y0098258D02*
X0184075Y0098258D01*
X0186500Y0098258D01*
X0186500Y0099256D02*
X0184075Y0099256D01*
X0195236Y0099256D01*
X0195650Y0100255D02*
X0184075Y0100255D01*
X0186500Y0100255D01*
X0186500Y0101253D02*
X0184075Y0101253D01*
X0196168Y0101253D01*
X0197166Y0102252D02*
X0184075Y0102252D01*
X0186500Y0102252D01*
X0186500Y0103250D02*
X0184075Y0103250D01*
X0198655Y0103250D01*
X0204345Y0103250D02*
X0207000Y0103250D01*
X0207000Y0102252D02*
X0205834Y0102252D01*
X0206832Y0101253D02*
X0207000Y0101253D01*
X0207000Y0104249D02*
X0184075Y0104249D01*
X0186500Y0104249D01*
X0186500Y0105247D02*
X0184075Y0105247D01*
X0207000Y0105247D01*
X0207000Y0106246D02*
X0184075Y0106246D01*
X0186500Y0106246D01*
X0186500Y0107245D02*
X0184075Y0107245D01*
X0207000Y0107245D01*
X0207000Y0108243D02*
X0184075Y0108243D01*
X0186500Y0108243D01*
X0186500Y0109242D02*
X0184075Y0109242D01*
X0207000Y0109242D01*
X0207000Y0110240D02*
X0183793Y0110240D01*
X0186500Y0110240D01*
X0181500Y0109047D02*
X0176500Y0114047D01*
X0184075Y0090270D02*
X0207000Y0090270D01*
X0207000Y0091268D02*
X0203698Y0091268D01*
X0205566Y0092267D02*
X0207000Y0092267D01*
X0207000Y0093265D02*
X0206564Y0093265D01*
X0207000Y0087274D02*
X0184075Y0087274D01*
X0186500Y0087274D01*
X0186500Y0086276D02*
X0184075Y0086276D01*
X0189584Y0086276D01*
X0189802Y0086493D02*
X0187400Y0084092D01*
X0187400Y0082693D01*
X0191200Y0082693D01*
X0191200Y0082093D01*
X0191800Y0082093D01*
X0191800Y0078293D01*
X0193198Y0078293D01*
X0195600Y0080695D01*
X0195600Y0082093D01*
X0191800Y0082093D01*
X0191800Y0082693D01*
X0195600Y0082693D01*
X0195600Y0084092D01*
X0193198Y0086493D01*
X0191800Y0086493D01*
X0191800Y0082693D01*
X0191200Y0082693D01*
X0191200Y0086493D01*
X0189802Y0086493D01*
X0191200Y0086276D02*
X0191800Y0086276D01*
X0191800Y0085277D02*
X0191200Y0085277D01*
X0191200Y0084279D02*
X0191800Y0084279D01*
X0191800Y0083280D02*
X0191200Y0083280D01*
X0191200Y0082282D02*
X0184075Y0082282D01*
X0186500Y0082282D01*
X0187400Y0082093D02*
X0187400Y0080695D01*
X0189802Y0078293D01*
X0191200Y0078293D01*
X0191200Y0082093D01*
X0187400Y0082093D01*
X0187400Y0081283D02*
X0184075Y0081283D01*
X0186500Y0081283D01*
X0186500Y0080285D02*
X0184075Y0080285D01*
X0187810Y0080285D01*
X0188809Y0079286D02*
X0184075Y0079286D01*
X0186500Y0079286D01*
X0186500Y0078288D02*
X0184075Y0078288D01*
X0207000Y0078288D01*
X0207000Y0079286D02*
X0194191Y0079286D01*
X0195190Y0080285D02*
X0207000Y0080285D01*
X0207000Y0081283D02*
X0195600Y0081283D01*
X0195600Y0083280D02*
X0207000Y0083280D01*
X0207000Y0082282D02*
X0191800Y0082282D01*
X0191800Y0081283D02*
X0191200Y0081283D01*
X0191200Y0080285D02*
X0191800Y0080285D01*
X0191800Y0079286D02*
X0191200Y0079286D01*
X0186500Y0077289D02*
X0184075Y0077289D01*
X0207000Y0077289D01*
X0207000Y0076291D02*
X0184075Y0076291D01*
X0186500Y0076291D01*
X0186500Y0075292D02*
X0184075Y0075292D01*
X0207000Y0075292D01*
X0207000Y0074294D02*
X0184075Y0074294D01*
X0186500Y0074294D01*
X0186500Y0073295D02*
X0184075Y0073295D01*
X0207000Y0073295D01*
X0207000Y0072297D02*
X0184075Y0072297D01*
X0186500Y0072297D01*
X0186500Y0071298D02*
X0184075Y0071298D01*
X0207000Y0071298D01*
X0207000Y0070300D02*
X0184075Y0070300D01*
X0186500Y0070300D01*
X0186500Y0069301D02*
X0184075Y0069301D01*
X0207000Y0069301D01*
X0207000Y0068303D02*
X0184075Y0068303D01*
X0186500Y0068303D01*
X0186500Y0067304D02*
X0184075Y0067304D01*
X0207000Y0067304D01*
X0207000Y0066306D02*
X0193386Y0066306D01*
X0193198Y0066493D02*
X0189802Y0066493D01*
X0187400Y0064092D01*
X0187400Y0060695D01*
X0189802Y0058293D01*
X0193198Y0058293D01*
X0195600Y0060695D01*
X0195600Y0064092D01*
X0193198Y0066493D01*
X0194385Y0065307D02*
X0207000Y0065307D01*
X0207000Y0064309D02*
X0195383Y0064309D01*
X0195600Y0063310D02*
X0207000Y0063310D01*
X0207000Y0062311D02*
X0195600Y0062311D01*
X0195600Y0061313D02*
X0207000Y0061313D01*
X0207000Y0060314D02*
X0195219Y0060314D01*
X0194221Y0059316D02*
X0207000Y0059316D01*
X0207000Y0058317D02*
X0193222Y0058317D01*
X0189778Y0058317D02*
X0184075Y0058317D01*
X0186500Y0058317D01*
X0186500Y0057319D02*
X0184075Y0057319D01*
X0207000Y0057319D01*
X0207000Y0056320D02*
X0184075Y0056320D01*
X0186500Y0056320D01*
X0186500Y0055322D02*
X0184075Y0055322D01*
X0207000Y0055322D01*
X0207000Y0054323D02*
X0184075Y0054323D01*
X0186500Y0054323D01*
X0186500Y0053325D02*
X0184075Y0053325D01*
X0207000Y0053325D01*
X0207000Y0052326D02*
X0184075Y0052326D01*
X0186500Y0052326D01*
X0186500Y0051328D02*
X0184075Y0051328D01*
X0207000Y0051328D01*
X0207000Y0050329D02*
X0184075Y0050329D01*
X0186500Y0050329D01*
X0186500Y0049331D02*
X0184075Y0049331D01*
X0207000Y0049331D01*
X0207000Y0048332D02*
X0184075Y0048332D01*
X0186500Y0048332D01*
X0186500Y0047334D02*
X0184075Y0047334D01*
X0198395Y0047334D01*
X0196177Y0046335D02*
X0184075Y0046335D01*
X0186500Y0046335D01*
X0186500Y0045337D02*
X0184075Y0045337D01*
X0194728Y0045337D01*
X0193729Y0044338D02*
X0184075Y0044338D01*
X0186500Y0044338D01*
X0186500Y0043340D02*
X0184075Y0043340D01*
X0192918Y0043340D01*
X0192341Y0042341D02*
X0184075Y0042341D01*
X0186500Y0042341D01*
X0186500Y0041343D02*
X0184075Y0041343D01*
X0191786Y0041343D01*
X0191518Y0040344D02*
X0184075Y0040344D01*
X0186500Y0040344D01*
X0186500Y0039346D02*
X0184075Y0039346D01*
X0191251Y0039346D01*
X0191094Y0038347D02*
X0184075Y0038347D01*
X0186500Y0038347D01*
X0186500Y0037349D02*
X0184075Y0037349D01*
X0191094Y0037349D01*
X0191094Y0036350D02*
X0188543Y0036350D01*
X0189237Y0035352D02*
X0191274Y0035352D01*
X0191542Y0034353D02*
X0189260Y0034353D01*
X0189260Y0032356D02*
X0192393Y0032356D01*
X0192969Y0031358D02*
X0189260Y0031358D01*
X0189045Y0030359D02*
X0193102Y0030359D01*
X0192685Y0029942D02*
X0192685Y0029942D01*
X0192103Y0029361D02*
X0188898Y0029361D01*
X0189260Y0028362D02*
X0191105Y0028362D01*
X0190106Y0027364D02*
X0189260Y0027364D01*
X0186500Y0022941D02*
X0185767Y0022941D01*
X0175220Y0012393D01*
X0185136Y0012393D01*
X0186500Y0013757D01*
X0186500Y0022941D01*
X0186500Y0022371D02*
X0185198Y0022371D01*
X0184199Y0021373D02*
X0186500Y0021373D01*
X0186500Y0020374D02*
X0183201Y0020374D01*
X0182202Y0019376D02*
X0186500Y0019376D01*
X0186500Y0018377D02*
X0181204Y0018377D01*
X0180205Y0017378D02*
X0186500Y0017378D01*
X0186500Y0016380D02*
X0179207Y0016380D01*
X0178208Y0015381D02*
X0186500Y0015381D01*
X0186500Y0014383D02*
X0177210Y0014383D01*
X0176211Y0013384D02*
X0186127Y0013384D01*
X0186079Y0033355D02*
X0191816Y0033355D01*
X0186079Y0034353D02*
X0185110Y0034353D01*
X0185110Y0035352D02*
X0186079Y0035352D01*
X0186079Y0036350D02*
X0185110Y0036350D01*
X0204605Y0047334D02*
X0207000Y0047334D01*
X0207000Y0046335D02*
X0206823Y0046335D01*
X0188779Y0059316D02*
X0184075Y0059316D01*
X0186500Y0059316D01*
X0186500Y0060314D02*
X0184075Y0060314D01*
X0187781Y0060314D01*
X0187400Y0061313D02*
X0184075Y0061313D01*
X0186500Y0061313D01*
X0186500Y0062311D02*
X0184075Y0062311D01*
X0187400Y0062311D01*
X0187400Y0063310D02*
X0184075Y0063310D01*
X0186500Y0063310D01*
X0186500Y0064309D02*
X0184075Y0064309D01*
X0187617Y0064309D01*
X0188615Y0065307D02*
X0184075Y0065307D01*
X0186500Y0065307D01*
X0186500Y0066306D02*
X0184075Y0066306D01*
X0189614Y0066306D01*
X0173925Y0065307D02*
X0171008Y0065307D01*
X0173925Y0065307D01*
X0173925Y0064309D02*
X0170009Y0064309D01*
X0173925Y0064309D01*
X0173925Y0063310D02*
X0170563Y0063310D01*
X0173925Y0063310D01*
X0173925Y0062311D02*
X0171562Y0062311D01*
X0173925Y0062311D01*
X0173925Y0061313D02*
X0172560Y0061313D01*
X0173925Y0061313D01*
X0173925Y0060314D02*
X0173559Y0060314D01*
X0173925Y0060314D01*
X0173925Y0059316D02*
X0173787Y0059316D01*
X0173925Y0059316D01*
X0173925Y0058317D02*
X0173787Y0058317D01*
X0173925Y0058317D01*
X0173925Y0057319D02*
X0173787Y0057319D01*
X0173925Y0057319D01*
X0173925Y0056320D02*
X0173787Y0056320D01*
X0173925Y0056320D01*
X0173925Y0055322D02*
X0173787Y0055322D01*
X0173925Y0055322D01*
X0173925Y0054323D02*
X0173410Y0054323D01*
X0173925Y0054323D01*
X0173925Y0053325D02*
X0172411Y0053325D01*
X0173925Y0053325D01*
X0173925Y0052326D02*
X0171413Y0052326D01*
X0173925Y0052326D01*
X0147772Y0052326D02*
X0146803Y0052326D01*
X0146803Y0051328D02*
X0147772Y0051328D01*
X0147772Y0053325D02*
X0146803Y0053325D01*
X0146803Y0054323D02*
X0147772Y0054323D01*
X0147772Y0055322D02*
X0146803Y0055322D01*
X0146803Y0056320D02*
X0147772Y0056320D01*
X0140787Y0049331D02*
X0128051Y0049331D01*
X0140787Y0049331D01*
X0140787Y0048332D02*
X0128051Y0048332D01*
X0140787Y0048332D01*
X0141462Y0047334D02*
X0128051Y0047334D01*
X0141462Y0047334D01*
X0141376Y0046335D02*
X0128051Y0046335D01*
X0141376Y0046335D01*
X0140172Y0045337D02*
X0128051Y0045337D01*
X0140172Y0045337D01*
X0139174Y0044338D02*
X0128051Y0044338D01*
X0139174Y0044338D01*
X0138175Y0043340D02*
X0128051Y0043340D01*
X0138175Y0043340D01*
X0137177Y0042341D02*
X0128051Y0042341D01*
X0137177Y0042341D01*
X0136725Y0041343D02*
X0128051Y0041343D01*
X0136725Y0041343D01*
X0136720Y0040344D02*
X0128051Y0040344D01*
X0136720Y0040344D01*
X0136720Y0039346D02*
X0128051Y0039346D01*
X0136720Y0039346D01*
X0136720Y0038347D02*
X0128051Y0038347D01*
X0136720Y0038347D01*
X0136720Y0037349D02*
X0128051Y0037349D01*
X0136720Y0037349D01*
X0136720Y0036350D02*
X0128051Y0036350D01*
X0136720Y0036350D01*
X0136720Y0035352D02*
X0128051Y0035352D01*
X0136720Y0035352D01*
X0136720Y0034353D02*
X0128051Y0034353D01*
X0136720Y0034353D01*
X0136720Y0033355D02*
X0131676Y0033355D01*
X0136720Y0033355D01*
X0136720Y0032356D02*
X0131996Y0032356D01*
X0136720Y0032356D01*
X0136720Y0031358D02*
X0131996Y0031358D01*
X0136720Y0031358D01*
X0136720Y0030359D02*
X0131996Y0030359D01*
X0136720Y0030359D01*
X0136720Y0029361D02*
X0131996Y0029361D01*
X0136720Y0029361D01*
X0141870Y0033355D02*
X0142055Y0033355D01*
X0145106Y0017429D02*
X0149722Y0017429D01*
X0151386Y0015765D01*
X0152182Y0014968D01*
X0147567Y0014968D01*
X0145106Y0017429D01*
X0145156Y0017378D02*
X0149772Y0017378D01*
X0150771Y0016380D02*
X0146155Y0016380D01*
X0147153Y0015381D02*
X0151769Y0015381D01*
X0123617Y0074294D02*
X0117042Y0074294D01*
X0123617Y0074294D01*
X0135059Y0124219D02*
X0136850Y0124219D01*
X0135059Y0124219D01*
X0136500Y0129212D02*
X0136500Y0129212D01*
X0136500Y0130210D02*
X0136500Y0130210D01*
X0126500Y0130210D02*
X0126500Y0130210D01*
X0126500Y0129212D02*
X0126500Y0129212D01*
X0116500Y0129212D02*
X0116500Y0129212D01*
X0116500Y0130210D02*
X0116500Y0130210D01*
X0184075Y0085277D02*
X0186500Y0085277D01*
X0186500Y0084279D02*
X0184075Y0084279D01*
X0187587Y0084279D01*
X0187400Y0083280D02*
X0184075Y0083280D01*
X0186500Y0083280D01*
X0188586Y0085277D02*
X0184075Y0085277D01*
X0193416Y0086276D02*
X0207000Y0086276D01*
X0207000Y0085277D02*
X0194414Y0085277D01*
X0195413Y0084279D02*
X0207000Y0084279D01*
X0207000Y0111239D02*
X0204538Y0111239D01*
X0205536Y0112237D02*
X0207000Y0112237D01*
X0207000Y0113236D02*
X0206535Y0113236D01*
X0011500Y0082393D02*
X0005988Y0076803D01*
X0005988Y0069519D01*
X0007957Y0067393D01*
X0006790Y0081283D02*
X0006000Y0081283D01*
X0006000Y0082282D02*
X0007425Y0082282D01*
X0007457Y0083280D02*
X0006000Y0083280D01*
X0006000Y0084279D02*
X0007870Y0084279D01*
X0008621Y0085277D02*
X0006000Y0085277D01*
X0006000Y0086276D02*
X0010225Y0086276D01*
D29*
X0073941Y0120700D03*
X0148862Y0115779D03*
X0148941Y0124795D03*
M02*
