G75*
%MOIN*%
%OFA0B0*%
%FSLAX25Y25*%
%IPPOS*%
%LPD*%
%AMOC8*
5,1,8,0,0,1.08239X$1,22.5*
%
%ADD10C,0.05000*%
%ADD11C,0.12611*%
%ADD12OC8,0.10800*%
%ADD13R,0.05950X0.05950*%
%ADD14OC8,0.05950*%
%ADD15C,0.05950*%
%ADD16R,0.10800X0.10800*%
%ADD17R,0.12800X0.12800*%
%ADD18R,0.10839X0.10839*%
%ADD19C,0.10800*%
%ADD20OC8,0.06000*%
%ADD21C,0.05156*%
D10*
X0052484Y0014598D02*
X0047524Y0019598D01*
X0047484Y0027315D01*
X0047524Y0026645D02*
X0047524Y0067393D01*
X0094295Y0067433D02*
X0094295Y0027433D01*
X0094413Y0042433D02*
X0128311Y0042472D01*
X0136697Y0050740D01*
X0146776Y0050740D01*
X0157602Y0040307D02*
X0157602Y0091803D01*
X0166500Y0100700D01*
X0166500Y0132393D01*
X0151500Y0147393D01*
X0171500Y0147393D02*
X0181500Y0137354D01*
X0181500Y0098378D01*
X0167287Y0084204D01*
X0166500Y0057393D02*
X0176500Y0057393D01*
X0181500Y0052393D01*
X0181500Y0022393D01*
X0173665Y0014559D01*
X0052563Y0014559D01*
X0157602Y0040307D02*
X0167287Y0030622D01*
D11*
X0011500Y0037393D03*
X0011500Y0137393D03*
X0201500Y0137393D03*
X0201500Y0037393D03*
D12*
X0167287Y0044008D03*
X0167287Y0057393D03*
X0167287Y0070779D03*
X0167287Y0084165D03*
X0147287Y0077472D03*
X0147287Y0090858D03*
X0147287Y0064086D03*
X0147287Y0050700D03*
X0147287Y0037315D03*
X0147287Y0023929D03*
X0167287Y0030622D03*
X0201500Y0117393D03*
D13*
X0051500Y0142393D03*
X0011500Y0112393D03*
D14*
X0051500Y0152393D03*
X0061500Y0152393D03*
X0061500Y0142393D03*
X0071500Y0142393D03*
X0081500Y0142393D03*
X0091500Y0142393D03*
X0091500Y0152393D03*
X0081500Y0152393D03*
X0071500Y0152393D03*
D15*
X0011500Y0102393D03*
X0011500Y0092393D03*
X0011500Y0082393D03*
X0011500Y0072393D03*
X0011500Y0062393D03*
D16*
X0151500Y0147393D03*
X0171500Y0147393D03*
D17*
X0047524Y0067393D03*
X0047524Y0027393D03*
D18*
X0063114Y0027393D03*
X0078705Y0027393D03*
X0094295Y0027393D03*
X0109886Y0027393D03*
X0125476Y0027393D03*
X0125476Y0067393D03*
X0109886Y0067393D03*
X0094295Y0067393D03*
X0078705Y0067393D03*
X0063114Y0067393D03*
D19*
X0201500Y0097393D03*
D20*
X0191500Y0082393D03*
X0191500Y0062393D03*
D21*
X0148862Y0115779D03*
X0148941Y0124795D03*
X0073941Y0120700D03*
M02*
