G75*
%MOIN*%
%OFA0B0*%
%FSLAX25Y25*%
%IPPOS*%
%LPD*%
%AMOC8*
5,1,8,0,0,1.08239X$1,22.5*
%
%ADD10C,0.12611*%
%ADD11R,0.05131X0.04737*%
%ADD12R,0.07099X0.05918*%
%ADD13R,0.02572X0.03123*%
%ADD14R,0.06706X0.06706*%
%ADD15R,0.04737X0.05131*%
%ADD16R,0.07690X0.02572*%
%ADD17OC8,0.10800*%
%ADD18R,0.05950X0.05950*%
%ADD19OC8,0.05950*%
%ADD20C,0.05950*%
%ADD21R,0.03950X0.04343*%
%ADD22R,0.10800X0.10800*%
%ADD23R,0.12800X0.12800*%
%ADD24R,0.10839X0.10839*%
%ADD25C,0.10800*%
%ADD26OC8,0.06000*%
%ADD27R,0.05918X0.07099*%
%ADD28C,0.05156*%
D10*
X0011500Y0037393D03*
X0011500Y0137393D03*
X0201500Y0137393D03*
X0201500Y0037393D03*
D11*
X0185594Y0033102D03*
X0185594Y0026409D03*
X0164846Y0017393D03*
X0158154Y0017393D03*
X0073665Y0091527D03*
X0066972Y0091527D03*
X0067051Y0103614D03*
X0073744Y0103614D03*
X0116500Y0141547D03*
X0116500Y0148240D03*
X0126500Y0148240D03*
X0126500Y0141547D03*
X0136500Y0141547D03*
X0136500Y0148240D03*
X0161500Y0120740D03*
X0161500Y0114047D03*
X0176500Y0114047D03*
X0176500Y0120740D03*
X0164846Y0097393D03*
X0158154Y0097393D03*
D12*
X0141500Y0113456D03*
X0141500Y0121330D03*
D13*
X0136500Y0128240D03*
X0136500Y0136547D03*
X0126500Y0136547D03*
X0126500Y0128240D03*
X0116500Y0128240D03*
X0116500Y0136547D03*
D14*
X0063390Y0117393D03*
X0049610Y0117393D03*
X0053390Y0097393D03*
X0039610Y0097393D03*
D15*
X0039453Y0105307D03*
X0046146Y0105307D03*
X0042957Y0117393D03*
X0036264Y0117393D03*
X0019846Y0122393D03*
X0013154Y0122393D03*
D16*
X0097327Y0115189D03*
X0097327Y0112630D03*
X0097327Y0110071D03*
X0097327Y0107511D03*
X0097327Y0104952D03*
X0097327Y0102393D03*
X0097327Y0099834D03*
X0097327Y0097275D03*
X0097327Y0094716D03*
X0097327Y0092157D03*
X0125673Y0092157D03*
X0125673Y0094716D03*
X0125673Y0097275D03*
X0125673Y0099834D03*
X0125673Y0102393D03*
X0125673Y0104952D03*
X0125673Y0107511D03*
X0125673Y0110071D03*
X0125673Y0112630D03*
X0125673Y0115189D03*
D17*
X0147287Y0090858D03*
X0147287Y0077472D03*
X0147287Y0064086D03*
X0147287Y0050700D03*
X0147287Y0037315D03*
X0147287Y0023929D03*
X0167287Y0030622D03*
X0167287Y0044008D03*
X0167287Y0057393D03*
X0167287Y0070779D03*
X0167287Y0084165D03*
X0201500Y0117393D03*
D18*
X0051500Y0142393D03*
X0011500Y0112393D03*
D19*
X0051500Y0152393D03*
X0061500Y0152393D03*
X0061500Y0142393D03*
X0071500Y0142393D03*
X0081500Y0142393D03*
X0091500Y0142393D03*
X0091500Y0152393D03*
X0081500Y0152393D03*
X0071500Y0152393D03*
D20*
X0011500Y0102393D03*
X0011500Y0092393D03*
X0011500Y0082393D03*
X0011500Y0072393D03*
X0011500Y0062393D03*
D21*
G36*
X0078736Y0099190D02*
X0081930Y0096868D01*
X0079378Y0093356D01*
X0076184Y0095678D01*
X0078736Y0099190D01*
G37*
G36*
X0082438Y0104286D02*
X0085632Y0101964D01*
X0083080Y0098452D01*
X0079886Y0100774D01*
X0082438Y0104286D01*
G37*
G36*
X0086260Y0101509D02*
X0089454Y0099187D01*
X0086902Y0095675D01*
X0083708Y0097997D01*
X0086260Y0101509D01*
G37*
G36*
X0082558Y0096413D02*
X0085752Y0094091D01*
X0083200Y0090579D01*
X0080006Y0092901D01*
X0082558Y0096413D01*
G37*
D22*
X0151500Y0147393D03*
X0171500Y0147393D03*
D23*
X0047524Y0067393D03*
X0047524Y0027393D03*
D24*
X0063114Y0027393D03*
X0078705Y0027393D03*
X0094295Y0027393D03*
X0109886Y0027393D03*
X0125476Y0027393D03*
X0125476Y0067393D03*
X0109886Y0067393D03*
X0094295Y0067393D03*
X0078705Y0067393D03*
X0063114Y0067393D03*
D25*
X0201500Y0097393D03*
D26*
X0191500Y0082393D03*
X0191500Y0062393D03*
D27*
X0095437Y0122393D03*
X0087563Y0122393D03*
D28*
X0073941Y0120700D03*
X0148862Y0115779D03*
X0148941Y0124795D03*
M02*
